<svg width="50" height="50" viewBox="0 0 50 50" fill="none" xmlns="http://www.w3.org/2000/svg">
<circle cx="25" cy="25" r="25" fill="#FF7F50"/>
<g clip-path="url(#clip0_843_14749)">
<path d="M27.7019 12C27.6502 12 17.458 12 17.4063 12C14.9702 12.0852 12.9988 14.1127 12.9988 16.5406V16.5491C12.9988 33.3742 12.9816 33.519 13.0333 33.6468C13.128 36.0491 15.1251 38 17.5871 38C20.1007 38 22.1409 35.964 22.1409 33.4594V32.2582V30.5203H27.6933C32.8238 30.5203 36.9902 26.363 36.9902 21.2602C36.9989 16.1573 32.8238 12 27.7019 12ZM27.6674 20.5701C28.072 20.5701 28.3991 20.8938 28.3991 21.2942C28.3991 21.6265 28.1581 22.0183 27.5813 22.0183C27.5813 22.0183 22.7004 22.0183 22.6918 22.0183V20.5616H27.6674V20.5701ZM27.7019 29.4469C25.0333 29.4469 19.5498 29.4043 17.6387 29.5662C16.1667 29.6855 14.7808 30.2307 14.0835 31.3126V25.5367C14.3848 23.2366 16.7349 23.1003 18.3446 23.1003L27.5297 23.0917C29.1997 22.981 30.3963 22.1206 31.0763 20.8853C32.445 18.3978 31.7219 14.9902 29.0017 13.1841C32.9185 13.806 35.9314 17.1966 35.9314 21.2687C35.9142 25.7752 32.2298 29.4469 27.7019 29.4469Z" fill="white"/>
</g>
<defs>
<clipPath id="clip0_843_14749">
<rect width="24" height="26" fill="white" transform="translate(13 12)"/>
</clipPath>
</defs>
</svg>
