<svg width="51" height="51" viewBox="0 0 51 51" fill="none" xmlns="http://www.w3.org/2000/svg">
<circle cx="25.9141" cy="25.1748" r="25" fill="#5355DF"/>
<g clip-path="url(#clip0_642_2455)">
<path d="M28.6169 12.1748C28.5653 12.1748 18.373 12.1748 18.3213 12.1748C15.8852 12.26 13.9139 14.2875 13.9139 16.7154V16.724C13.9139 33.549 13.8967 33.6938 13.9483 33.8216C14.043 36.224 16.0401 38.1748 18.5021 38.1748C21.0158 38.1748 23.0559 36.1388 23.0559 33.6342V32.433V30.6951H28.6083C33.7389 30.6951 37.9053 26.5378 37.9053 21.435C37.9139 16.3321 33.7389 12.1748 28.6169 12.1748ZM28.5825 20.7449C28.9871 20.7449 29.3142 21.0686 29.3142 21.469C29.3142 21.8013 29.0731 22.1932 28.4964 22.1932C28.4964 22.1932 23.6155 22.1932 23.6069 22.1932V20.7364H28.5825V20.7449ZM28.6169 29.6217C25.9483 29.6217 20.4648 29.5791 18.5538 29.741C17.0818 29.8603 15.6958 30.4055 14.9985 31.4874V25.7115C15.2998 23.4114 17.6499 23.2751 19.2597 23.2751L28.4447 23.2665C30.1147 23.1558 31.3113 22.2954 31.9914 21.0601C33.3601 18.5726 32.637 15.165 29.9168 13.3589C33.8335 13.9808 36.8465 17.3714 36.8465 21.4435C36.8292 25.95 33.1449 29.6217 28.6169 29.6217Z" fill="white"/>
</g>
<defs>
<clipPath id="clip0_642_2455">
<rect width="24" height="26" fill="white" transform="translate(13.9141 12.1748)"/>
</clipPath>
</defs>
</svg>
