<svg width="51" height="50" viewBox="0 0 51 50" fill="none" xmlns="http://www.w3.org/2000/svg">
<circle cx="25.9531" cy="25" r="25" fill="#FFC961"/>
<g clip-path="url(#clip0_843_11652)">
<path d="M28.655 12C28.6033 12 18.4111 12 18.3594 12C15.9233 12.0852 13.952 14.1127 13.952 16.5406V16.5491C13.952 33.3742 13.9348 33.519 13.9864 33.6468C14.0811 36.0491 16.0782 38 18.5402 38C21.0538 38 23.094 35.964 23.094 33.4594V32.2582V30.5203H28.6464C33.7769 30.5203 37.9434 26.363 37.9434 21.2602C37.952 16.1573 33.7769 12 28.655 12ZM28.6206 20.5701C29.0251 20.5701 29.3523 20.8938 29.3523 21.2942C29.3523 21.6265 29.1112 22.0183 28.5345 22.0183C28.5345 22.0183 23.6536 22.0183 23.6449 22.0183V20.5616H28.6206V20.5701ZM28.655 29.4469C25.9864 29.4469 20.5029 29.4043 18.5919 29.5662C17.1198 29.6855 15.7339 30.2307 15.0366 31.3126V25.5367C15.3379 23.2366 17.688 23.1003 19.2977 23.1003L28.4828 23.0917C30.1528 22.981 31.3494 22.1206 32.0294 20.8853C33.3982 18.3978 32.6751 14.9902 29.9548 13.1841C33.8716 13.806 36.8845 17.1966 36.8845 21.2687C36.8673 25.7752 33.183 29.4469 28.655 29.4469Z" fill="#0F0E0E"/>
</g>
<defs>
<clipPath id="clip0_843_11652">
<rect width="24" height="26" fill="white" transform="translate(13.9531 12)"/>
</clipPath>
</defs>
</svg>
