<svg width="170" height="50" viewBox="0 0 170 50" fill="none" xmlns="http://www.w3.org/2000/svg">
<path d="M59.9609 35.16V15H68.4729C68.6689 15 68.9303 15.0093 69.2569 15.028C69.5929 15.0373 69.8916 15.0653 70.1529 15.112C71.3569 15.2987 72.3416 15.6953 73.1069 16.302C73.8816 16.9087 74.4509 17.674 74.8149 18.598C75.1789 19.5127 75.3609 20.5347 75.3609 21.664C75.3609 22.7933 75.1743 23.82 74.8009 24.744C74.4369 25.6587 73.8676 26.4193 73.0929 27.026C72.3276 27.6327 71.3476 28.0293 70.1529 28.216C69.8916 28.2533 69.5929 28.2813 69.2569 28.3C68.9209 28.3187 68.6596 28.328 68.4729 28.328H63.7689V35.16H59.9609ZM63.7689 24.772H68.3049C68.5009 24.772 68.7156 24.7627 68.9489 24.744C69.1823 24.7253 69.3969 24.688 69.5929 24.632C70.1063 24.492 70.5029 24.2587 70.7829 23.932C71.0629 23.596 71.2543 23.2273 71.3569 22.826C71.4689 22.4153 71.5249 22.028 71.5249 21.664C71.5249 21.3 71.4689 20.9173 71.3569 20.516C71.2543 20.1053 71.0629 19.7367 70.7829 19.41C70.5029 19.074 70.1063 18.836 69.5929 18.696C69.3969 18.64 69.1823 18.6027 68.9489 18.584C68.7156 18.5653 68.5009 18.556 68.3049 18.556H63.7689V24.772Z" fill="#0F0E0E"/>
<path d="M82.0711 35.58C80.9884 35.58 80.0691 35.3747 79.3131 34.964C78.5664 34.544 77.9971 33.9887 77.6051 33.298C77.2224 32.598 77.0311 31.828 77.0311 30.988C77.0311 30.288 77.1384 29.6487 77.3531 29.07C77.5678 28.4913 77.9131 27.9827 78.3891 27.544C78.8744 27.096 79.5231 26.7227 80.3351 26.424C80.8951 26.2187 81.5624 26.0367 82.3371 25.878C83.1118 25.7193 83.9891 25.57 84.9691 25.43C85.9491 25.2807 87.0271 25.1173 88.2031 24.94L86.8311 25.696C86.8311 24.8 86.6164 24.142 86.1871 23.722C85.7578 23.302 85.0391 23.092 84.0311 23.092C83.4711 23.092 82.8878 23.2273 82.2811 23.498C81.6744 23.7687 81.2498 24.2493 81.0071 24.94L77.5631 23.848C77.9458 22.5973 78.6644 21.58 79.7191 20.796C80.7738 20.012 82.2111 19.62 84.0311 19.62C85.3658 19.62 86.5511 19.8253 87.5871 20.236C88.6231 20.6467 89.4071 21.356 89.9391 22.364C90.2378 22.924 90.4151 23.484 90.4711 24.044C90.5271 24.604 90.5551 25.2293 90.5551 25.92V35.16H87.2231V32.052L87.6991 32.696C86.9618 33.7133 86.1638 34.4507 85.3051 34.908C84.4558 35.356 83.3778 35.58 82.0711 35.58ZM82.8831 32.584C83.5831 32.584 84.1711 32.4627 84.6471 32.22C85.1324 31.968 85.5151 31.6833 85.7951 31.366C86.0844 31.0487 86.2804 30.7827 86.3831 30.568C86.5791 30.1573 86.6911 29.6813 86.7191 29.14C86.7564 28.5893 86.7751 28.132 86.7751 27.768L87.8951 28.048C86.7658 28.2347 85.8511 28.3933 85.1511 28.524C84.4511 28.6453 83.8864 28.7573 83.4571 28.86C83.0278 28.9627 82.6498 29.0747 82.3231 29.196C81.9498 29.3453 81.6464 29.5087 81.4131 29.686C81.1891 29.854 81.0211 30.0407 80.9091 30.246C80.8064 30.4513 80.7551 30.68 80.7551 30.932C80.7551 31.2773 80.8391 31.576 81.0071 31.828C81.1844 32.0707 81.4318 32.2573 81.7491 32.388C82.0664 32.5187 82.4444 32.584 82.8831 32.584Z" fill="#0F0E0E"/>
<path d="M94.1953 35.16V20.04H97.5553V23.736L97.1913 23.26C97.3873 22.7373 97.6486 22.2613 97.9753 21.832C98.302 21.4027 98.7033 21.048 99.1793 20.768C99.5433 20.544 99.94 20.3713 100.369 20.25C100.799 20.1193 101.242 20.04 101.699 20.012C102.157 19.9747 102.614 19.984 103.071 20.04V23.596C102.651 23.4653 102.161 23.4233 101.601 23.47C101.051 23.5073 100.551 23.6333 100.103 23.848C99.6553 24.0533 99.2773 24.3287 98.9693 24.674C98.6613 25.01 98.428 25.4113 98.2693 25.878C98.1106 26.3353 98.0313 26.8533 98.0313 27.432V35.16H94.1953Z" fill="#0F0E0E"/>
<path d="M109.634 35.58C108.551 35.58 107.632 35.3747 106.876 34.964C106.129 34.544 105.56 33.9887 105.168 33.298C104.785 32.598 104.594 31.828 104.594 30.988C104.594 30.288 104.701 29.6487 104.916 29.07C105.13 28.4913 105.476 27.9827 105.952 27.544C106.437 27.096 107.086 26.7227 107.898 26.424C108.458 26.2187 109.125 26.0367 109.9 25.878C110.674 25.7193 111.552 25.57 112.532 25.43C113.512 25.2807 114.59 25.1173 115.766 24.94L114.394 25.696C114.394 24.8 114.179 24.142 113.75 23.722C113.32 23.302 112.602 23.092 111.594 23.092C111.034 23.092 110.45 23.2273 109.844 23.498C109.237 23.7687 108.812 24.2493 108.57 24.94L105.126 23.848C105.508 22.5973 106.227 21.58 107.282 20.796C108.336 20.012 109.774 19.62 111.594 19.62C112.928 19.62 114.114 19.8253 115.15 20.236C116.186 20.6467 116.97 21.356 117.502 22.364C117.8 22.924 117.978 23.484 118.034 24.044C118.09 24.604 118.118 25.2293 118.118 25.92V35.16H114.786V32.052L115.262 32.696C114.524 33.7133 113.726 34.4507 112.868 34.908C112.018 35.356 110.94 35.58 109.634 35.58ZM110.446 32.584C111.146 32.584 111.734 32.4627 112.21 32.22C112.695 31.968 113.078 31.6833 113.358 31.366C113.647 31.0487 113.843 30.7827 113.946 30.568C114.142 30.1573 114.254 29.6813 114.282 29.14C114.319 28.5893 114.338 28.132 114.338 27.768L115.458 28.048C114.328 28.2347 113.414 28.3933 112.714 28.524C112.014 28.6453 111.449 28.7573 111.02 28.86C110.59 28.9627 110.212 29.0747 109.886 29.196C109.512 29.3453 109.209 29.5087 108.976 29.686C108.752 29.854 108.584 30.0407 108.472 30.246C108.369 30.4513 108.318 30.68 108.318 30.932C108.318 31.2773 108.402 31.576 108.57 31.828C108.747 32.0707 108.994 32.2573 109.312 32.388C109.629 32.5187 110.007 32.584 110.446 32.584Z" fill="#0F0E0E"/>
<path d="M127.89 35.58C126.499 35.58 125.281 35.23 124.236 34.53C123.19 33.83 122.374 32.878 121.786 31.674C121.207 30.47 120.918 29.112 120.918 27.6C120.918 26.06 121.212 24.6927 121.8 23.498C122.397 22.294 123.232 21.3467 124.306 20.656C125.379 19.9653 126.639 19.62 128.086 19.62C129.523 19.62 130.732 19.97 131.712 20.67C132.692 21.37 133.434 22.322 133.938 23.526C134.442 24.73 134.694 26.088 134.694 27.6C134.694 29.112 134.437 30.47 133.924 31.674C133.42 32.878 132.664 33.83 131.656 34.53C130.648 35.23 129.392 35.58 127.89 35.58ZM128.506 32.192C129.355 32.192 130.032 32.0007 130.536 31.618C131.049 31.2353 131.418 30.6987 131.642 30.008C131.866 29.3173 131.978 28.5147 131.978 27.6C131.978 26.6853 131.866 25.8827 131.642 25.192C131.418 24.5013 131.058 23.9647 130.564 23.582C130.078 23.1993 129.439 23.008 128.646 23.008C127.796 23.008 127.096 23.218 126.546 23.638C126.004 24.0487 125.603 24.604 125.342 25.304C125.08 25.9947 124.95 26.76 124.95 27.6C124.95 28.4493 125.076 29.224 125.328 29.924C125.58 30.6147 125.967 31.1653 126.49 31.576C127.012 31.9867 127.684 32.192 128.506 32.192ZM131.978 35.16V24.8H131.502V15H135.338V35.16H131.978Z" fill="#0F0E0E"/>
<path d="M146.062 35.58C144.54 35.58 143.206 35.2393 142.058 34.558C140.91 33.8767 140.014 32.9387 139.37 31.744C138.735 30.54 138.418 29.1587 138.418 27.6C138.418 26.0227 138.744 24.6367 139.398 23.442C140.051 22.238 140.952 21.3 142.1 20.628C143.248 19.956 144.568 19.62 146.062 19.62C147.583 19.62 148.918 19.9607 150.066 20.642C151.223 21.3233 152.124 22.266 152.768 23.47C153.412 24.6647 153.734 26.0413 153.734 27.6C153.734 29.168 153.407 30.554 152.754 31.758C152.11 32.9527 151.209 33.8907 150.052 34.572C148.904 35.244 147.574 35.58 146.062 35.58ZM146.062 32.024C147.284 32.024 148.194 31.6133 148.792 30.792C149.398 29.9613 149.702 28.8973 149.702 27.6C149.702 26.256 149.394 25.1827 148.778 24.38C148.171 23.5773 147.266 23.176 146.062 23.176C145.231 23.176 144.55 23.3627 144.018 23.736C143.486 24.1093 143.089 24.6273 142.828 25.29C142.576 25.9527 142.45 26.7227 142.45 27.6C142.45 28.9533 142.753 30.0313 143.36 30.834C143.976 31.6273 144.876 32.024 146.062 32.024Z" fill="#0F0E0E"/>
<path d="M154.586 35.16L159.99 27.516L154.698 20.04H159.178L162.202 24.52L165.17 20.04H169.65L164.358 27.516L169.79 35.16H165.31L162.202 30.512L159.066 35.16H154.586Z" fill="#0F0E0E"/>
<circle cx="25" cy="25" r="25" fill="#FF7F50"/>
<g clip-path="url(#clip0_843_14747)">
<path d="M27.7019 12C27.6502 12 17.458 12 17.4063 12C14.9702 12.0852 12.9988 14.1127 12.9988 16.5406V16.5491C12.9988 33.3742 12.9816 33.519 13.0333 33.6468C13.128 36.0491 15.1251 38 17.5871 38C20.1007 38 22.1409 35.964 22.1409 33.4594V32.2582V30.5203H27.6933C32.8238 30.5203 36.9902 26.363 36.9902 21.2602C36.9989 16.1573 32.8238 12 27.7019 12ZM27.6674 20.5701C28.072 20.5701 28.3991 20.8938 28.3991 21.2942C28.3991 21.6265 28.1581 22.0183 27.5813 22.0183C27.5813 22.0183 22.7004 22.0183 22.6918 22.0183V20.5616H27.6674V20.5701ZM27.7019 29.4469C25.0333 29.4469 19.5498 29.4043 17.6387 29.5662C16.1667 29.6855 14.7808 30.2307 14.0835 31.3126V25.5367C14.3848 23.2366 16.7349 23.1003 18.3446 23.1003L27.5297 23.0917C29.1997 22.981 30.3963 22.1206 31.0763 20.8853C32.445 18.3978 31.7219 14.9902 29.0017 13.1841C32.9185 13.806 35.9314 17.1966 35.9314 21.2687C35.9142 25.7752 32.2298 29.4469 27.7019 29.4469Z" fill="white"/>
</g>
<defs>
<clipPath id="clip0_843_14747">
<rect width="24" height="26" fill="white" transform="translate(13 12)"/>
</clipPath>
</defs>
</svg>
