<svg width="171" height="51" viewBox="0 0 171 51" fill="none" xmlns="http://www.w3.org/2000/svg">
<path d="M60.874 35.3348V15.1748H69.386C69.582 15.1748 69.8434 15.1841 70.17 15.2028C70.506 15.2121 70.8047 15.2401 71.066 15.2868C72.27 15.4735 73.2547 15.8701 74.02 16.4768C74.7947 17.0835 75.364 17.8488 75.728 18.7728C76.092 19.6875 76.274 20.7095 76.274 21.8388C76.274 22.9681 76.0874 23.9948 75.714 24.9188C75.35 25.8335 74.7807 26.5941 74.006 27.2008C73.2407 27.8075 72.2607 28.2041 71.066 28.3908C70.8047 28.4281 70.506 28.4561 70.17 28.4748C69.834 28.4935 69.5727 28.5028 69.386 28.5028H64.682V35.3348H60.874ZM64.682 24.9468H69.218C69.414 24.9468 69.6287 24.9375 69.862 24.9188C70.0954 24.9001 70.31 24.8628 70.506 24.8068C71.0194 24.6668 71.416 24.4335 71.696 24.1068C71.976 23.7708 72.1674 23.4021 72.27 23.0008C72.382 22.5901 72.438 22.2028 72.438 21.8388C72.438 21.4748 72.382 21.0921 72.27 20.6908C72.1674 20.2801 71.976 19.9115 71.696 19.5848C71.416 19.2488 71.0194 19.0108 70.506 18.8708C70.31 18.8148 70.0954 18.7775 69.862 18.7588C69.6287 18.7401 69.414 18.7308 69.218 18.7308H64.682V24.9468Z" fill="white"/>
<path d="M82.9842 35.7548C81.9015 35.7548 80.9822 35.5495 80.2262 35.1388C79.4795 34.7188 78.9102 34.1635 78.5182 33.4728C78.1355 32.7728 77.9442 32.0028 77.9442 31.1628C77.9442 30.4628 78.0515 29.8235 78.2662 29.2448C78.4808 28.6661 78.8262 28.1575 79.3022 27.7188C79.7875 27.2708 80.4362 26.8975 81.2482 26.5988C81.8082 26.3935 82.4755 26.2115 83.2502 26.0528C84.0248 25.8941 84.9022 25.7448 85.8822 25.6048C86.8622 25.4555 87.9402 25.2921 89.1162 25.1148L87.7442 25.8708C87.7442 24.9748 87.5295 24.3168 87.1002 23.8968C86.6708 23.4768 85.9522 23.2668 84.9442 23.2668C84.3842 23.2668 83.8008 23.4021 83.1942 23.6728C82.5875 23.9435 82.1628 24.4241 81.9202 25.1148L78.4762 24.0228C78.8588 22.7721 79.5775 21.7548 80.6322 20.9708C81.6868 20.1868 83.1242 19.7948 84.9442 19.7948C86.2788 19.7948 87.4642 20.0001 88.5002 20.4108C89.5362 20.8215 90.3202 21.5308 90.8522 22.5388C91.1508 23.0988 91.3282 23.6588 91.3842 24.2188C91.4402 24.7788 91.4682 25.4041 91.4682 26.0948V35.3348H88.1362V32.2268L88.6122 32.8708C87.8748 33.8881 87.0768 34.6255 86.2182 35.0828C85.3688 35.5308 84.2908 35.7548 82.9842 35.7548ZM83.7962 32.7588C84.4962 32.7588 85.0842 32.6375 85.5602 32.3948C86.0455 32.1428 86.4282 31.8581 86.7082 31.5408C86.9975 31.2235 87.1935 30.9575 87.2962 30.7428C87.4922 30.3321 87.6042 29.8561 87.6322 29.3148C87.6695 28.7641 87.6882 28.3068 87.6882 27.9428L88.8082 28.2228C87.6788 28.4095 86.7642 28.5681 86.0642 28.6988C85.3642 28.8201 84.7995 28.9321 84.3702 29.0348C83.9408 29.1375 83.5628 29.2495 83.2362 29.3708C82.8628 29.5201 82.5595 29.6835 82.3262 29.8608C82.1022 30.0288 81.9342 30.2155 81.8222 30.4208C81.7195 30.6261 81.6682 30.8548 81.6682 31.1068C81.6682 31.4521 81.7522 31.7508 81.9202 32.0028C82.0975 32.2455 82.3448 32.4321 82.6622 32.5628C82.9795 32.6935 83.3575 32.7588 83.7962 32.7588Z" fill="white"/>
<path d="M95.1084 35.3348V20.2148H98.4684V23.9108L98.1044 23.4348C98.3004 22.9121 98.5617 22.4361 98.8884 22.0068C99.2151 21.5775 99.6164 21.2228 100.092 20.9428C100.456 20.7188 100.853 20.5461 101.282 20.4248C101.712 20.2941 102.155 20.2148 102.612 20.1868C103.07 20.1495 103.527 20.1588 103.984 20.2148V23.7708C103.564 23.6401 103.074 23.5981 102.514 23.6448C101.964 23.6821 101.464 23.8081 101.016 24.0228C100.568 24.2281 100.19 24.5035 99.8824 24.8488C99.5744 25.1848 99.3411 25.5861 99.1824 26.0528C99.0237 26.5101 98.9444 27.0281 98.9444 27.6068V35.3348H95.1084Z" fill="white"/>
<path d="M110.547 35.7548C109.464 35.7548 108.545 35.5495 107.789 35.1388C107.042 34.7188 106.473 34.1635 106.081 33.4728C105.698 32.7728 105.507 32.0028 105.507 31.1628C105.507 30.4628 105.614 29.8235 105.829 29.2448C106.043 28.6661 106.389 28.1575 106.865 27.7188C107.35 27.2708 107.999 26.8975 108.811 26.5988C109.371 26.3935 110.038 26.2115 110.813 26.0528C111.587 25.8941 112.465 25.7448 113.445 25.6048C114.425 25.4555 115.503 25.2921 116.679 25.1148L115.307 25.8708C115.307 24.9748 115.092 24.3168 114.663 23.8968C114.233 23.4768 113.515 23.2668 112.507 23.2668C111.947 23.2668 111.363 23.4021 110.757 23.6728C110.15 23.9435 109.725 24.4241 109.483 25.1148L106.039 24.0228C106.421 22.7721 107.14 21.7548 108.195 20.9708C109.249 20.1868 110.687 19.7948 112.507 19.7948C113.841 19.7948 115.027 20.0001 116.063 20.4108C117.099 20.8215 117.883 21.5308 118.415 22.5388C118.713 23.0988 118.891 23.6588 118.947 24.2188C119.003 24.7788 119.031 25.4041 119.031 26.0948V35.3348H115.699V32.2268L116.175 32.8708C115.437 33.8881 114.639 34.6255 113.781 35.0828C112.931 35.5308 111.853 35.7548 110.547 35.7548ZM111.359 32.7588C112.059 32.7588 112.647 32.6375 113.123 32.3948C113.608 32.1428 113.991 31.8581 114.271 31.5408C114.56 31.2235 114.756 30.9575 114.859 30.7428C115.055 30.3321 115.167 29.8561 115.195 29.3148C115.232 28.7641 115.251 28.3068 115.251 27.9428L116.371 28.2228C115.241 28.4095 114.327 28.5681 113.627 28.6988C112.927 28.8201 112.362 28.9321 111.933 29.0348C111.503 29.1375 111.125 29.2495 110.799 29.3708C110.425 29.5201 110.122 29.6835 109.889 29.8608C109.665 30.0288 109.497 30.2155 109.385 30.4208C109.282 30.6261 109.231 30.8548 109.231 31.1068C109.231 31.4521 109.315 31.7508 109.483 32.0028C109.66 32.2455 109.907 32.4321 110.225 32.5628C110.542 32.6935 110.92 32.7588 111.359 32.7588Z" fill="white"/>
<path d="M128.803 35.7548C127.412 35.7548 126.194 35.4048 125.149 34.7048C124.104 34.0048 123.287 33.0528 122.699 31.8488C122.12 30.6448 121.831 29.2868 121.831 27.7748C121.831 26.2348 122.125 24.8675 122.713 23.6728C123.31 22.4688 124.146 21.5215 125.219 20.8308C126.292 20.1401 127.552 19.7948 128.999 19.7948C130.436 19.7948 131.645 20.1448 132.625 20.8448C133.605 21.5448 134.347 22.4968 134.851 23.7008C135.355 24.9048 135.607 26.2628 135.607 27.7748C135.607 29.2868 135.35 30.6448 134.837 31.8488C134.333 33.0528 133.577 34.0048 132.569 34.7048C131.561 35.4048 130.306 35.7548 128.803 35.7548ZM129.419 32.3668C130.268 32.3668 130.945 32.1755 131.449 31.7928C131.962 31.4101 132.331 30.8735 132.555 30.1828C132.779 29.4921 132.891 28.6895 132.891 27.7748C132.891 26.8601 132.779 26.0575 132.555 25.3668C132.331 24.6761 131.972 24.1395 131.477 23.7568C130.992 23.3741 130.352 23.1828 129.559 23.1828C128.71 23.1828 128.01 23.3928 127.459 23.8128C126.918 24.2235 126.516 24.7788 126.255 25.4788C125.994 26.1695 125.863 26.9348 125.863 27.7748C125.863 28.6241 125.989 29.3988 126.241 30.0988C126.493 30.7895 126.88 31.3401 127.403 31.7508C127.926 32.1615 128.598 32.3668 129.419 32.3668ZM132.891 35.3348V24.9748H132.415V15.1748H136.251V35.3348H132.891Z" fill="white"/>
<path d="M146.975 35.7548C145.454 35.7548 144.119 35.4141 142.971 34.7328C141.823 34.0515 140.927 33.1135 140.283 31.9188C139.648 30.7148 139.331 29.3335 139.331 27.7748C139.331 26.1975 139.658 24.8115 140.311 23.6168C140.964 22.4128 141.865 21.4748 143.013 20.8028C144.161 20.1308 145.482 19.7948 146.975 19.7948C148.496 19.7948 149.831 20.1355 150.979 20.8168C152.136 21.4981 153.037 22.4408 153.681 23.6448C154.325 24.8395 154.647 26.2161 154.647 27.7748C154.647 29.3428 154.32 30.7288 153.667 31.9328C153.023 33.1275 152.122 34.0655 150.965 34.7468C149.817 35.4188 148.487 35.7548 146.975 35.7548ZM146.975 32.1988C148.198 32.1988 149.108 31.7881 149.705 30.9668C150.312 30.1361 150.615 29.0721 150.615 27.7748C150.615 26.4308 150.307 25.3575 149.691 24.5548C149.084 23.7521 148.179 23.3508 146.975 23.3508C146.144 23.3508 145.463 23.5375 144.931 23.9108C144.399 24.2841 144.002 24.8021 143.741 25.4648C143.489 26.1275 143.363 26.8975 143.363 27.7748C143.363 29.1281 143.666 30.2061 144.273 31.0088C144.889 31.8021 145.79 32.1988 146.975 32.1988Z" fill="white"/>
<path d="M155.499 35.3348L160.903 27.6908L155.611 20.2148H160.091L163.115 24.6948L166.083 20.2148H170.563L165.271 27.6908L170.703 35.3348H166.223L163.115 30.6868L159.979 35.3348H155.499Z" fill="white"/>
<circle cx="25.9141" cy="25.1748" r="25" fill="#5355DF"/>
<g clip-path="url(#clip0_642_2453)">
<path d="M28.6169 12.1748C28.5653 12.1748 18.373 12.1748 18.3213 12.1748C15.8852 12.26 13.9139 14.2875 13.9139 16.7154V16.724C13.9139 33.549 13.8967 33.6938 13.9483 33.8216C14.043 36.224 16.0401 38.1748 18.5021 38.1748C21.0158 38.1748 23.0559 36.1388 23.0559 33.6342V32.433V30.6951H28.6083C33.7389 30.6951 37.9053 26.5378 37.9053 21.435C37.9139 16.3321 33.7389 12.1748 28.6169 12.1748ZM28.5825 20.7449C28.9871 20.7449 29.3142 21.0686 29.3142 21.469C29.3142 21.8013 29.0731 22.1932 28.4964 22.1932C28.4964 22.1932 23.6155 22.1932 23.6069 22.1932V20.7364H28.5825V20.7449ZM28.6169 29.6217C25.9483 29.6217 20.4648 29.5791 18.5538 29.741C17.0818 29.8603 15.6958 30.4055 14.9985 31.4874V25.7115C15.2998 23.4114 17.6499 23.2751 19.2597 23.2751L28.4447 23.2665C30.1147 23.1558 31.3113 22.2954 31.9914 21.0601C33.3601 18.5726 32.637 15.165 29.9168 13.3589C33.8335 13.9808 36.8465 17.3714 36.8465 21.4435C36.8292 25.95 33.1449 29.6217 28.6169 29.6217Z" fill="white"/>
</g>
<defs>
<clipPath id="clip0_642_2453">
<rect width="24" height="26" fill="white" transform="translate(13.9141 12.1748)"/>
</clipPath>
</defs>
</svg>
