<svg width="171" height="50" viewBox="0 0 171 50" fill="none" xmlns="http://www.w3.org/2000/svg">
<path d="M60.9141 35.16V15H69.4261C69.6221 15 69.8834 15.0093 70.2101 15.028C70.5461 15.0373 70.8447 15.0653 71.1061 15.112C72.3101 15.2987 73.2947 15.6953 74.0601 16.302C74.8347 16.9087 75.4041 17.674 75.7681 18.598C76.1321 19.5127 76.3141 20.5347 76.3141 21.664C76.3141 22.7933 76.1274 23.82 75.7541 24.744C75.3901 25.6587 74.8207 26.4193 74.0461 27.026C73.2807 27.6327 72.3007 28.0293 71.1061 28.216C70.8447 28.2533 70.5461 28.2813 70.2101 28.3C69.8741 28.3187 69.6127 28.328 69.4261 28.328H64.7221V35.16H60.9141ZM64.7221 24.772H69.2581C69.4541 24.772 69.6687 24.7627 69.9021 24.744C70.1354 24.7253 70.3501 24.688 70.5461 24.632C71.0594 24.492 71.4561 24.2587 71.7361 23.932C72.0161 23.596 72.2074 23.2273 72.3101 22.826C72.4221 22.4153 72.4781 22.028 72.4781 21.664C72.4781 21.3 72.4221 20.9173 72.3101 20.516C72.2074 20.1053 72.0161 19.7367 71.7361 19.41C71.4561 19.074 71.0594 18.836 70.5461 18.696C70.3501 18.64 70.1354 18.6027 69.9021 18.584C69.6687 18.5653 69.4541 18.556 69.2581 18.556H64.7221V24.772Z" fill="white"/>
<path d="M83.0242 35.58C81.9416 35.58 81.0222 35.3747 80.2662 34.964C79.5196 34.544 78.9502 33.9887 78.5582 33.298C78.1756 32.598 77.9842 31.828 77.9842 30.988C77.9842 30.288 78.0916 29.6487 78.3062 29.07C78.5209 28.4913 78.8662 27.9827 79.3422 27.544C79.8276 27.096 80.4762 26.7227 81.2882 26.424C81.8482 26.2187 82.5156 26.0367 83.2902 25.878C84.0649 25.7193 84.9422 25.57 85.9222 25.43C86.9022 25.2807 87.9802 25.1173 89.1562 24.94L87.7842 25.696C87.7842 24.8 87.5696 24.142 87.1402 23.722C86.7109 23.302 85.9922 23.092 84.9842 23.092C84.4242 23.092 83.8409 23.2273 83.2342 23.498C82.6276 23.7687 82.2029 24.2493 81.9602 24.94L78.5162 23.848C78.8989 22.5973 79.6176 21.58 80.6722 20.796C81.7269 20.012 83.1642 19.62 84.9842 19.62C86.3189 19.62 87.5042 19.8253 88.5402 20.236C89.5762 20.6467 90.3602 21.356 90.8922 22.364C91.1909 22.924 91.3682 23.484 91.4242 24.044C91.4802 24.604 91.5082 25.2293 91.5082 25.92V35.16H88.1762V32.052L88.6522 32.696C87.9149 33.7133 87.1169 34.4507 86.2582 34.908C85.4089 35.356 84.3309 35.58 83.0242 35.58ZM83.8362 32.584C84.5362 32.584 85.1242 32.4627 85.6002 32.22C86.0856 31.968 86.4682 31.6833 86.7482 31.366C87.0376 31.0487 87.2336 30.7827 87.3362 30.568C87.5322 30.1573 87.6442 29.6813 87.6722 29.14C87.7096 28.5893 87.7282 28.132 87.7282 27.768L88.8482 28.048C87.7189 28.2347 86.8042 28.3933 86.1042 28.524C85.4042 28.6453 84.8396 28.7573 84.4102 28.86C83.9809 28.9627 83.6029 29.0747 83.2762 29.196C82.9029 29.3453 82.5996 29.5087 82.3662 29.686C82.1422 29.854 81.9742 30.0407 81.8622 30.246C81.7596 30.4513 81.7082 30.68 81.7082 30.932C81.7082 31.2773 81.7922 31.576 81.9602 31.828C82.1376 32.0707 82.3849 32.2573 82.7022 32.388C83.0196 32.5187 83.3976 32.584 83.8362 32.584Z" fill="white"/>
<path d="M95.1484 35.16V20.04H98.5084V23.736L98.1444 23.26C98.3404 22.7373 98.6018 22.2613 98.9284 21.832C99.2551 21.4027 99.6564 21.048 100.132 20.768C100.496 20.544 100.893 20.3713 101.322 20.25C101.752 20.1193 102.195 20.04 102.652 20.012C103.11 19.9747 103.567 19.984 104.024 20.04V23.596C103.604 23.4653 103.114 23.4233 102.554 23.47C102.004 23.5073 101.504 23.6333 101.056 23.848C100.608 24.0533 100.23 24.3287 99.9224 24.674C99.6144 25.01 99.3811 25.4113 99.2224 25.878C99.0638 26.3353 98.9844 26.8533 98.9844 27.432V35.16H95.1484Z" fill="white"/>
<path d="M110.587 35.58C109.504 35.58 108.585 35.3747 107.829 34.964C107.082 34.544 106.513 33.9887 106.121 33.298C105.738 32.598 105.547 31.828 105.547 30.988C105.547 30.288 105.654 29.6487 105.869 29.07C106.083 28.4913 106.429 27.9827 106.905 27.544C107.39 27.096 108.039 26.7227 108.851 26.424C109.411 26.2187 110.078 26.0367 110.853 25.878C111.627 25.7193 112.505 25.57 113.485 25.43C114.465 25.2807 115.543 25.1173 116.719 24.94L115.347 25.696C115.347 24.8 115.132 24.142 114.703 23.722C114.273 23.302 113.555 23.092 112.547 23.092C111.987 23.092 111.403 23.2273 110.797 23.498C110.19 23.7687 109.765 24.2493 109.523 24.94L106.079 23.848C106.461 22.5973 107.18 21.58 108.235 20.796C109.289 20.012 110.727 19.62 112.547 19.62C113.881 19.62 115.067 19.8253 116.103 20.236C117.139 20.6467 117.923 21.356 118.455 22.364C118.753 22.924 118.931 23.484 118.987 24.044C119.043 24.604 119.071 25.2293 119.071 25.92V35.16H115.739V32.052L116.215 32.696C115.477 33.7133 114.679 34.4507 113.821 34.908C112.971 35.356 111.893 35.58 110.587 35.58ZM111.399 32.584C112.099 32.584 112.687 32.4627 113.163 32.22C113.648 31.968 114.031 31.6833 114.311 31.366C114.6 31.0487 114.796 30.7827 114.899 30.568C115.095 30.1573 115.207 29.6813 115.235 29.14C115.272 28.5893 115.291 28.132 115.291 27.768L116.411 28.048C115.281 28.2347 114.367 28.3933 113.667 28.524C112.967 28.6453 112.402 28.7573 111.973 28.86C111.543 28.9627 111.165 29.0747 110.839 29.196C110.465 29.3453 110.162 29.5087 109.929 29.686C109.705 29.854 109.537 30.0407 109.425 30.246C109.322 30.4513 109.271 30.68 109.271 30.932C109.271 31.2773 109.355 31.576 109.523 31.828C109.7 32.0707 109.947 32.2573 110.265 32.388C110.582 32.5187 110.96 32.584 111.399 32.584Z" fill="white"/>
<path d="M128.843 35.58C127.452 35.58 126.234 35.23 125.189 34.53C124.144 33.83 123.327 32.878 122.739 31.674C122.16 30.47 121.871 29.112 121.871 27.6C121.871 26.06 122.165 24.6927 122.753 23.498C123.35 22.294 124.186 21.3467 125.259 20.656C126.332 19.9653 127.592 19.62 129.039 19.62C130.476 19.62 131.685 19.97 132.665 20.67C133.645 21.37 134.387 22.322 134.891 23.526C135.395 24.73 135.647 26.088 135.647 27.6C135.647 29.112 135.39 30.47 134.877 31.674C134.373 32.878 133.617 33.83 132.609 34.53C131.601 35.23 130.346 35.58 128.843 35.58ZM129.459 32.192C130.308 32.192 130.985 32.0007 131.489 31.618C132.002 31.2353 132.371 30.6987 132.595 30.008C132.819 29.3173 132.931 28.5147 132.931 27.6C132.931 26.6853 132.819 25.8827 132.595 25.192C132.371 24.5013 132.012 23.9647 131.517 23.582C131.032 23.1993 130.392 23.008 129.599 23.008C128.75 23.008 128.05 23.218 127.499 23.638C126.958 24.0487 126.556 24.604 126.295 25.304C126.034 25.9947 125.903 26.76 125.903 27.6C125.903 28.4493 126.029 29.224 126.281 29.924C126.533 30.6147 126.92 31.1653 127.443 31.576C127.966 31.9867 128.638 32.192 129.459 32.192ZM132.931 35.16V24.8H132.455V15H136.291V35.16H132.931Z" fill="white"/>
<path d="M147.015 35.58C145.494 35.58 144.159 35.2393 143.011 34.558C141.863 33.8767 140.967 32.9387 140.323 31.744C139.688 30.54 139.371 29.1587 139.371 27.6C139.371 26.0227 139.698 24.6367 140.351 23.442C141.004 22.238 141.905 21.3 143.053 20.628C144.201 19.956 145.522 19.62 147.015 19.62C148.536 19.62 149.871 19.9607 151.019 20.642C152.176 21.3233 153.077 22.266 153.721 23.47C154.365 24.6647 154.687 26.0413 154.687 27.6C154.687 29.168 154.36 30.554 153.707 31.758C153.063 32.9527 152.162 33.8907 151.005 34.572C149.857 35.244 148.527 35.58 147.015 35.58ZM147.015 32.024C148.238 32.024 149.148 31.6133 149.745 30.792C150.352 29.9613 150.655 28.8973 150.655 27.6C150.655 26.256 150.347 25.1827 149.731 24.38C149.124 23.5773 148.219 23.176 147.015 23.176C146.184 23.176 145.503 23.3627 144.971 23.736C144.439 24.1093 144.042 24.6273 143.781 25.29C143.529 25.9527 143.403 26.7227 143.403 27.6C143.403 28.9533 143.706 30.0313 144.313 30.834C144.929 31.6273 145.83 32.024 147.015 32.024Z" fill="white"/>
<path d="M155.539 35.16L160.943 27.516L155.651 20.04H160.131L163.155 24.52L166.123 20.04H170.603L165.311 27.516L170.743 35.16H166.263L163.155 30.512L160.019 35.16H155.539Z" fill="white"/>
<circle cx="25.9531" cy="25" r="25" fill="#FFC961"/>
<g clip-path="url(#clip0_843_11650)">
<path d="M28.655 12C28.6033 12 18.4111 12 18.3594 12C15.9233 12.0852 13.952 14.1127 13.952 16.5406V16.5491C13.952 33.3742 13.9348 33.519 13.9864 33.6468C14.0811 36.0491 16.0782 38 18.5402 38C21.0538 38 23.094 35.964 23.094 33.4594V32.2582V30.5203H28.6464C33.7769 30.5203 37.9434 26.363 37.9434 21.2602C37.952 16.1573 33.7769 12 28.655 12ZM28.6206 20.5701C29.0251 20.5701 29.3523 20.8938 29.3523 21.2942C29.3523 21.6265 29.1112 22.0183 28.5345 22.0183C28.5345 22.0183 23.6536 22.0183 23.6449 22.0183V20.5616H28.6206V20.5701ZM28.655 29.4469C25.9864 29.4469 20.5029 29.4043 18.5919 29.5662C17.1198 29.6855 15.7339 30.2307 15.0366 31.3126V25.5367C15.3379 23.2366 17.688 23.1003 19.2977 23.1003L28.4828 23.0917C30.1528 22.981 31.3494 22.1206 32.0294 20.8853C33.3982 18.3978 32.6751 14.9902 29.9548 13.1841C33.8716 13.806 36.8845 17.1966 36.8845 21.2687C36.8673 25.7752 33.183 29.4469 28.655 29.4469Z" fill="#0F0E0E"/>
</g>
<defs>
<clipPath id="clip0_843_11650">
<rect width="24" height="26" fill="white" transform="translate(13.9531 12)"/>
</clipPath>
</defs>
</svg>
