<svg width="170" height="50" viewBox="0 0 170 50" fill="none" xmlns="http://www.w3.org/2000/svg">
<path d="M59.96 35.16V15H68.472C68.668 15 68.9293 15.0093 69.256 15.028C69.592 15.0373 69.8906 15.0653 70.152 15.112C71.356 15.2987 72.3406 15.6953 73.106 16.302C73.8806 16.9087 74.45 17.674 74.814 18.598C75.178 19.5127 75.36 20.5347 75.36 21.664C75.36 22.7933 75.1733 23.82 74.8 24.744C74.436 25.6587 73.8666 26.4193 73.092 27.026C72.3266 27.6327 71.3466 28.0293 70.152 28.216C69.8906 28.2533 69.592 28.2813 69.256 28.3C68.92 28.3187 68.6586 28.328 68.472 28.328H63.768V35.16H59.96ZM63.768 24.772H68.304C68.5 24.772 68.7146 24.7627 68.948 24.744C69.1813 24.7253 69.396 24.688 69.592 24.632C70.1053 24.492 70.502 24.2587 70.782 23.932C71.062 23.596 71.2533 23.2273 71.356 22.826C71.468 22.4153 71.524 22.028 71.524 21.664C71.524 21.3 71.468 20.9173 71.356 20.516C71.2533 20.1053 71.062 19.7367 70.782 19.41C70.502 19.074 70.1053 18.836 69.592 18.696C69.396 18.64 69.1813 18.6027 68.948 18.584C68.7146 18.5653 68.5 18.556 68.304 18.556H63.768V24.772Z" fill="#0F0E0E"/>
<path d="M82.0701 35.58C80.9875 35.58 80.0681 35.3747 79.3121 34.964C78.5655 34.544 77.9961 33.9887 77.6041 33.298C77.2215 32.598 77.0301 31.828 77.0301 30.988C77.0301 30.288 77.1374 29.6487 77.3521 29.07C77.5668 28.4913 77.9121 27.9827 78.3881 27.544C78.8735 27.096 79.5221 26.7227 80.3341 26.424C80.8941 26.2187 81.5615 26.0367 82.3361 25.878C83.1108 25.7193 83.9881 25.57 84.9681 25.43C85.9481 25.2807 87.0261 25.1173 88.2021 24.94L86.8301 25.696C86.8301 24.8 86.6155 24.142 86.1861 23.722C85.7568 23.302 85.0381 23.092 84.0301 23.092C83.4701 23.092 82.8868 23.2273 82.2801 23.498C81.6735 23.7687 81.2488 24.2493 81.0061 24.94L77.5621 23.848C77.9448 22.5973 78.6635 21.58 79.7181 20.796C80.7728 20.012 82.2101 19.62 84.0301 19.62C85.3648 19.62 86.5501 19.8253 87.5861 20.236C88.6221 20.6467 89.4061 21.356 89.9381 22.364C90.2368 22.924 90.4141 23.484 90.4701 24.044C90.5261 24.604 90.5541 25.2293 90.5541 25.92V35.16H87.2221V32.052L87.6981 32.696C86.9608 33.7133 86.1628 34.4507 85.3041 34.908C84.4548 35.356 83.3768 35.58 82.0701 35.58ZM82.8821 32.584C83.5821 32.584 84.1701 32.4627 84.6461 32.22C85.1315 31.968 85.5141 31.6833 85.7941 31.366C86.0835 31.0487 86.2795 30.7827 86.3821 30.568C86.5781 30.1573 86.6901 29.6813 86.7181 29.14C86.7554 28.5893 86.7741 28.132 86.7741 27.768L87.8941 28.048C86.7648 28.2347 85.8501 28.3933 85.1501 28.524C84.4501 28.6453 83.8855 28.7573 83.4561 28.86C83.0268 28.9627 82.6488 29.0747 82.3221 29.196C81.9488 29.3453 81.6455 29.5087 81.4121 29.686C81.1881 29.854 81.0201 30.0407 80.9081 30.246C80.8055 30.4513 80.7541 30.68 80.7541 30.932C80.7541 31.2773 80.8381 31.576 81.0061 31.828C81.1835 32.0707 81.4308 32.2573 81.7481 32.388C82.0655 32.5187 82.4435 32.584 82.8821 32.584Z" fill="#0F0E0E"/>
<path d="M94.1943 35.16V20.04H97.5543V23.736L97.1903 23.26C97.3863 22.7373 97.6477 22.2613 97.9743 21.832C98.301 21.4027 98.7023 21.048 99.1783 20.768C99.5423 20.544 99.939 20.3713 100.368 20.25C100.798 20.1193 101.241 20.04 101.698 20.012C102.156 19.9747 102.613 19.984 103.07 20.04V23.596C102.65 23.4653 102.16 23.4233 101.6 23.47C101.05 23.5073 100.55 23.6333 100.102 23.848C99.6543 24.0533 99.2763 24.3287 98.9683 24.674C98.6603 25.01 98.427 25.4113 98.2683 25.878C98.1097 26.3353 98.0303 26.8533 98.0303 27.432V35.16H94.1943Z" fill="#0F0E0E"/>
<path d="M109.633 35.58C108.55 35.58 107.631 35.3747 106.875 34.964C106.128 34.544 105.559 33.9887 105.167 33.298C104.784 32.598 104.593 31.828 104.593 30.988C104.593 30.288 104.7 29.6487 104.915 29.07C105.129 28.4913 105.475 27.9827 105.951 27.544C106.436 27.096 107.085 26.7227 107.897 26.424C108.457 26.2187 109.124 26.0367 109.899 25.878C110.673 25.7193 111.551 25.57 112.531 25.43C113.511 25.2807 114.589 25.1173 115.765 24.94L114.393 25.696C114.393 24.8 114.178 24.142 113.749 23.722C113.319 23.302 112.601 23.092 111.593 23.092C111.033 23.092 110.449 23.2273 109.843 23.498C109.236 23.7687 108.811 24.2493 108.569 24.94L105.125 23.848C105.507 22.5973 106.226 21.58 107.281 20.796C108.335 20.012 109.773 19.62 111.593 19.62C112.927 19.62 114.113 19.8253 115.149 20.236C116.185 20.6467 116.969 21.356 117.501 22.364C117.799 22.924 117.977 23.484 118.033 24.044C118.089 24.604 118.117 25.2293 118.117 25.92V35.16H114.785V32.052L115.261 32.696C114.523 33.7133 113.725 34.4507 112.867 34.908C112.017 35.356 110.939 35.58 109.633 35.58ZM110.445 32.584C111.145 32.584 111.733 32.4627 112.209 32.22C112.694 31.968 113.077 31.6833 113.357 31.366C113.646 31.0487 113.842 30.7827 113.945 30.568C114.141 30.1573 114.253 29.6813 114.281 29.14C114.318 28.5893 114.337 28.132 114.337 27.768L115.457 28.048C114.327 28.2347 113.413 28.3933 112.713 28.524C112.013 28.6453 111.448 28.7573 111.019 28.86C110.589 28.9627 110.211 29.0747 109.885 29.196C109.511 29.3453 109.208 29.5087 108.975 29.686C108.751 29.854 108.583 30.0407 108.471 30.246C108.368 30.4513 108.317 30.68 108.317 30.932C108.317 31.2773 108.401 31.576 108.569 31.828C108.746 32.0707 108.993 32.2573 109.311 32.388C109.628 32.5187 110.006 32.584 110.445 32.584Z" fill="#0F0E0E"/>
<path d="M127.889 35.58C126.498 35.58 125.28 35.23 124.235 34.53C123.19 33.83 122.373 32.878 121.785 31.674C121.206 30.47 120.917 29.112 120.917 27.6C120.917 26.06 121.211 24.6927 121.799 23.498C122.396 22.294 123.232 21.3467 124.305 20.656C125.378 19.9653 126.638 19.62 128.085 19.62C129.522 19.62 130.731 19.97 131.711 20.67C132.691 21.37 133.433 22.322 133.937 23.526C134.441 24.73 134.693 26.088 134.693 27.6C134.693 29.112 134.436 30.47 133.923 31.674C133.419 32.878 132.663 33.83 131.655 34.53C130.647 35.23 129.392 35.58 127.889 35.58ZM128.505 32.192C129.354 32.192 130.031 32.0007 130.535 31.618C131.048 31.2353 131.417 30.6987 131.641 30.008C131.865 29.3173 131.977 28.5147 131.977 27.6C131.977 26.6853 131.865 25.8827 131.641 25.192C131.417 24.5013 131.058 23.9647 130.563 23.582C130.077 23.1993 129.438 23.008 128.645 23.008C127.796 23.008 127.096 23.218 126.545 23.638C126.004 24.0487 125.602 24.604 125.341 25.304C125.08 25.9947 124.949 26.76 124.949 27.6C124.949 28.4493 125.075 29.224 125.327 29.924C125.579 30.6147 125.966 31.1653 126.489 31.576C127.012 31.9867 127.684 32.192 128.505 32.192ZM131.977 35.16V24.8H131.501V15H135.337V35.16H131.977Z" fill="#0F0E0E"/>
<path d="M146.061 35.58C144.54 35.58 143.205 35.2393 142.057 34.558C140.909 33.8767 140.013 32.9387 139.369 31.744C138.734 30.54 138.417 29.1587 138.417 27.6C138.417 26.0227 138.743 24.6367 139.397 23.442C140.05 22.238 140.951 21.3 142.099 20.628C143.247 19.956 144.568 19.62 146.061 19.62C147.582 19.62 148.917 19.9607 150.065 20.642C151.222 21.3233 152.123 22.266 152.767 23.47C153.411 24.6647 153.733 26.0413 153.733 27.6C153.733 29.168 153.406 30.554 152.753 31.758C152.109 32.9527 151.208 33.8907 150.051 34.572C148.903 35.244 147.573 35.58 146.061 35.58ZM146.061 32.024C147.284 32.024 148.194 31.6133 148.791 30.792C149.398 29.9613 149.701 28.8973 149.701 27.6C149.701 26.256 149.393 25.1827 148.777 24.38C148.17 23.5773 147.265 23.176 146.061 23.176C145.23 23.176 144.549 23.3627 144.017 23.736C143.485 24.1093 143.088 24.6273 142.827 25.29C142.575 25.9527 142.449 26.7227 142.449 27.6C142.449 28.9533 142.752 30.0313 143.359 30.834C143.975 31.6273 144.876 32.024 146.061 32.024Z" fill="#0F0E0E"/>
<path d="M154.585 35.16L159.989 27.516L154.697 20.04H159.177L162.201 24.52L165.169 20.04H169.649L164.357 27.516L169.789 35.16H165.309L162.201 30.512L159.065 35.16H154.585Z" fill="#0F0E0E"/>
<circle cx="25" cy="25" r="25" fill="#5355DF"/>
<g clip-path="url(#clip0_642_2077)">
<path d="M27.7028 12C27.6512 12 17.4589 12 17.4073 12C14.9711 12.0852 12.9998 14.1127 12.9998 16.5406V16.5491C12.9998 33.3742 12.9826 33.519 13.0343 33.6468C13.1289 36.0491 15.1261 38 17.5881 38C20.1017 38 22.1419 35.964 22.1419 33.4594V32.2582V30.5203H27.6942C32.8248 30.5203 36.9912 26.363 36.9912 21.2602C36.9998 16.1573 32.8248 12 27.7028 12ZM27.6684 20.5701C28.073 20.5701 28.4001 20.8938 28.4001 21.2942C28.4001 21.6265 28.1591 22.0183 27.5823 22.0183C27.5823 22.0183 22.7014 22.0183 22.6928 22.0183V20.5616H27.6684V20.5701ZM27.7028 29.4469C25.0343 29.4469 19.5508 29.4043 17.6397 29.5662C16.1677 29.6855 14.7817 30.2307 14.0845 31.3126V25.5367C14.3858 23.2366 16.7358 23.1003 18.3456 23.1003L27.5307 23.0917C29.2007 22.981 30.3972 22.1206 31.0773 20.8853C32.446 18.3978 31.7229 14.9902 29.0027 13.1841C32.9195 13.806 35.9324 17.1966 35.9324 21.2687C35.9152 25.7752 32.2308 29.4469 27.7028 29.4469Z" fill="white"/>
</g>
<defs>
<clipPath id="clip0_642_2077">
<rect width="24" height="26" fill="white" transform="translate(13 12)"/>
</clipPath>
</defs>
</svg>
