<svg width="33" height="31" viewBox="0 0 33 31" fill="none" xmlns="http://www.w3.org/2000/svg">
<path d="M15.3091 12.5986L11.0411 20.1696C11.915 21.1576 12.4455 22.4565 12.4455 23.8793C12.4455 26.973 9.93758 29.481 6.84385 29.481C3.75011 29.481 1.24219 26.973 1.24219 23.8793C1.24219 20.7856 3.75011 18.2776 6.84385 18.2776C7.16177 18.2776 7.47347 18.3041 7.7769 18.355L12.0451 10.7843M12.1268 22.0121H20.3576C21.1266 19.8364 23.2015 18.2776 25.6405 18.2776C28.7343 18.2776 31.2422 20.7856 31.2422 23.8793C31.2422 26.973 28.7343 29.481 25.6405 29.481C23.2015 29.481 21.1266 27.9222 20.3576 25.7465H12.1268M21.4433 20.1696L17.1752 12.5986C16.8718 12.6495 16.5601 12.676 16.2422 12.676C13.1485 12.676 10.6405 10.1681 10.6405 7.07432C10.6405 3.98058 13.1485 1.47266 16.2422 1.47266C19.3359 1.47266 21.8438 3.98058 21.8438 7.07432C21.8438 8.4972 21.3133 9.79622 20.4393 10.7843L24.7075 18.355" stroke="#5355DF" stroke-width="2" stroke-miterlimit="10" stroke-linecap="round" stroke-linejoin="round"/>
<path d="M16.2422 8.94147C17.2735 8.94147 18.1094 8.10549 18.1094 7.07425C18.1094 6.04301 17.2735 5.20703 16.2422 5.20703C15.211 5.20703 14.375 6.04301 14.375 7.07425C14.375 8.10549 15.211 8.94147 16.2422 8.94147Z" stroke="#5355DF" stroke-width="2" stroke-miterlimit="10" stroke-linecap="round" stroke-linejoin="round"/>
<path d="M25.6407 25.7462C26.6719 25.7462 27.5079 24.9102 27.5079 23.8789C27.5079 22.8477 26.6719 22.0117 25.6407 22.0117C24.6094 22.0117 23.7734 22.8477 23.7734 23.8789C23.7734 24.9102 24.6094 25.7462 25.6407 25.7462Z" stroke="#5355DF" stroke-width="2" stroke-miterlimit="10" stroke-linecap="round" stroke-linejoin="round"/>
<path d="M6.84378 25.7462C7.87502 25.7462 8.711 24.9102 8.711 23.8789C8.711 22.8477 7.87502 22.0117 6.84378 22.0117C5.81255 22.0117 4.97656 22.8477 4.97656 23.8789C4.97656 24.9102 5.81255 25.7462 6.84378 25.7462Z" stroke="#5355DF" stroke-width="2" stroke-miterlimit="10" stroke-linecap="round" stroke-linejoin="round"/>
</svg>
