<svg width="31" height="31" viewBox="0 0 31 31" fill="none" xmlns="http://www.w3.org/2000/svg">
<g clip-path="url(#clip0_739_1440)">
<path d="M15.601 10.7033C16.0139 10.7033 16.3483 10.3687 16.3483 9.95604C16.3483 9.54337 16.0139 9.20874 15.601 9.20874C12.2993 9.20874 9.6228 11.8853 9.6228 15.1871C9.6228 18.4887 12.2993 21.1653 15.601 21.1653C18.9028 21.1653 21.5793 18.4887 21.5793 15.1871C21.5793 14.7742 21.2447 14.4398 20.832 14.4398C20.4194 14.4398 20.0847 14.7742 20.0847 15.1871C20.0847 17.6634 18.0775 19.6709 15.601 19.6709C13.1247 19.6709 11.1172 17.6634 11.1172 15.1871C11.1172 12.7106 13.1247 10.7033 15.601 10.7033Z" fill="white"/>
<path d="M29.8595 10.7485C29.7298 10.3564 29.3068 10.1438 28.9145 10.2735C28.5313 10.4003 28.318 10.8082 28.4322 11.1952C30.667 18.3118 26.7097 25.8926 19.593 28.1274C12.4767 30.3622 4.89588 26.4049 2.66108 19.2883C0.426048 12.1716 4.38364 4.59086 11.5 2.35606C14.1344 1.52888 16.9588 1.52888 19.593 2.35606C19.9886 2.47531 20.4058 2.25146 20.5251 1.85595C20.6425 1.4664 20.4271 1.05464 20.0401 0.928753C12.1379 -1.55049 3.72194 2.84564 1.2427 10.748C-1.23655 18.6501 3.15981 27.0661 11.0619 29.5454C18.9643 32.0246 27.3801 27.6285 29.8593 19.7261C30.7762 16.8037 30.7762 13.6708 29.8595 10.7485Z" fill="white"/>
<path d="M17.024 5.57596C17.0279 5.15047 16.7011 4.79478 16.2767 4.76297C16.0536 4.74397 15.8302 4.72498 15.6011 4.72498C9.82298 4.72498 5.13892 9.40904 5.13892 15.1872C5.13892 20.965 9.82298 25.6491 15.6011 25.6491C21.379 25.6491 26.063 20.965 26.063 15.1872C26.063 14.9168 26.0466 14.6468 26.0134 14.3785C25.9536 13.9684 25.5728 13.6843 25.1626 13.7441C24.7525 13.8036 24.4684 14.1846 24.5279 14.5948C24.5302 14.6104 24.533 14.6257 24.5362 14.6413C24.5524 14.8223 24.5684 15.0018 24.5684 15.1867C24.5687 20.1395 20.5539 24.1543 15.6013 24.1547C10.6486 24.155 6.63374 20.1399 6.63351 15.1874C6.63328 10.2348 10.6479 6.2198 15.6006 6.21957H15.6009C15.7863 6.21957 15.9659 6.23559 16.1465 6.25162L16.2866 6.26329C16.6771 6.28 17.0071 5.97696 17.0236 5.58649C17.0238 5.58282 17.0238 5.57939 17.024 5.57596Z" fill="white"/>
<path d="M20.0847 6.96682V9.64656L15.0726 14.6586C14.7758 14.9454 14.7675 15.4185 15.0543 15.7154C15.3411 16.0122 15.8142 16.0205 16.1111 15.7337C16.1172 15.7277 16.1234 15.7215 16.1294 15.7154L21.1414 10.7033H23.8212C24.0194 10.7033 24.2093 10.6246 24.3496 10.4843L28.8332 6.00048C29.125 5.70866 29.125 5.23556 28.8332 4.94374C28.6931 4.80366 28.5032 4.72493 28.3049 4.72493H26.0631V2.48303C26.0631 2.07036 25.7284 1.73573 25.3155 1.73596C25.1175 1.73596 24.9276 1.8147 24.7875 1.95477L20.3037 6.43856C20.1634 6.57864 20.0847 6.76861 20.0847 6.96682ZM21.5793 7.27627L24.5685 4.28708V5.47222C24.5685 5.8849 24.9031 6.21952 25.3158 6.21952H26.5009L23.5117 9.20871H21.5793V7.27627Z" fill="white"/>
</g>
<defs>
<clipPath id="clip0_739_1440">
<rect width="30" height="30" fill="white" transform="translate(0.550781 0.237061)"/>
</clipPath>
</defs>
</svg>
