<svg width="33" height="33" viewBox="0 0 33 33" fill="none" xmlns="http://www.w3.org/2000/svg">
<g clip-path="url(#clip0_811_1999)">
<path opacity="0.1" d="M27.6519 26.0831C27.5847 26.0788 26.9883 26.0485 26.9211 26.0442C26.8538 26.0399 26.7843 26.0377 26.7171 26.0334C26.7171 26.0334 26.7171 26.0334 26.7148 26.0334C26.6722 26.0312 26.6274 26.0291 26.5826 26.0291C26.5758 26.0291 26.5691 26.0291 26.5624 26.0291C26.5243 26.0269 26.4862 26.0269 26.4458 26.0247C26.4413 26.0247 26.4391 26.0247 26.4346 26.0247C26.392 26.0226 26.3494 26.0226 26.3068 26.0204C26.262 26.0183 26.2172 26.0183 26.1701 26.0183C20.9062 25.9102 13.5261 27.3924 11.9209 28.9501L10.9883 32.5151C10.9771 32.6447 12.4298 32.7225 13.2033 32.6447C13.2055 32.6447 13.2078 32.6447 13.21 32.6447C13.2593 32.6404 13.3064 32.6339 13.349 32.6274L29.2593 29.81C29.2593 29.81 29.2593 29.81 29.2616 29.81C34.1869 28.3819 32.8575 26.4028 27.6519 26.0831ZM24.8519 27.172C26.5153 27.3708 27.0803 27.9282 26.0131 28.5072C24.8698 29.0927 22.2155 29.4946 19.8189 29.4795C19.8571 29.4795 19.8952 29.4795 19.9355 29.4795C18.0501 29.2721 17.6354 28.7233 19.0119 28.1551C20.3301 27.5847 22.7894 27.1806 24.8519 27.172ZM24.2399 27.118C24.2555 27.118 24.269 27.1201 24.2824 27.1201C24.269 27.1201 24.2533 27.118 24.2399 27.118ZM24.334 27.1245C24.3542 27.1266 24.3721 27.1266 24.3923 27.1288C24.3721 27.1266 24.3542 27.1245 24.334 27.1245ZM24.4259 27.1309C24.4483 27.1331 24.4708 27.1353 24.4932 27.1353C24.4708 27.1331 24.4483 27.1331 24.4259 27.1309ZM24.6882 27.1547C24.7151 27.1569 24.742 27.1612 24.7667 27.1634C24.742 27.159 24.7151 27.1569 24.6882 27.1547ZM24.7712 27.1634C24.7981 27.1655 24.825 27.1698 24.8519 27.172C24.825 27.1677 24.7981 27.1655 24.7712 27.1634ZM19.3168 29.4687C19.2921 29.4687 19.2697 29.4665 19.245 29.4665C19.2697 29.4665 19.2944 29.4687 19.3168 29.4687ZM19.1823 29.4643C19.1643 29.4643 19.1464 29.4622 19.1285 29.4622C19.1486 29.4622 19.1643 29.4643 19.1823 29.4643ZM19.8145 29.4795C19.7786 29.4795 19.7405 29.4795 19.7046 29.4795C19.7405 29.4773 19.7786 29.4795 19.8145 29.4795ZM19.5701 29.4752C19.5387 29.4752 19.5073 29.473 19.4737 29.473C19.5073 29.4752 19.5387 29.4752 19.5701 29.4752ZM19.4446 29.473C19.4154 29.473 19.3885 29.4708 19.3594 29.4708C19.3885 29.4708 19.4177 29.473 19.4446 29.473Z" fill="url(#paint0_linear_811_1999)"/>
<path d="M11.6554 0.679126C11.5545 0.676965 11.4536 0.674805 11.3527 0.674805C11.2519 0.674805 11.151 0.676965 11.0501 0.679126C3.19917 0.882218 -1.89204 9.2198 1.30482 16.5376L10.5591 32.2168C10.9178 32.826 12.5745 32.826 12.9355 32.2168L22.1898 16.5376C25.3844 9.2198 19.5041 0.882218 11.6554 0.679126ZM10.261 17.216C7.20534 17.216 4.7281 14.6882 4.7281 11.5705C4.7281 8.45281 7.20534 5.92496 10.261 5.92496C13.3166 5.92496 15.7938 8.45281 15.7938 11.5705C15.7938 14.6882 13.3166 17.216 10.261 17.216Z" fill="#FFC961"/>
<path d="M12.4453 0.679126C12.3444 0.676965 11.4544 0.674805 11.3513 0.674805C11.2504 0.674805 11.1495 0.676965 11.0486 0.679126C10.7818 0.685607 10.5195 0.702892 10.2617 0.726658C17.6575 1.44612 22.3049 9.46827 19.2179 16.5376L10.5487 31.2251C10.3716 31.5254 10.3716 31.8992 10.5487 32.1995L10.5599 32.2189C10.9186 32.8282 12.5753 32.8282 12.9362 32.2189L22.1905 16.5398C25.3852 9.2198 20.2939 0.882218 12.4453 0.679126Z" fill="url(#paint1_linear_811_1999)"/>
<path d="M10.2594 17.2159C10.6159 17.2159 10.9634 17.1813 11.2996 17.1165C8.7417 16.6196 6.80699 14.325 6.80699 11.5703C6.80699 8.81563 8.7417 6.52112 11.2996 6.02419C10.9634 5.95937 10.6136 5.9248 10.2594 5.9248C7.20379 5.9248 4.72656 8.45266 4.72656 11.5703C4.72656 14.688 7.20379 17.2159 10.2594 17.2159Z" fill="url(#paint2_linear_811_1999)"/>
</g>
<defs>
<linearGradient id="paint0_linear_811_1999" x1="21.5115" y1="33.1189" x2="21.8594" y2="25.804" gradientUnits="userSpaceOnUse">
<stop stop-color="#F3F3F3"/>
<stop offset="1" stop-color="#FCFCFC"/>
</linearGradient>
<linearGradient id="paint1_linear_811_1999" x1="16.71" y1="32.6746" x2="16.71" y2="0.674805" gradientUnits="userSpaceOnUse">
<stop stop-color="#F9B251"/>
<stop offset="0.2287" stop-color="#F5AA49"/>
<stop offset="0.5835" stop-color="#EA9333"/>
<stop offset="1" stop-color="#D97114"/>
</linearGradient>
<linearGradient id="paint2_linear_811_1999" x1="8.01321" y1="17.2157" x2="8.01321" y2="5.92342" gradientUnits="userSpaceOnUse">
<stop stop-color="#F9B251"/>
<stop offset="0.2308" stop-color="#F6AD4C"/>
<stop offset="0.5048" stop-color="#EF9E3D"/>
<stop offset="0.7996" stop-color="#E38527"/>
<stop offset="1" stop-color="#D97114"/>
</linearGradient>
<clipPath id="clip0_811_1999">
<rect width="32" height="32" fill="white" transform="translate(0.335938 0.674805)"/>
</clipPath>
</defs>
</svg>
