<svg width="33" height="33" viewBox="0 0 33 33" fill="none" xmlns="http://www.w3.org/2000/svg">
<path d="M18.26 18.6226C17.3143 22.2283 14.04 24.8791 10.1327 24.8791C5.48332 24.8791 1.66797 21.1259 1.66797 16.4766H5.40241C5.40241 19.0533 7.55594 21.1446 10.1327 21.1446C12.1505 21.1446 13.8706 19.8623 14.5219 18.0686C10.9162 17.1229 8.26548 13.8486 8.26548 9.94129C8.26548 5.29192 12.0186 1.47656 16.668 1.47656V5.211C14.0912 5.211 11.9999 7.36453 11.9999 9.94129C11.9999 11.9591 13.2823 13.6792 15.076 14.3305C16.0216 10.7248 19.296 8.07407 23.2032 8.07407C27.8526 8.07407 31.668 11.8272 31.668 16.4766H27.9335C27.9335 13.8998 25.78 11.8085 23.2032 11.8085C21.1855 11.8085 19.4654 13.0909 18.814 14.8846C22.4198 15.8302 25.0705 19.1046 25.0705 23.0118C25.0705 27.6612 21.3173 31.4766 16.668 31.4766V27.7421C19.2447 27.7421 21.336 25.5886 21.336 23.0118C21.336 20.9941 20.0537 19.274 18.26 18.6226Z" stroke="#5355DF" stroke-width="2" stroke-miterlimit="10" stroke-linecap="round" stroke-linejoin="round"/>
<path d="M29.8008 23.9454C30.8321 23.9454 31.668 23.1094 31.668 22.0782C31.668 21.0469 30.8321 20.2109 29.8008 20.2109C28.7696 20.2109 27.9336 21.0469 27.9336 22.0782C27.9336 23.1094 28.7696 23.9454 29.8008 23.9454Z" stroke="#5355DF" stroke-width="2" stroke-miterlimit="10" stroke-linecap="round" stroke-linejoin="round"/>
<path d="M11.0664 31.4766C12.0977 31.4766 12.9337 30.6406 12.9337 29.6094C12.9337 28.5782 12.0977 27.7422 11.0664 27.7422C10.0352 27.7422 9.19922 28.5782 9.19922 29.6094C9.19922 30.6406 10.0352 31.4766 11.0664 31.4766Z" stroke="#5355DF" stroke-width="2" stroke-miterlimit="10" stroke-linecap="round" stroke-linejoin="round"/>
<path d="M3.53519 12.7423C4.56643 12.7423 5.40241 11.9063 5.40241 10.875C5.40241 9.8438 4.56643 9.00781 3.53519 9.00781C2.50395 9.00781 1.66797 9.8438 1.66797 10.875C1.66797 11.9063 2.50395 12.7423 3.53519 12.7423Z" stroke="#5355DF" stroke-width="2" stroke-miterlimit="10" stroke-linecap="round" stroke-linejoin="round"/>
<path d="M22.2696 5.211C23.3008 5.211 24.1368 4.37502 24.1368 3.34378C24.1368 2.31255 23.3008 1.47656 22.2696 1.47656C21.2383 1.47656 20.4023 2.31255 20.4023 3.34378C20.4023 4.37502 21.2383 5.211 22.2696 5.211Z" stroke="#5355DF" stroke-width="2" stroke-miterlimit="10" stroke-linecap="round" stroke-linejoin="round"/>
</svg>
