<svg width="31" height="31" viewBox="0 0 31 31" fill="none" xmlns="http://www.w3.org/2000/svg">
<g clip-path="url(#clip0_739_1420)">
<path d="M30.3899 14.8105C28.925 12.1592 26.8024 9.92951 24.2264 8.33592C21.6031 6.71855 18.5819 5.86206 15.5001 5.86206C12.4182 5.86206 9.39701 6.71855 6.77368 8.33592C4.19767 9.92951 2.0751 12.1592 0.610209 14.8105C0.537768 14.941 0.499756 15.0878 0.499756 15.2371C0.499756 15.3864 0.537768 15.5332 0.610209 15.6637C2.0751 18.315 4.19767 20.5447 6.77368 22.1383C9.39701 23.7556 12.4182 24.6121 15.5001 24.6121C18.5819 24.6121 21.6031 23.7556 24.2264 22.1383C26.8024 20.5447 28.925 18.315 30.3899 15.6637C30.4623 15.5332 30.5003 15.3864 30.5003 15.2371C30.5003 15.0878 30.4623 14.941 30.3899 14.8105ZM15.5001 22.8543C10.1768 22.8543 5.1981 19.948 2.39263 15.2371C5.1981 10.5262 10.1768 7.61991 15.5001 7.61991C20.8233 7.61991 25.802 10.5262 28.6075 15.2371C25.802 19.948 20.8233 22.8543 15.5001 22.8543Z" fill="#5355DF"/>
<path d="M15.5 10.2566C14.515 10.2566 13.552 10.5487 12.733 11.096C11.914 11.6432 11.2756 12.4211 10.8986 13.3311C10.5217 14.2412 10.4231 15.2426 10.6152 16.2087C10.8074 17.1748 11.2817 18.0623 11.9783 18.7588C12.6748 19.4553 13.5622 19.9297 14.5284 20.1218C15.4945 20.314 16.4959 20.2154 17.4059 19.8384C18.316 19.4615 19.0939 18.8231 19.6411 18.0041C20.1884 17.185 20.4805 16.2221 20.4805 15.2371C20.4789 13.9166 19.9537 12.6507 19.02 11.7171C18.0863 10.7834 16.8204 10.2581 15.5 10.2566ZM15.5 18.4597C14.8626 18.4597 14.2396 18.2707 13.7096 17.9166C13.1796 17.5625 12.7666 17.0592 12.5227 16.4703C12.2787 15.8815 12.2149 15.2335 12.3393 14.6084C12.4636 13.9832 12.7705 13.409 13.2212 12.9583C13.6719 12.5076 14.2462 12.2007 14.8713 12.0763C15.4964 11.952 16.1444 12.0158 16.7333 12.2597C17.3221 12.5036 17.8254 12.9167 18.1795 13.4466C18.5337 13.9766 18.7227 14.5997 18.7227 15.2371C18.7217 16.0915 18.3819 16.9106 17.7777 17.5148C17.1736 18.119 16.3544 18.4588 15.5 18.4597Z" fill="#5355DF"/>
<path d="M15.5 4.33862C15.6154 4.33862 15.7297 4.31589 15.8363 4.27172C15.943 4.22755 16.0399 4.16281 16.1215 4.0812C16.2031 3.99958 16.2678 3.90269 16.312 3.79606C16.3562 3.68943 16.3789 3.57514 16.3789 3.45972V1.11597C16.3789 0.882866 16.2863 0.659313 16.1215 0.494486C15.9567 0.329659 15.7331 0.237061 15.5 0.237061C15.2669 0.237061 15.0433 0.329659 14.8785 0.494486C14.7137 0.659313 14.6211 0.882866 14.6211 1.11597V3.45972C14.6211 3.57514 14.6438 3.68943 14.688 3.79606C14.7322 3.90269 14.7969 3.99958 14.8785 4.0812C15.0433 4.24602 15.2669 4.33862 15.5 4.33862Z" fill="#5355DF"/>
<path d="M8.85429 5.02475C8.95856 5.23329 9.14141 5.39188 9.36261 5.46561C9.5838 5.53934 9.82523 5.52218 10.0338 5.41791C10.2423 5.31364 10.4009 5.13079 10.4746 4.90959C10.5484 4.68839 10.5312 4.44697 10.4269 4.23842L9.25507 1.89467C9.20344 1.79141 9.13197 1.69933 9.04476 1.62368C8.95754 1.54804 8.85628 1.49031 8.74675 1.45381C8.63722 1.4173 8.52158 1.40272 8.40642 1.4109C8.29126 1.41909 8.17884 1.44987 8.07558 1.5015C7.97231 1.55314 7.88023 1.6246 7.80459 1.71182C7.72895 1.79904 7.67122 1.9003 7.63471 2.00982C7.59821 2.11935 7.58363 2.23499 7.59181 2.35015C7.6 2.46531 7.63078 2.57773 7.68241 2.681L8.85429 5.02475Z" fill="#5355DF"/>
<path d="M20.9663 5.41791C21.0695 5.46957 21.182 5.50039 21.2971 5.50859C21.4123 5.51679 21.528 5.50221 21.6375 5.4657C21.747 5.42919 21.8483 5.37146 21.9355 5.2958C22.0227 5.22013 22.0942 5.12803 22.1458 5.02475L23.3176 2.681C23.3693 2.57774 23.4001 2.46531 23.4083 2.35015C23.4164 2.23499 23.4019 2.11935 23.3653 2.00982C23.3288 1.9003 23.2711 1.79904 23.1955 1.71182C23.1198 1.6246 23.0277 1.55314 22.9245 1.5015C22.8212 1.44987 22.7088 1.41909 22.5936 1.4109C22.4785 1.40272 22.3628 1.4173 22.2533 1.45381C22.1438 1.49031 22.0425 1.54804 21.9553 1.62368C21.8681 1.69933 21.7966 1.79141 21.745 1.89467L20.5731 4.23842C20.5215 4.34168 20.4906 4.4541 20.4824 4.56927C20.4742 4.68443 20.4888 4.80009 20.5253 4.90962C20.5618 5.01916 20.6196 5.12042 20.6952 5.20764C20.7709 5.29485 20.863 5.3663 20.9663 5.41791Z" fill="#5355DF"/>
<path d="M15.5 26.1355C15.2669 26.1355 15.0433 26.2281 14.8785 26.3929C14.7137 26.5578 14.6211 26.7813 14.6211 27.0144V29.3582C14.6211 29.5913 14.7137 29.8148 14.8785 29.9796C15.0433 30.1445 15.2669 30.2371 15.5 30.2371C15.7331 30.2371 15.9567 30.1445 16.1215 29.9796C16.2863 29.8148 16.3789 29.5913 16.3789 29.3582V27.0144C16.3789 26.7813 16.2863 26.5578 16.1215 26.3929C15.9567 26.2281 15.7331 26.1355 15.5 26.1355Z" fill="#5355DF"/>
<path d="M10.0338 25.0561C9.93053 25.0045 9.8181 24.9737 9.70293 24.9655C9.58777 24.9573 9.47211 24.9718 9.36258 25.0084C9.25304 25.0449 9.15178 25.1026 9.06456 25.1783C8.97735 25.2539 8.9059 25.346 8.85429 25.4493L7.68241 27.7931C7.57814 28.0016 7.56098 28.243 7.63471 28.4642C7.70845 28.6854 7.86703 28.8683 8.07558 28.9726C8.28412 29.0768 8.52555 29.094 8.74675 29.0203C8.96795 28.9465 9.1508 28.7879 9.25507 28.5794L10.4269 26.2356C10.4786 26.1324 10.5094 26.02 10.5176 25.9048C10.5258 25.7896 10.5112 25.674 10.4747 25.5644C10.4382 25.4549 10.3805 25.3536 10.3048 25.2664C10.2292 25.1792 10.1371 25.1078 10.0338 25.0561Z" fill="#5355DF"/>
<path d="M22.1457 25.4494C22.0941 25.3461 22.0226 25.254 21.9354 25.1784C21.8482 25.1027 21.7469 25.045 21.6374 25.0085C21.5279 24.972 21.4122 24.9574 21.297 24.9656C21.1819 24.9738 21.0695 25.0046 20.9662 25.0562C20.8629 25.1078 20.7709 25.1793 20.6952 25.2665C20.6196 25.3537 20.5618 25.455 20.5253 25.5645C20.4888 25.674 20.4743 25.7897 20.4824 25.9048C20.4906 26.02 20.5214 26.1324 20.573 26.2357L21.7449 28.5794C21.8492 28.788 22.032 28.9466 22.2532 29.0203C22.4744 29.094 22.7159 29.0769 22.9244 28.9726C23.133 28.8683 23.2915 28.6855 23.3653 28.4643C23.439 28.2431 23.4218 28.0017 23.3176 27.7931L22.1457 25.4494Z" fill="#5355DF"/>
</g>
<defs>
<clipPath id="clip0_739_1420">
<rect width="30" height="30" fill="#5355DF" transform="translate(0.5 0.237061)"/>
</clipPath>
</defs>
</svg>
