<svg width="30" height="31" viewBox="0 0 30 31" fill="none" xmlns="http://www.w3.org/2000/svg">
<path d="M28.4375 30.0059H18.875C18.1875 30.0059 17.625 29.4434 17.625 28.7559V22.8184C17.625 21.3184 16.4375 20.1309 14.9375 20.1309C13.4375 20.1309 12.25 21.3184 12.25 22.8184V28.7559C12.25 29.4434 11.6875 30.0059 11 30.0059H1.5625C0.875 30.0059 0.3125 29.4434 0.3125 28.7559V12.7559C0.3125 11.6309 0.875 10.5684 1.75 9.94336L14.3125 0.880859C14.75 0.568359 15.3125 0.568359 15.75 0.880859L28.3125 9.94336C29.1875 10.5684 29.75 11.6309 29.75 12.7559V28.8184C29.6875 29.4434 29.125 30.0059 28.4375 30.0059ZM20.125 27.5684H27.25V12.7559C27.25 12.4434 27.0625 12.1309 26.8125 11.9434L15 3.38086L3.1875 11.8809C2.9375 12.0684 2.75 12.3809 2.75 12.6934V27.5059H9.875V22.8184C9.875 20.0059 12.1875 17.6934 15 17.6934C17.8125 17.6934 20.125 20.0059 20.125 22.8184V27.5684Z" fill="#FFFFFF"/>
</svg>
