<svg width="31" height="30" viewBox="0 0 31 30" fill="none" xmlns="http://www.w3.org/2000/svg">
<path d="M5.28516 28.2617V26.5039C5.28516 20.679 10.0072 15.957 15.832 15.957C21.6569 15.957 26.3789 20.679 26.3789 26.5039V28.2617" stroke="#5355DF" stroke-width="2" stroke-miterlimit="10" stroke-linecap="round" stroke-linejoin="round"/>
<path d="M8.80078 28.2617V26.5039C8.80078 22.6207 11.9488 19.4727 15.832 19.4727C19.7153 19.4727 22.8633 22.6207 22.8633 26.5039V28.2617" stroke="#5355DF" stroke-width="2" stroke-miterlimit="10" stroke-linecap="round" stroke-linejoin="round"/>
<path d="M12.3164 28.2617V26.5039C12.3164 24.5623 13.8904 22.9883 15.832 22.9883C17.7737 22.9883 19.3477 24.5623 19.3477 26.5039V28.2617H29.9531V26.5039C29.9531 18.7374 23.5985 12.4414 15.832 12.4414C8.06555 12.4414 1.71094 18.7374 1.71094 26.5039V28.2617H12.3164Z" stroke="#5355DF" stroke-width="2" stroke-miterlimit="10" stroke-linecap="round" stroke-linejoin="round"/>
<path d="M15.832 8.92578C17.7737 8.92578 19.3477 7.35178 19.3477 5.41016C19.3477 3.46853 17.7737 1.89453 15.832 1.89453C13.8904 1.89453 12.3164 3.46853 12.3164 5.41016C12.3164 7.35178 13.8904 8.92578 15.832 8.92578Z" stroke="#5355DF" stroke-width="2" stroke-miterlimit="10" stroke-linecap="round" stroke-linejoin="round"/>
</svg>
