<svg width="26" height="27" viewBox="0 0 26 27" fill="none" xmlns="http://www.w3.org/2000/svg">
<path d="M4.20179 25.0912C6.3157 25.7923 8.53322 26.1298 10.76 26.0892C15.4068 26.0892 20.8314 24.8319 20.8314 21.2898C20.8288 19.2861 20.2294 17.3287 19.1096 15.6671C17.9898 14.0056 16.4005 12.7153 14.5443 11.9609C15.456 11.1862 16.1081 10.1505 16.4124 8.99344C16.7167 7.83642 16.6586 6.61388 16.246 5.49091C15.8334 4.36795 15.0861 3.39867 14.105 2.71396C13.1239 2.02925 11.9564 1.66211 10.76 1.66211C9.56363 1.66211 8.39607 2.02925 7.415 2.71396C6.43394 3.39867 5.68663 4.36795 5.274 5.49091C4.86136 6.61388 4.80328 7.83642 5.1076 8.99344C5.41192 10.1505 6.06398 11.1862 6.97572 11.9609C5.11937 12.7152 3.52983 14.0054 2.40986 15.667C1.28989 17.3285 0.690273 19.286 0.6875 21.2898C0.6875 22.4335 1.29714 24.0219 4.20179 25.0912Z" fill="white"/>
<path d="M18.2111 7.51548C18.2114 8.91404 17.8164 10.2842 17.0716 11.468C18.4233 12.332 19.5814 13.4666 20.4729 14.8003C21.3645 16.1339 21.9702 17.6378 22.2519 19.2171C24.023 18.601 25.3055 17.5644 25.3055 15.969C25.3031 14.4161 24.8556 12.8964 24.0161 11.59C23.1766 10.2836 21.9802 9.2451 20.5687 8.59762C21.4131 7.76314 21.9185 6.64548 21.9874 5.46031C22.0563 4.27514 21.6838 3.10645 20.9418 2.17975C20.1998 1.25305 19.1408 0.634012 17.9693 0.442093C16.7977 0.250173 15.5966 0.49897 14.5977 1.14048C15.6985 1.8014 16.6097 2.73572 17.2428 3.85274C17.8759 4.96976 18.2095 6.2315 18.2111 7.51548Z" fill="white"/>
</svg>
