<svg width="30" height="31" viewBox="0 0 30 31" fill="none" xmlns="http://www.w3.org/2000/svg">
<path d="M7.36804 15.1768C7.36804 15.1768 5.31105 17.2361 3.37646 19.1707C1.53597 21.0088 1.53597 23.9893 3.37646 25.8273C5.21214 27.6659 8.19644 27.6659 10.0321 25.8273C11.9668 23.8928 14.0285 21.8334 14.0285 21.8334L7.36804 15.1768Z" stroke="#FFFFFF" stroke-width="2" stroke-miterlimit="10" stroke-linecap="round" stroke-linejoin="round"/>
<path d="M16.9842 24.7933L14.0277 21.833L10.7422 25.1185L15.059 29.4391C16.1605 29.4391 17.1536 28.7764 17.5773 27.7592C17.9962 26.7425 17.7655 25.5718 16.9842 24.7933Z" stroke="#FFFFFF" stroke-width="2" stroke-miterlimit="10" stroke-linecap="round" stroke-linejoin="round"/>
<path d="M10.6997 1.19727L7.36719 15.1767L14.0277 21.8333L28.0028 18.505L10.6997 1.19727Z" stroke="#FFFFFF" stroke-width="2" stroke-miterlimit="10" stroke-linecap="round" stroke-linejoin="round"/>
<path d="M22.6791 13.1798C24.5196 11.3417 24.5196 8.36118 22.6791 6.5231C20.8434 4.68501 17.8591 4.68501 16.0234 6.5231L22.6791 13.1798Z" stroke="#FFFFFF" stroke-width="2" stroke-miterlimit="10" stroke-linecap="round" stroke-linejoin="round"/>
</svg>
