<svg width="60" height="52" viewBox="0 0 60 52" fill="none" xmlns="http://www.w3.org/2000/svg">
<path d="M42.9477 2.85981C39.9108 -0.00172788 34.7069 -0.654805 29.9992 4.05289C25.2984 -0.65019 20.0877 -0.00172812 17.0508 2.8575C13.5131 6.1875 13.4508 11.7583 16.8615 15.169L29.9992 28.309L43.1369 15.1713C46.5477 11.7606 46.4854 6.18981 42.9477 2.85981ZM41.5054 13.5375L29.9992 25.046L18.4931 13.5398C15.9961 11.0406 16.0446 6.97673 18.6338 4.53981C19.7369 3.49673 21.2138 2.92443 22.7923 2.92443C26.0969 2.92443 27.5831 4.89981 29.9992 7.31596C32.3508 4.96443 33.8646 2.92443 37.2061 2.92443C38.7846 2.92443 40.2615 3.49673 41.3669 4.5375C43.9492 6.96981 44.0092 11.0337 41.5054 13.5375Z" fill="#5355DF"/>
<path d="M56.056 2.92383C54.0229 2.92383 52.336 4.44691 52.1329 6.46844L50.6722 20.8938C49.9683 21.0438 49.3222 21.3854 48.8214 21.8861L37.1652 32.7369C35.5614 34.1977 34.6314 36.2815 34.6152 38.46V51.3854H48.4614V45.3023C48.4614 44.3631 48.856 43.4492 49.5714 42.7708L58.3291 33.9323C59.4068 32.8431 59.9998 31.4008 59.9998 29.8708V6.86767C59.9998 4.69383 58.2299 2.92383 56.056 2.92383ZM57.6922 29.8708C57.6922 30.7892 57.3368 31.6546 56.6883 32.31L47.9583 41.1208C46.8114 42.2054 46.1537 43.7284 46.1537 45.3023V49.0777H36.9229V38.4738C36.9345 36.9438 37.5875 35.4784 38.7299 34.44L50.4229 23.55C50.7368 23.2361 51.166 23.0815 51.6206 23.1277C51.8722 23.1508 52.2345 23.2408 52.5437 23.55C52.8275 23.8338 52.9845 24.2123 52.9845 24.6115C52.9845 25.0107 52.8252 25.3892 52.5829 25.6338L43.5806 33.7984L45.1314 35.5061L54.1752 27.3023C54.8952 26.5823 55.2922 25.6269 55.2922 24.6092C55.2922 23.5915 54.8975 22.6361 54.1775 21.9184C53.8268 21.5631 53.4183 21.2908 52.9706 21.1038L54.4268 6.70383C54.5122 5.86383 55.2137 5.23152 56.056 5.23152C56.9583 5.23152 57.6922 5.96537 57.6922 6.86767V29.8708Z" fill="#5355DF"/>
<path d="M22.8346 32.7369L11.1785 21.8861C10.6777 21.3854 10.0315 21.0415 9.32769 20.8938L7.86692 6.46844C7.66385 4.44691 5.97692 2.92383 3.94385 2.92383C1.77 2.92383 0 4.69383 0 6.86767V29.8708C0 31.4008 0.593077 32.8431 1.67077 33.93L10.4285 42.7684C11.1438 43.4469 11.5385 44.3631 11.5385 45.3023V51.3854H25.3846V38.46C25.3708 36.2815 24.4385 34.2 22.8346 32.7369ZM23.0769 49.0777H13.8462V45.3023C13.8462 43.7308 13.1885 42.2054 12.0415 41.1208L3.31154 32.31C2.66308 31.6546 2.30769 30.7892 2.30769 29.8708V6.86767C2.30769 5.96537 3.04154 5.23152 3.94385 5.23152C4.78615 5.23152 5.48769 5.86383 5.57308 6.69921L7.02923 21.0992C6.58154 21.2884 6.17308 21.5608 5.82231 21.9138C5.10462 22.6315 4.70769 23.5869 4.70769 24.6046C4.70769 25.6223 5.10462 26.5777 5.82462 27.2977L14.8685 35.5015L16.4192 33.7938L7.41692 25.6292C7.17231 25.3846 7.01538 25.0084 7.01538 24.6069C7.01538 24.2054 7.17231 23.8292 7.45615 23.5454C7.76308 23.2361 8.12769 23.1461 8.37923 23.1231C8.83615 23.0792 9.26308 23.2315 9.57692 23.5454L21.27 34.4354C22.4123 35.4738 23.0654 36.9392 23.0769 38.4692V49.0777Z" fill="#5355DF"/>
</svg>
