<svg width="25" height="26" viewBox="0 0 25 26" fill="none" xmlns="http://www.w3.org/2000/svg">
<g clip-path="url(#clip0_642_2085)">
<path d="M23.2748 19.2185C24.3975 17.2856 24.9891 15.1406 24.9891 12.9945C24.9891 6.11428 19.3739 0.5 12.4945 0.5C5.61428 0.5 0 6.11523 0 12.9945C0 19.8748 5.61523 25.4891 12.4945 25.4891C14.7469 25.4891 16.9783 24.8458 18.9695 23.6256L25 25.4838L23.2748 19.2185ZM18.9695 15.5C17.0662 16.7356 16.9021 19.2185 14.5 19.2185C8.41785 19.2185 22.8796 20.9573 22.8796 14.875C22.8796 8.79285 7.79285 17.5 13.875 17.5C19.9573 17.5 16.125 8.79285 16.125 14.875C16.125 17.1861 18.3984 13.0666 17.2887 14.875H18.7521L18.9695 15.5Z" fill="#5355DF"/>
<path d="M12.559 4.94312C12.5376 4.94236 12.5163 4.94141 12.4947 4.94141C12.4873 4.94141 12.4799 4.94179 12.4724 4.94198C12.457 4.94179 12.4417 4.94141 12.4263 4.94141C7.98576 4.94141 4.37305 8.55392 4.37305 12.9944C4.37305 17.4349 7.98576 21.0476 12.4263 21.0476C12.4417 21.0476 12.457 21.0472 12.4724 21.0471C12.4799 21.0472 12.4873 21.0476 12.4947 21.0476C12.5163 21.0476 12.5376 21.0467 12.559 21.0459C16.9385 20.9748 20.4793 17.3907 20.4793 12.9944C20.4793 8.59837 16.9385 5.01427 12.559 4.94312ZM18.3274 10.0661H15.9224C15.7683 9.13815 15.54 8.28289 15.2453 7.54589C15.1553 7.32082 15.0595 7.10968 14.959 6.91208C16.4242 7.52453 17.6226 8.65158 18.3274 10.0661ZM19.0152 12.9944C19.0152 13.4976 18.9582 13.9876 18.851 14.4587H16.0989C16.136 13.9805 16.1553 13.4909 16.1553 12.9944C16.1553 12.4981 16.136 12.0085 16.0989 11.5303H18.851C18.9582 12.0015 19.0152 12.4915 19.0152 12.9944ZM12.5205 19.5822C12.5069 19.5824 12.4936 19.5826 12.4802 19.5828C12.0469 19.5683 11.5084 18.911 11.1039 17.8994C10.872 17.3197 10.6869 16.6413 10.5529 15.9132H14.4368C14.3027 16.6413 14.1177 17.3197 13.8858 17.8994C13.4845 18.9026 12.9517 19.5572 12.5205 19.5822ZM10.3596 14.4587C10.3196 13.9834 10.2984 13.4936 10.2984 12.9944C10.2984 12.4955 10.3196 12.0057 10.3596 11.5303H14.63C14.6701 12.0057 14.691 12.4955 14.691 12.9944C14.691 13.4936 14.6701 13.9834 14.63 14.4587H10.3596ZM5.83732 12.9944C5.83732 12.4915 5.89416 11.9915 6.00154 11.5206H8.89098C8.85379 11.9988 8.83434 12.4981 8.83434 12.9944C8.83434 13.4909 8.85379 13.9805 8.89098 14.4587H6.00154C5.89416 13.9876 5.83732 13.4976 5.83732 12.9944ZM12.4802 6.40625C12.4936 6.40644 12.5069 6.40663 12.5205 6.40682C12.9517 6.43181 13.4845 7.08641 13.8858 8.08968C14.1177 8.66932 14.3027 9.33804 14.4368 10.0661H10.5529C10.6869 9.33804 10.872 8.66932 11.1039 8.08968C11.5084 7.07802 12.0469 6.42075 12.4802 6.40625ZM10.0663 6.84284C9.95261 7.06009 9.84504 7.29431 9.74433 7.54589C9.44965 8.28289 9.22153 9.13815 9.06722 10.0661H6.52511C7.25734 8.59646 8.52248 7.43717 10.0663 6.84284ZM6.52492 15.923H9.06722C9.22134 16.8509 9.44965 17.7061 9.74433 18.4431C9.84504 18.6947 9.95261 18.9289 10.0663 19.1462C8.52248 18.5519 7.25734 17.3928 6.52492 15.923ZM14.959 19.077C15.0595 18.8794 15.1553 18.6682 15.2453 18.4431C15.54 17.7061 15.7681 16.8412 15.9224 15.9132H18.3274C17.6226 17.3277 16.4242 18.4645 14.959 19.077Z" fill="white"/>
</g>
<defs>
<clipPath id="clip0_642_2085">
<rect width="25" height="25" fill="white" transform="translate(0 0.5)"/>
</clipPath>
</defs>
</svg>
