<svg width="29" height="27" viewBox="0 0 29 27" fill="none" xmlns="http://www.w3.org/2000/svg">
<path d="M8.17448 18.4204C7.77924 18.0091 7.08714 17.958 6.63541 18.301L6.62353 18.2933L5.6012 19.3156C5.37705 19.5391 5.25414 19.8373 5.25414 20.1543C5.24067 20.7928 5.80281 21.3537 6.44058 21.3407C6.81187 21.3467 7.14252 21.1611 7.38469 20.8882L8.17448 20.0984C8.33998 19.9329 8.45102 19.7269 8.49711 19.5028C8.57986 19.1151 8.45751 18.6993 8.17448 18.4204Z" fill="white"/>
<path d="M5.33171 14.9446C4.86893 14.4818 4.11699 14.4823 3.65366 14.9446C3.54598 15.0528 2.88203 15.7164 2.75912 15.8398C1.69189 16.9981 3.27762 18.5844 4.43647 17.5179C4.43647 17.5179 5.21285 16.7414 5.33171 16.6226C5.79476 16.1604 5.79476 15.4076 5.33171 14.9446Z" fill="white"/>
<path d="M10.603 21.125C10.286 21.125 9.9878 21.2486 9.76364 21.4728L8.86841 22.368C8.86422 22.3722 8.86003 22.3764 8.85584 22.3813C8.40724 22.8245 8.41395 23.6093 8.86841 24.046C9.33139 24.5083 10.0842 24.5083 10.5465 24.046L11.4424 23.1501C12.1844 22.41 11.651 21.121 10.603 21.125Z" fill="white"/>
<path d="M18.5638 7.95747C16.7321 9.11248 14.2761 8.89321 12.6819 7.29897L10.6065 5.22428L13.1965 2.63424C10.4147 -0.487563 5.52298 -0.685604 2.56186 2.29563C-0.415323 5.25256 -0.224474 10.1384 2.89077 12.9211C5.15944 11.6532 7.94927 13.4242 7.76568 16.0077C9.26789 16.17 10.5397 17.5316 10.6085 19.0342C12.0211 19.0039 13.4243 20.0619 13.7684 21.4573C14.9444 21.1421 16.2625 21.5326 17.0679 22.4643L17.0916 22.4363C18.2593 23.1374 19.4946 21.6975 18.614 20.6487L18.6161 20.6459C18.5979 20.6284 13.9004 15.9309 13.9004 15.9309C14.2695 15.5617 15.0124 14.8188 15.3815 14.4498L20.0434 19.1117C21.2016 20.1787 22.7883 18.5919 21.7208 17.4336L17.0595 12.7717C17.4286 12.4026 18.1716 11.6596 18.5406 11.2906C19.5884 12.3383 22.1302 14.8803 23.2026 15.9525C23.644 16.4124 24.4391 16.4122 24.8806 15.9525C25.3429 15.4895 25.3429 14.7368 24.8806 14.2745L18.5638 7.95747Z" fill="white"/>
<path d="M26.7943 2.29447C23.9556 -0.543469 19.337 -0.543469 16.4983 2.29447C15.9464 2.84677 14.0916 4.70197 13.5703 5.22319L14.1639 5.81676C15.196 6.84886 16.8747 6.84886 17.9061 5.81676L18.647 5.07585C19.041 5.47409 26.2719 12.6927 26.4751 12.9102C29.5829 10.1265 29.767 5.24756 26.7943 2.29447Z" fill="white"/>
<path d="M15.4421 23.7903C14.9791 23.328 14.2269 23.3274 13.7641 23.7903L12.8689 24.6856C12.4082 25.1272 12.4084 25.9219 12.8689 26.3636C13.3111 26.8232 14.1049 26.823 14.5469 26.3636L15.4421 25.4684C15.9018 25.0273 15.9018 24.2303 15.4421 23.7903Z" fill="white"/>
</svg>
