<svg width="30" height="27" viewBox="0 0 30 27" fill="none" xmlns="http://www.w3.org/2000/svg">
<path d="M29.9999 19.6698C29.9999 17.9144 29.4742 16.2193 28.4796 14.7679C27.7641 13.7239 26.8428 12.857 25.7752 12.2127C27.0322 11.0223 27.8186 9.33986 27.8186 7.47607C27.8186 3.87719 24.8907 0.949219 21.2919 0.949219C19.1579 0.949219 17.1588 2.00462 15.9446 3.73713C15.6361 3.69219 15.3208 3.66795 15 3.66795C14.6791 3.66795 14.3639 3.69227 14.0554 3.73713C12.8411 2.00462 10.8421 0.949219 8.70813 0.949219C5.10925 0.949219 2.18128 3.87719 2.18128 7.47607C2.18128 9.33986 2.96776 11.0223 4.22484 12.2127C3.15711 12.8569 2.23581 13.7239 1.52045 14.7678C0.525769 16.2193 0 17.9144 0 19.6698V23.3002H6.29191V26.0188H23.7082V23.3002H30V19.6698H29.9999ZM21.2919 2.56011C24.0025 2.56011 26.2078 4.76539 26.2078 7.47615C26.2078 10.1869 24.0025 12.3922 21.2919 12.3922C21.2433 12.3922 21.1947 12.3915 21.1461 12.39C21.1498 12.3797 21.1529 12.3691 21.1565 12.3588C21.2404 12.1209 21.3104 11.8766 21.3665 11.627C21.3705 11.6092 21.375 11.5917 21.3788 11.5739C21.3934 11.5066 21.4062 11.4386 21.4186 11.3704C21.4245 11.3382 21.4306 11.3061 21.436 11.2738C21.4461 11.213 21.4553 11.1519 21.4637 11.0906C21.4696 11.048 21.4749 11.0054 21.48 10.9627C21.4864 10.9086 21.4926 10.8544 21.4977 10.7999C21.5028 10.7442 21.5067 10.6885 21.5104 10.6327C21.5133 10.5887 21.5169 10.5449 21.5189 10.5007C21.5233 10.4059 21.5258 10.3109 21.5262 10.2159C21.5262 10.2089 21.5267 10.202 21.5267 10.195C21.5267 10.1912 21.5264 10.1874 21.5264 10.1836C21.5262 10.0865 21.5234 9.99006 21.5191 9.8939C21.5178 9.86595 21.5161 9.83808 21.5145 9.81021C21.5097 9.72847 21.5035 9.64712 21.4959 9.56618C21.4941 9.54781 21.4927 9.52945 21.4908 9.51117C21.2474 7.15866 19.7612 5.14506 17.6172 4.21369C18.5411 3.17576 19.8774 2.56011 21.2919 2.56011ZM13.299 5.58215C13.3147 5.57644 13.3306 5.57104 13.3463 5.5654C13.3952 5.54792 13.4445 5.53133 13.494 5.51531C13.5315 5.50331 13.5693 5.49171 13.6073 5.48059C13.635 5.47246 13.6627 5.46465 13.6904 5.45691C13.7401 5.4433 13.7899 5.43001 13.8403 5.41785C14.2124 5.32749 14.6004 5.27844 14.9998 5.27844C15.3995 5.27876 15.7877 5.32789 16.1599 5.41825C16.2099 5.43034 16.2595 5.44354 16.3088 5.45708C16.337 5.46489 16.3652 5.47278 16.3932 5.48108C16.4307 5.49211 16.4681 5.50355 16.5052 5.51539C16.5554 5.53158 16.6052 5.54833 16.6547 5.56605C16.6699 5.57144 16.6851 5.5766 16.7003 5.58215C18.3443 6.19016 19.577 7.65334 19.856 9.42902C19.8582 9.44319 19.8603 9.45745 19.8624 9.4717C19.8713 9.53187 19.8788 9.59251 19.8855 9.65332C19.8879 9.67571 19.8905 9.69802 19.8926 9.72049C19.898 9.77598 19.9019 9.83188 19.9054 9.88793C19.9069 9.91194 19.9089 9.93586 19.91 9.95994C19.9134 10.0315 19.9153 10.1035 19.9155 10.1759C19.9155 10.1822 19.9159 10.1884 19.9159 10.1946C19.9159 10.1975 19.9158 10.2005 19.9158 10.2034C19.9156 10.2735 19.9135 10.3431 19.9104 10.4124C19.9095 10.4342 19.9085 10.4561 19.9072 10.4778C19.9034 10.5448 19.8984 10.6115 19.892 10.6777C19.8895 10.7033 19.8861 10.7289 19.8832 10.7544C19.8783 10.7972 19.8728 10.84 19.8669 10.8825C19.8622 10.9156 19.8575 10.9488 19.8522 10.9818C19.8441 11.0319 19.8351 11.0818 19.8254 11.1315C19.8168 11.1757 19.8073 11.2198 19.7975 11.2637C19.7916 11.2902 19.7855 11.3167 19.7792 11.3431C19.7635 11.4084 19.7462 11.4733 19.7279 11.538C19.7205 11.5637 19.7137 11.5895 19.7059 11.615C19.6948 11.652 19.6827 11.6887 19.6707 11.7255C19.661 11.7549 19.6511 11.7841 19.6409 11.8133C19.6293 11.8464 19.6178 11.8795 19.6056 11.9124C19.5847 11.9682 19.5628 12.0236 19.54 12.0784C19.5299 12.1029 19.5191 12.1271 19.5085 12.1515C19.4886 12.1972 19.4682 12.2426 19.4469 12.2876C19.4444 12.2929 19.4419 12.2982 19.4394 12.3035C19.4318 12.3195 19.4242 12.3355 19.4164 12.3514C19.3926 12.4001 19.3678 12.4482 19.3423 12.4958C19.3324 12.5144 19.3228 12.5331 19.3127 12.5516C19.312 12.5528 19.3114 12.5539 19.3107 12.555C19.2829 12.6058 19.2538 12.6557 19.2242 12.7053C19.2125 12.725 19.2009 12.7447 19.1889 12.7641C19.1567 12.8164 19.1236 12.8681 19.0895 12.919C19.0683 12.9507 19.0462 12.9817 19.0243 13.0128C19.0056 13.0392 18.9871 13.0657 18.968 13.0918C18.9433 13.1254 18.9181 13.1587 18.8925 13.1918C18.8751 13.2143 18.8575 13.2366 18.8398 13.2588C18.8128 13.2926 18.7854 13.3263 18.7576 13.3594C18.7403 13.3799 18.7225 13.4001 18.7048 13.4203C18.6758 13.4535 18.6469 13.4869 18.6171 13.5193C18.5994 13.5386 18.581 13.5571 18.563 13.5761C18.5145 13.6273 18.4649 13.6773 18.4143 13.7263C18.3843 13.7554 18.3544 13.7846 18.3236 13.8128C18.3024 13.8324 18.2805 13.8514 18.2589 13.8707C18.2236 13.902 18.1881 13.933 18.1519 13.9633C18.1336 13.9787 18.115 13.9939 18.0964 14.009C18.0527 14.0446 18.0084 14.0795 17.9634 14.1137C17.9511 14.1229 17.939 14.1323 17.9267 14.1415C17.1084 14.7498 16.0956 15.1104 14.9999 15.1104C13.9041 15.1104 12.8911 14.7498 12.0728 14.1413C12.0607 14.1323 12.0489 14.123 12.0369 14.1139C11.9917 14.0797 11.9472 14.0446 11.9033 14.0088C11.8848 13.9937 11.8664 13.9787 11.8482 13.9634C11.8118 13.9329 11.7762 13.9018 11.7408 13.8703C11.7193 13.8512 11.6976 13.8323 11.6764 13.8128C11.6455 13.7845 11.6156 13.7553 11.5854 13.7262C11.5346 13.677 11.4849 13.6268 11.4363 13.5755C11.4185 13.5567 11.4003 13.5384 11.3828 13.5194C11.3529 13.4869 11.324 13.4535 11.295 13.4202C11.2774 13.4 11.2597 13.3799 11.2423 13.3594C11.2144 13.3263 11.1872 13.2926 11.1601 13.2589C11.1424 13.2367 11.1248 13.2143 11.1074 13.1918C11.0818 13.1588 11.0566 13.1255 11.0319 13.0918C11.0128 13.0657 10.9942 13.0392 10.9756 13.0127C10.9537 12.9816 10.9316 12.9507 10.9105 12.9191C10.8763 12.8679 10.843 12.8161 10.8107 12.7636C10.7989 12.7444 10.7874 12.725 10.7758 12.7056C10.7458 12.6552 10.7164 12.6047 10.6881 12.5532C10.6777 12.5343 10.6679 12.515 10.6577 12.496C10.6322 12.4482 10.6074 12.3999 10.5834 12.3512C10.5749 12.3339 10.5666 12.3164 10.5583 12.299C10.557 12.2963 10.5558 12.2937 10.5546 12.291C10.5323 12.244 10.511 12.1965 10.4901 12.1485C10.4802 12.1258 10.4701 12.103 10.4606 12.0802C10.4373 12.0241 10.4149 11.9676 10.3936 11.9106C10.3821 11.8798 10.3715 11.8487 10.3606 11.8177C10.3494 11.7859 10.3386 11.7538 10.328 11.7217C10.3167 11.6869 10.3052 11.6521 10.2946 11.6171C10.2788 11.5649 10.2638 11.5123 10.2497 11.4594C10.2398 11.4222 10.2308 11.3848 10.2217 11.3474C10.2146 11.318 10.2078 11.2886 10.2013 11.2591C10.1932 11.2228 10.1851 11.1867 10.1778 11.1502C10.1666 11.0935 10.1564 11.0365 10.1472 10.9792C10.1422 10.9483 10.1379 10.9172 10.1335 10.8863C10.1269 10.8405 10.1211 10.7944 10.1158 10.7482C10.1132 10.7254 10.1103 10.7026 10.1079 10.6798C10.1012 10.6119 10.0962 10.5435 10.0923 10.4749C10.0912 10.4552 10.0903 10.4355 10.0894 10.4157C10.0861 10.3423 10.0838 10.2687 10.0838 10.1946C10.0838 10.1152 10.086 10.0364 10.0898 9.95785C10.0908 9.9365 10.0926 9.91532 10.0938 9.89406C10.0974 9.8351 10.1016 9.77631 10.1073 9.71783C10.1092 9.69746 10.1115 9.67716 10.1137 9.65687C10.1207 9.59356 10.1285 9.53058 10.1378 9.468C10.1396 9.45584 10.1413 9.44359 10.1433 9.43143C10.4214 7.65471 11.6543 6.19056 13.299 5.58215ZM3.79209 7.47615C3.79209 4.76547 5.99737 2.56011 8.70813 2.56011C10.1227 2.56011 11.4589 3.17584 12.3828 4.21353C10.2381 5.14522 8.75154 7.15978 8.50887 9.51326C8.50718 9.52921 8.50597 9.54523 8.50444 9.56126C8.49639 9.64511 8.49002 9.72927 8.48519 9.81392C8.48374 9.83969 8.48213 9.86538 8.48092 9.89124C8.47633 9.99199 8.47319 10.0931 8.47319 10.1949C8.47319 10.2976 8.47617 10.4002 8.481 10.5026C8.48294 10.5439 8.48632 10.5847 8.48898 10.6257C8.49292 10.6846 8.49695 10.7436 8.50243 10.8024C8.50726 10.8547 8.51322 10.9066 8.51934 10.9586C8.52466 11.0038 8.5303 11.0489 8.53658 11.094C8.54479 11.1532 8.55365 11.2122 8.5634 11.2709C8.56928 11.3058 8.57572 11.3406 8.58208 11.3754C8.59416 11.4411 8.60649 11.5066 8.6205 11.5716C8.62517 11.5931 8.63049 11.6143 8.63532 11.6357C8.69001 11.8775 8.7579 12.1143 8.83877 12.3452C8.84392 12.3601 8.84843 12.3752 8.85367 12.39C8.8051 12.3915 8.75645 12.3922 8.70797 12.3922C5.99738 12.3921 3.79209 10.1868 3.79209 7.47615ZM7.64234 17.7452C7.62462 17.7731 7.6077 17.8015 7.59031 17.8296C7.5535 17.8891 7.51701 17.9487 7.48174 18.0088C7.462 18.0424 7.443 18.0763 7.42383 18.1101C7.3921 18.1659 7.36077 18.2219 7.33032 18.2783C7.31115 18.3139 7.29231 18.3495 7.27362 18.3852C7.2443 18.4413 7.21571 18.4978 7.18768 18.5544C7.17005 18.59 7.15249 18.6255 7.13541 18.6613C7.1069 18.721 7.07944 18.7811 7.05229 18.8414C7.03756 18.8742 7.02241 18.9067 7.00816 18.9397C6.97675 19.0118 6.94679 19.0845 6.91739 19.1575C6.90877 19.1789 6.89959 19.2 6.89121 19.2213C6.85392 19.3161 6.81824 19.4115 6.78442 19.5075C6.77669 19.5294 6.76976 19.5517 6.76211 19.5737C6.73666 19.6476 6.71185 19.7218 6.68841 19.7963C6.6777 19.8305 6.66779 19.8649 6.65749 19.8992C6.63856 19.9624 6.61995 20.0256 6.60248 20.0892C6.59209 20.1271 6.58218 20.165 6.57227 20.203C6.55633 20.2641 6.54102 20.3253 6.52653 20.3867C6.51726 20.4256 6.50824 20.4645 6.49963 20.5035C6.48577 20.5658 6.47281 20.6283 6.46032 20.6908C6.45283 20.7285 6.4451 20.7661 6.43809 20.8038C6.42545 20.872 6.41409 20.9404 6.40306 21.009C6.3979 21.0412 6.39218 21.0733 6.38735 21.1055C6.37237 21.2061 6.35876 21.3071 6.34732 21.4085C6.34716 21.4097 6.34708 21.4109 6.347 21.4121C6.33661 21.5043 6.32767 21.5967 6.32018 21.6894H1.61081V19.6698C1.61081 16.9107 3.19698 14.4336 5.68198 13.2563C6.58725 13.7321 7.61632 14.003 8.70805 14.003C9.02377 14.003 9.34045 13.9796 9.65472 13.9334C9.70369 14.0032 9.75347 14.0723 9.80501 14.1402C9.82241 14.1629 9.84045 14.1852 9.85817 14.2077C9.90907 14.2728 9.9607 14.3372 10.014 14.4002C10.0358 14.4261 10.0582 14.4514 10.0805 14.4769C10.1304 14.5342 10.1811 14.5909 10.233 14.6464C10.2602 14.6756 10.2879 14.7043 10.3156 14.7331C10.3631 14.782 10.4112 14.8301 10.46 14.8776C10.4784 14.8954 10.4957 14.9142 10.5143 14.9319C10.4443 14.9742 10.3749 15.0175 10.3062 15.0617C10.295 15.0689 10.2841 15.0764 10.273 15.0837C10.2043 15.1283 10.1363 15.1739 10.0689 15.2204C10.0457 15.2365 10.0225 15.2527 9.99928 15.269C9.93927 15.3113 9.87991 15.3543 9.82104 15.398C9.80243 15.4119 9.78359 15.4254 9.76514 15.4394C9.69024 15.4961 9.61622 15.5537 9.54317 15.6127C9.52723 15.6256 9.5116 15.6389 9.49566 15.6519C9.4375 15.6995 9.37992 15.7479 9.32306 15.797C9.30099 15.816 9.27908 15.8352 9.25717 15.8545C9.20023 15.9046 9.14402 15.9555 9.08836 16.0072C9.07386 16.0206 9.05904 16.0338 9.04463 16.0474C8.97633 16.1117 8.90908 16.1772 8.84279 16.2438C8.82556 16.2611 8.80872 16.2788 8.79165 16.2961C8.74091 16.3479 8.69073 16.4003 8.6412 16.4534C8.62155 16.4745 8.6019 16.4956 8.58241 16.5169C8.52667 16.5778 8.47174 16.6395 8.4177 16.7021C8.40924 16.7119 8.40046 16.7214 8.39201 16.7313C8.33039 16.8032 8.27015 16.8765 8.21071 16.9505C8.19412 16.9712 8.17793 16.9921 8.16158 17.013C8.11688 17.0697 8.07282 17.1271 8.02949 17.185C8.01274 17.2074 7.99591 17.2296 7.9794 17.2522C7.9227 17.3295 7.86672 17.4074 7.81236 17.4868C7.75396 17.572 7.69743 17.6582 7.64234 17.7452ZM7.90272 24.4081V23.3003V22.3886C7.90272 22.2992 7.90441 22.2101 7.90772 22.1212C7.90876 22.092 7.9111 22.063 7.91255 22.0339C7.91545 21.9746 7.91819 21.9152 7.92254 21.8562C7.92519 21.8203 7.92922 21.7848 7.93244 21.7491C7.93711 21.697 7.9413 21.6449 7.9471 21.5932C7.95137 21.5554 7.95693 21.5178 7.96176 21.48C7.96804 21.4308 7.97392 21.3815 7.98117 21.3325C7.98705 21.2935 7.99414 21.2549 8.00058 21.2161C8.00847 21.1689 8.0158 21.1215 8.02466 21.0745C8.03215 21.0348 8.04085 20.9955 8.04898 20.956C8.05833 20.9104 8.06727 20.8647 8.0775 20.8194C8.08652 20.7794 8.09683 20.7399 8.10649 20.7001C8.11736 20.6558 8.12775 20.6113 8.13943 20.5672C8.15006 20.5272 8.16182 20.4876 8.1731 20.4479C8.18534 20.4046 8.19726 20.3613 8.21031 20.3183C8.22247 20.2784 8.23584 20.2388 8.24864 20.1991C8.26234 20.1569 8.27563 20.1147 8.29004 20.0729C8.30373 20.0334 8.31847 19.9942 8.33281 19.9549C8.34795 19.9135 8.36277 19.872 8.37864 19.8309C8.39378 19.7919 8.40989 19.7533 8.42559 19.7145C8.4421 19.6739 8.45837 19.6332 8.47561 19.593C8.49228 19.5543 8.50984 19.5159 8.52715 19.4776C8.54495 19.438 8.56259 19.3983 8.58112 19.3592C8.59924 19.3209 8.61825 19.2832 8.63701 19.2452C8.65618 19.2066 8.67511 19.1678 8.69492 19.1296C8.71449 19.0919 8.73487 19.0547 8.75508 19.0174C8.77554 18.9796 8.79576 18.9418 8.81686 18.9045C8.8378 18.8674 8.85955 18.8309 8.88105 18.7943C8.9028 18.7574 8.92438 18.7204 8.94685 18.6839C8.96916 18.6475 8.9922 18.6118 9.01515 18.5758C9.03818 18.5398 9.06106 18.5038 9.08474 18.4682C9.10842 18.4326 9.13274 18.3975 9.15706 18.3624C9.1813 18.3274 9.20547 18.2923 9.23027 18.2577C9.25524 18.2229 9.28093 18.1886 9.30663 18.1542C9.33208 18.1202 9.35745 18.0861 9.38346 18.0525C9.40972 18.0186 9.43662 17.9852 9.46352 17.9517C9.49018 17.9185 9.51692 17.8854 9.54414 17.8527C9.5716 17.8198 9.59963 17.7874 9.62766 17.755C9.65561 17.7227 9.68364 17.6904 9.71223 17.6585C9.74082 17.6266 9.77006 17.5952 9.79921 17.5638C9.82837 17.5324 9.85752 17.5013 9.88724 17.4705C9.91704 17.4396 9.94741 17.4091 9.97785 17.3788C10.0082 17.3484 10.0387 17.3182 10.0697 17.2883C10.1005 17.2586 10.1318 17.2293 10.1633 17.2001C10.1949 17.1707 10.2266 17.1415 10.2588 17.1127C10.2908 17.084 10.3232 17.0557 10.3558 17.0276C10.3885 16.9993 10.4215 16.9712 10.4547 16.9435C10.4878 16.916 10.5213 16.8888 10.5549 16.8619C10.5888 16.8346 10.623 16.8077 10.6575 16.781C10.6915 16.7547 10.7259 16.7288 10.7605 16.703C10.7956 16.6769 10.8309 16.651 10.8667 16.6255C10.9017 16.6004 10.9369 16.5758 10.9724 16.5513C11.0089 16.5263 11.0454 16.5015 11.0823 16.4771C11.1181 16.4534 11.1543 16.43 11.1906 16.4069C11.2282 16.383 11.2661 16.3594 11.3042 16.3362C11.3409 16.3138 11.3779 16.2916 11.4151 16.2699C11.4538 16.2473 11.4927 16.2249 11.532 16.203C11.5696 16.1819 11.6074 16.161 11.6455 16.1405C11.6854 16.1191 11.7256 16.0981 11.766 16.0773C11.8044 16.0576 11.8428 16.0382 11.8817 16.0191C11.9122 16.0041 11.943 15.9896 11.9739 15.975C12.8791 16.4509 13.9083 16.7216 15 16.7216C16.0917 16.7216 17.1208 16.4509 18.026 15.975C18.0566 15.9895 18.0872 16.0039 18.1175 16.0188C18.1568 16.0381 18.1957 16.0577 18.2346 16.0776C18.2745 16.0982 18.3143 16.119 18.3538 16.1401C18.3923 16.1608 18.4305 16.1819 18.4685 16.2033C18.5073 16.225 18.5458 16.247 18.5839 16.2694C18.6217 16.2915 18.6592 16.3139 18.6964 16.3367C18.734 16.3596 18.7713 16.3828 18.8083 16.4064C18.8452 16.4298 18.8818 16.4535 18.9181 16.4776C18.9546 16.5017 18.9907 16.5262 19.0267 16.5509C19.0625 16.5756 19.0982 16.6005 19.1335 16.6258C19.1689 16.6511 19.2039 16.6767 19.2387 16.7026C19.2736 16.7286 19.3083 16.7547 19.3427 16.7813C19.3769 16.8077 19.4107 16.8345 19.4444 16.8615C19.4782 16.8886 19.5118 16.9159 19.5452 16.9436C19.5783 16.9712 19.611 16.9991 19.6435 17.0272C19.6763 17.0555 19.7089 17.0839 19.7411 17.1128C19.773 17.1414 19.8045 17.1704 19.8359 17.1995C19.8676 17.229 19.8992 17.2586 19.9304 17.2886C19.9611 17.3182 19.9913 17.3482 20.0213 17.3782C20.052 17.4088 20.0826 17.4395 20.1126 17.4706C20.1421 17.5012 20.1711 17.5321 20.2001 17.5632C20.2295 17.5949 20.2589 17.6266 20.2878 17.6587C20.3161 17.6903 20.3439 17.7223 20.3716 17.7543C20.3999 17.787 20.4282 17.8197 20.4558 17.8528C20.4829 17.8853 20.5094 17.9182 20.5359 17.9512C20.563 17.9848 20.59 18.0184 20.6165 18.0526C20.6424 18.086 20.6676 18.1199 20.6929 18.1538C20.7187 18.1883 20.7444 18.2228 20.7696 18.2578C20.7943 18.2922 20.8184 18.3271 20.8425 18.362C20.8669 18.3973 20.8913 18.4326 20.9151 18.4683C20.9386 18.5037 20.9613 18.5394 20.9842 18.5752C21.0073 18.6114 21.0305 18.6474 21.053 18.684C21.0752 18.7202 21.0966 18.7569 21.1182 18.7935C21.14 18.8304 21.1619 18.8672 21.1829 18.9045C21.2039 18.9417 21.2241 18.9794 21.2444 19.0169C21.2647 19.0543 21.2852 19.0917 21.3048 19.1295C21.3246 19.1677 21.3434 19.2064 21.3626 19.245C21.3814 19.2829 21.4004 19.3208 21.4186 19.3591C21.4371 19.3983 21.4546 19.4378 21.4724 19.4773C21.4898 19.5158 21.5074 19.5542 21.5241 19.5931C21.5412 19.6329 21.5573 19.6733 21.5737 19.7136C21.5896 19.7527 21.6059 19.7917 21.6211 19.8312C21.6369 19.872 21.6516 19.9133 21.6667 19.9545C21.6811 19.9939 21.6959 20.0332 21.7096 20.0729C21.7241 20.1148 21.7374 20.1573 21.7511 20.1995C21.7639 20.2391 21.7772 20.2785 21.7893 20.3183C21.8024 20.3613 21.8143 20.4047 21.8266 20.4479C21.8379 20.4876 21.8496 20.5272 21.8602 20.5672C21.8719 20.6113 21.8823 20.6557 21.8932 20.7001C21.9029 20.7398 21.9132 20.7794 21.9222 20.8194C21.9324 20.8647 21.9413 20.9103 21.9507 20.9558C21.9588 20.9954 21.9675 21.0348 21.975 21.0745C21.9838 21.1211 21.991 21.168 21.9989 21.2149C22.0055 21.2541 22.0127 21.2931 22.0186 21.3326C22.0258 21.3812 22.0316 21.4301 22.0379 21.4789C22.0428 21.517 22.0485 21.5549 22.0527 21.5931C22.0585 21.6448 22.0627 21.697 22.0674 21.749C22.0706 21.7847 22.0746 21.8203 22.0773 21.8561C22.0817 21.9151 22.0844 21.9746 22.0873 22.0339C22.0887 22.063 22.0911 22.092 22.0921 22.1212C22.0954 22.21 22.0971 22.2991 22.0971 22.3885V23.3001V24.4081H7.90272ZM23.6801 21.6894C23.6644 21.4932 23.6416 21.2982 23.6128 21.1044C23.6082 21.0737 23.6027 21.0433 23.5978 21.0127C23.5866 20.9425 23.575 20.8725 23.562 20.8028C23.5551 20.7661 23.5477 20.7295 23.5403 20.6929C23.5277 20.6292 23.5145 20.5656 23.5004 20.5023C23.4918 20.4641 23.483 20.4259 23.474 20.3879C23.4592 20.3258 23.4438 20.2638 23.4276 20.202C23.4179 20.1646 23.4082 20.1272 23.3978 20.0899C23.3802 20.0256 23.3614 19.9616 23.3422 19.8978C23.332 19.8641 23.3224 19.8303 23.3118 19.7968C23.2881 19.7211 23.2629 19.6459 23.2371 19.5708C23.2298 19.5499 23.2232 19.5287 23.2158 19.5078C23.1818 19.4115 23.1462 19.3159 23.1087 19.2207C23.1007 19.2004 23.0919 19.1802 23.0837 19.1598C23.0539 19.086 23.0235 19.0123 22.9917 18.9392C22.9776 18.9067 22.9627 18.8747 22.9482 18.8424C22.9208 18.7815 22.8931 18.7208 22.8643 18.6606C22.8474 18.6253 22.83 18.5903 22.8127 18.5552C22.7844 18.498 22.7555 18.4411 22.726 18.3845C22.7075 18.349 22.6888 18.3138 22.6698 18.2786C22.6392 18.222 22.6078 18.1657 22.5759 18.1097C22.5568 18.076 22.5378 18.0423 22.5183 18.0089C22.4828 17.9484 22.4462 17.8886 22.4091 17.8288C22.3919 17.801 22.3751 17.7729 22.3576 17.7452C22.3024 17.6583 22.2459 17.5721 22.1874 17.4868C22.133 17.4074 22.077 17.3294 22.0203 17.2521C22.0039 17.2297 21.9871 17.2075 21.9705 17.1853C21.9269 17.1271 21.8827 17.0696 21.8379 17.0126C21.8217 16.992 21.8056 16.9712 21.7892 16.9509C21.7297 16.8766 21.6692 16.8032 21.6074 16.7311C21.5994 16.7217 21.5911 16.7126 21.583 16.7033C21.5286 16.6402 21.4732 16.578 21.417 16.5167C21.3977 16.4956 21.3783 16.4747 21.3588 16.4538C21.309 16.4004 21.2585 16.3476 21.2075 16.2956C21.1906 16.2784 21.1741 16.2611 21.1571 16.2441C21.0907 16.1774 21.0232 16.1117 20.9547 16.0473C20.9406 16.034 20.9261 16.0211 20.912 16.0079C20.856 15.9559 20.7994 15.9048 20.7423 15.8544C20.7205 15.8352 20.6986 15.8162 20.6767 15.7972C20.6197 15.748 20.5621 15.6996 20.5039 15.6519C20.488 15.6389 20.4725 15.6256 20.4565 15.6128C20.3835 15.5538 20.3095 15.4961 20.2347 15.4396C20.216 15.4255 20.197 15.4118 20.1782 15.3979C20.1196 15.3544 20.0606 15.3115 20.0008 15.2695C19.9774 15.253 19.9539 15.2366 19.9304 15.2203C19.8637 15.1743 19.7965 15.1292 19.7285 15.0851C19.7166 15.0773 19.7049 15.0693 19.693 15.0616C19.6244 15.0176 19.5553 14.9743 19.4853 14.9321C19.5034 14.915 19.5203 14.8967 19.5381 14.8793C19.588 14.831 19.6371 14.7818 19.6854 14.7319C19.7124 14.704 19.7392 14.6761 19.7656 14.6477C19.8184 14.5913 19.8698 14.5338 19.9205 14.4756C19.9421 14.4509 19.9638 14.4263 19.9849 14.4012C20.039 14.3372 20.0915 14.2719 20.1431 14.2058C20.16 14.1842 20.1774 14.1629 20.1939 14.1411C20.2457 14.0731 20.2957 14.0036 20.345 13.9336C20.6592 13.9797 20.9759 14.0031 21.2916 14.0031C22.3834 14.0031 23.4125 13.7323 24.3177 13.2564C26.8028 14.4337 28.3889 16.9108 28.3889 19.6699V21.6894H23.6801Z" fill="white"/>
</svg>
