<svg width="30" height="31" viewBox="0 0 30 31" fill="none" xmlns="http://www.w3.org/2000/svg">
<g clip-path="url(#clip0_843_4170)">
<path d="M28.2212 17.3845L26.9731 16.3571C26.1182 15.6533 26.1197 14.3453 26.9732 13.6429L28.2212 12.6155C29.1093 11.8843 29.3364 10.6305 28.7613 9.63416L26.2969 5.36584C25.7217 4.36951 24.522 3.93943 23.4449 4.34291L21.9312 4.91004C20.8943 5.2984 19.7623 4.64338 19.5806 3.55295L19.3148 1.95838C19.1257 0.823652 18.1535 0 17.003 0H12.0744C10.9239 0 9.95162 0.823652 9.76254 1.95844L9.49676 3.55295C9.31471 4.64531 8.18115 5.29775 7.14621 4.9101L5.63244 4.34291C4.55531 3.93943 3.35578 4.36957 2.78045 5.36584L0.316171 9.6341C-0.259044 10.6304 -0.0319347 11.8842 0.856288 12.6155L2.10428 13.6429C2.95928 14.3467 2.95758 15.6546 2.10428 16.357L0.856229 17.3844C-0.0319347 18.1157 -0.259103 19.3695 0.316112 20.3658L2.78045 24.6341C3.35572 25.6304 4.55502 26.0605 5.63244 25.657L7.14615 25.0899C8.1832 24.7014 9.315 25.3569 9.4967 26.447L9.76248 28.0414C9.95162 29.1763 10.9239 30 12.0744 30H17.003C18.1534 30 19.1257 29.1763 19.3148 28.0416L19.5805 26.4471C19.7625 25.355 20.896 24.7021 21.9311 25.09L23.4449 25.6571C24.5223 26.0606 25.7217 25.6305 26.2969 24.6342L28.7613 20.3658C29.3364 19.3695 29.1093 18.1157 28.2212 17.3845ZM24.2672 23.4623L22.7534 22.8952C20.3336 21.9887 17.6927 23.518 17.2687 26.0617L17.003 27.6562H12.0744L11.8086 26.0617C11.3839 23.5131 8.73914 21.9904 6.32396 22.8952L4.81019 23.4623L2.34592 19.194L3.59391 18.1666C5.58896 16.5242 5.5848 13.4724 3.59391 11.8334L2.34592 10.806L4.81025 6.53771L6.32396 7.10484C8.74389 8.01129 11.3847 6.48199 11.8086 3.93826L12.0744 2.34375H17.003L17.2687 3.93826C17.6935 6.48721 20.3384 8.00941 22.7534 7.10484L24.2671 6.53771L26.732 10.8054C26.732 10.8054 26.7318 10.8056 26.7313 10.806L25.4834 11.8334C23.4884 13.4756 23.4924 16.5275 25.4834 18.1665L26.7314 19.1939L24.2672 23.4623ZM14.5387 9.21873C11.3509 9.21873 8.75742 11.8122 8.75742 15C8.75742 18.1878 11.3509 20.7813 14.5387 20.7813C17.7265 20.7813 20.32 18.1878 20.32 15C20.32 11.8122 17.7265 9.21873 14.5387 9.21873ZM14.5387 18.4375C12.6432 18.4375 11.1012 16.8954 11.1012 15C11.1012 13.1046 12.6432 11.5625 14.5387 11.5625C16.4341 11.5625 17.9762 13.1046 17.9762 15C17.9762 16.8954 16.4341 18.4375 14.5387 18.4375Z" fill="white"/>
</g>
<defs>
<clipPath id="clip0_843_4170">
<rect width="30" height="30" fill="white" transform="translate(0 0.244141)"/>
</clipPath>
</defs>
</svg>
