<svg width="30" height="24" viewBox="0 0 30 24" fill="none" xmlns="http://www.w3.org/2000/svg">
<path d="M7 19.3184C6.5985 19.3184 6.2215 19.1619 5.939 18.8784L0.4395 13.3789C0.1565 13.0969 0 12.7199 0 12.3184C0 11.9169 0.1565 11.5399 0.44 11.2574L5.9395 5.75786C6.2215 5.47486 6.5985 5.31836 7 5.31836C7.827 5.31836 8.5 5.99136 8.5 6.81836C8.5 7.21986 8.3435 7.59686 8.06 7.87936L3.621 12.3184L8.0605 16.7579C8.344 17.0399 8.5 17.4169 8.5 17.8184C8.5 18.6454 7.827 19.3184 7 19.3184Z" fill="#FFFFFF"/>
<path d="M23 19.8184C22.173 19.8184 21.5 19.1454 21.5 18.3184C21.5 17.9169 21.6565 17.5399 21.94 17.2574L26.379 12.8184L21.9395 8.37886C21.6565 8.09586 21.5 7.71886 21.5 7.31836C21.5 6.49136 22.173 5.81836 23 5.81836C23.4015 5.81836 23.7785 5.97486 24.061 6.25836L29.5605 11.7579C29.844 12.0409 30 12.4179 30 12.8184C30 13.2199 29.8435 13.5969 29.56 13.8794L24.0605 19.3789C23.7785 19.6624 23.4015 19.8184 23 19.8184Z" fill="#FFFFFF"/>
<path d="M10.5 23.8184C9.673 23.8184 9 23.1454 9 22.3184C9 22.1194 9.039 21.9249 9.115 21.7409L18.1155 1.73986C18.3505 1.17986 18.894 0.818359 19.5 0.818359C20.327 0.818359 21 1.49136 21 2.31836C21 2.51736 20.961 2.71186 20.885 2.89586L11.8845 22.8969C11.6495 23.4569 11.106 23.8184 10.5 23.8184Z" fill="#FFFFFF"/>
</svg>
