<svg width="31" height="30" viewBox="0 0 31 30" fill="none" xmlns="http://www.w3.org/2000/svg">
<g clip-path="url(#clip0_843_2984)">
<path d="M18.0111 14.9992L13.9119 19.6495C12.5772 21.1627 10.6546 22.0312 8.63672 22.0312C4.75975 22.0312 1.54688 18.877 1.54688 15C1.54688 11.123 4.75975 7.96875 8.63672 7.96875C10.6546 7.96875 12.5772 8.83734 13.9119 10.3514L15.668 12.3427M13.3248 15.0008L17.4241 10.3505C18.7587 8.83652 20.6814 7.96875 22.6992 7.96875C26.5762 7.96875 29.7891 11.123 29.7891 15C29.7891 18.877 26.5762 22.0312 22.6992 22.0312C20.6814 22.0312 18.7587 21.1627 17.4241 19.6486L15.668 17.6573M18.012 15L20.0608 17.3234C20.7285 18.0813 21.6907 18.5156 22.6992 18.5156C24.6381 18.5156 26.2148 16.9389 26.2148 15C26.2148 13.0611 24.6381 11.4844 22.6992 11.4844C21.6907 11.4844 20.7285 11.9187 20.0608 12.6757C20.0608 12.6766 20.0608 12.6766 20.0608 12.6766L18.012 15ZM8.63672 11.4844C6.69779 11.4844 5.12109 13.0611 5.12109 15C5.12109 16.9389 6.69779 18.5156 8.63672 18.5156C9.64523 18.5156 10.6074 18.0813 11.2751 17.3243L13.3239 15L11.2751 12.6766C10.6074 11.9187 9.64523 11.4844 8.63672 11.4844Z" stroke="#5355DF" stroke-width="2" stroke-miterlimit="10" stroke-linecap="round" stroke-linejoin="round"/>
<path d="M15.6679 0.937526L12.1523 4.45312L15.6679 7.96872L19.1835 4.45312L15.6679 0.937526Z" stroke="#5355DF" stroke-width="2" stroke-miterlimit="10" stroke-linecap="round" stroke-linejoin="round"/>
<path d="M15.6679 22.0313L12.1523 25.5469L15.6679 29.0625L19.1835 25.5469L15.6679 22.0313Z" stroke="#5355DF" stroke-width="2" stroke-miterlimit="10" stroke-linecap="round" stroke-linejoin="round"/>
</g>
<defs>
<clipPath id="clip0_843_2984">
<rect width="30" height="30" fill="white" transform="translate(0.667969)"/>
</clipPath>
</defs>
</svg>
