<svg width="30" height="31" viewBox="0 0 30 31" fill="none" xmlns="http://www.w3.org/2000/svg">
<g clip-path="url(#clip0_761_1627)">
<path d="M20.3602 9.79941L17.0998 9.32508L15.6405 6.37023C15.5749 6.25869 15.4814 6.16621 15.369 6.10196C15.2567 6.03771 15.1296 6.00391 15.0002 6.00391C14.8708 6.00391 14.7436 6.03771 14.6313 6.10196C14.519 6.16621 14.4254 6.25869 14.3598 6.37023L12.9005 9.32508L9.64017 9.79941C9.50835 9.8186 9.38452 9.87431 9.28271 9.96023C9.1809 10.0461 9.10517 10.1588 9.06408 10.2856C9.023 10.4123 9.0182 10.548 9.05024 10.6773C9.08227 10.8066 9.14986 10.9244 9.24535 11.0173L11.6045 13.3178L11.0466 16.5657C11.0242 16.697 11.039 16.832 11.0892 16.9553C11.1395 17.0787 11.2232 17.1856 11.331 17.2639C11.4388 17.3422 11.5664 17.3888 11.6992 17.3984C11.8321 17.4081 11.965 17.3804 12.083 17.3185L15.0002 15.7851L17.9174 17.3183C18.0353 17.3802 18.1682 17.4079 18.3011 17.3983C18.4339 17.3886 18.5615 17.342 18.6692 17.2638C18.777 17.1855 18.8608 17.0786 18.911 16.9553C18.9613 16.8319 18.9761 16.697 18.9537 16.5657L18.3957 13.3179L20.7549 11.0173C20.8503 10.9244 20.9179 10.8067 20.95 10.6774C20.982 10.5481 20.9772 10.4124 20.9361 10.2856C20.895 10.1589 20.8193 10.0462 20.7175 9.9603C20.6157 9.87438 20.492 9.8186 20.3602 9.79941ZM17.1305 12.5575C17.0474 12.6383 16.9853 12.738 16.9493 12.8481C16.9133 12.9582 16.9047 13.0754 16.924 13.1897L17.3007 15.3807L15.3323 14.346C15.23 14.292 15.116 14.2637 15.0003 14.2637C14.8846 14.2637 14.7706 14.292 14.6682 14.346L12.6997 15.3805L13.0764 13.1895C13.0958 13.0753 13.0871 12.9581 13.0512 12.848C13.0152 12.7379 12.953 12.6381 12.87 12.5574L11.278 11.0048L13.478 10.6846C13.5925 10.668 13.7013 10.6237 13.7949 10.5556C13.8884 10.4876 13.964 10.3978 14.0152 10.294L15.0002 8.29966L15.9851 10.294C16.0362 10.3978 16.1118 10.4876 16.2054 10.5556C16.299 10.6237 16.4077 10.668 16.5222 10.6846L18.7222 11.0048L17.1305 12.5575Z" fill="white"/>
<path d="M29.8705 24.9321L24.9819 17.9512C25.9518 16.2117 26.4503 14.2489 26.4279 12.2574C26.4056 10.2659 25.8632 8.31478 24.8545 6.59746C23.8458 4.88014 22.4059 3.45624 20.6773 2.46687C18.9488 1.47751 16.9917 0.957031 15.0001 0.957031C13.0084 0.957031 11.0514 1.47751 9.32285 2.46687C7.59432 3.45624 6.15436 4.88014 5.14566 6.59746C4.13697 8.31478 3.59458 10.2659 3.57224 12.2574C3.5499 14.2489 4.04839 16.2117 5.0183 17.9512L0.12966 24.9321C0.0484402 25.0477 0.00337679 25.1848 0.000182429 25.3261C-0.00301193 25.4673 0.0358066 25.6064 0.111717 25.7255C0.187627 25.8447 0.297211 25.9386 0.426577 25.9955C0.555943 26.0523 0.699265 26.0694 0.838374 26.0447L6.10491 25.1161L7.03266 30.3819C7.05714 30.521 7.12228 30.6497 7.21986 30.7517C7.31744 30.8538 7.44308 30.9246 7.58091 30.9553C7.63179 30.9664 7.6837 30.972 7.73577 30.9721C7.85057 30.9721 7.96369 30.9445 8.06548 30.8914C8.16727 30.8383 8.25471 30.7614 8.32034 30.6672L13.2162 23.6756C14.3967 23.8803 15.6036 23.8803 16.7841 23.6756L21.6798 30.6673C21.7455 30.7615 21.8329 30.8384 21.9347 30.8915C22.0365 30.9446 22.1496 30.9723 22.2644 30.9722C22.3165 30.9721 22.3684 30.9665 22.4193 30.9554C22.5571 30.9248 22.6827 30.8539 22.7803 30.7519C22.8779 30.6498 22.943 30.5211 22.9675 30.3821L23.8953 25.1162L29.1618 26.0448C29.3009 26.0695 29.4442 26.0524 29.5736 25.9956C29.703 25.9388 29.8126 25.8448 29.8885 25.7257C29.9644 25.6065 30.0032 25.4675 30 25.3262C29.9968 25.185 29.9517 25.0477 29.8705 24.9321ZM8.14038 28.4352L7.38702 24.1649C7.3709 24.0724 7.33668 23.9841 7.28633 23.9049C7.23599 23.8258 7.1705 23.7573 7.09363 23.7035C7.01676 23.6497 6.93002 23.6117 6.83839 23.5915C6.74677 23.5713 6.65205 23.5694 6.5597 23.5859L2.28791 24.3384L5.86187 19.2349C7.32302 21.1918 9.37138 22.6305 11.708 23.3409L8.14038 28.4352ZM5.00009 12.4006C5.00009 10.4228 5.58658 8.48938 6.68539 6.84488C7.78421 5.20039 9.34599 3.91867 11.1733 3.16179C13.0005 2.40491 15.0112 2.20688 16.951 2.59273C18.8908 2.97859 20.6726 3.93099 22.0712 5.32952C23.4697 6.72804 24.4221 8.50987 24.8079 10.4497C25.1938 12.3895 24.9958 14.4002 24.2389 16.2274C23.482 18.0547 22.2003 19.6165 20.5558 20.7153C18.9113 21.8141 16.9779 22.4006 15.0001 22.4006C12.3489 22.3975 9.80715 21.3429 7.93247 19.4682C6.05778 17.5935 5.00321 15.0518 5.00009 12.4006ZM23.4405 23.5858C23.3481 23.5693 23.2534 23.5712 23.1618 23.5914C23.0701 23.6116 22.9834 23.6497 22.9065 23.7035C22.8296 23.7573 22.7642 23.8257 22.7138 23.9049C22.6635 23.9841 22.6293 24.0724 22.6132 24.1649L21.8598 28.4352L18.2922 23.3409C20.6288 22.6305 22.6772 21.1918 24.1383 19.2349L27.7123 24.3385L23.4405 23.5858Z" fill="white"/>
</g>
<defs>
<clipPath id="clip0_761_1627">
<rect width="30" height="30" fill="white" transform="translate(0 0.971191)"/>
</clipPath>
</defs>
</svg>
