<svg width="30" height="22" viewBox="0 0 30 22" fill="none" xmlns="http://www.w3.org/2000/svg">
<path d="M28.33 3.34774C27.8766 3.10307 27.3646 2.98785 26.8501 3.0147C26.3356 3.04154 25.8384 3.20941 25.413 3.49994L20 7.13253V4.24414C19.9991 3.44876 19.6827 2.68623 19.1203 2.12381C18.5579 1.5614 17.7954 1.24504 17 1.24414H3C2.20462 1.24504 1.44209 1.5614 0.879673 2.12381C0.317259 2.68623 0.000899893 3.44876 0 4.24414V18.2441C0.000899893 19.0395 0.317259 19.802 0.879673 20.3644C1.44209 20.9269 2.20462 21.2432 3 21.2441H17C17.7954 21.2432 18.5579 20.9269 19.1203 20.3644C19.6827 19.802 19.9991 19.0395 20 18.2441V15.3555L25.414 18.9883C25.8384 19.2808 26.3357 19.4499 26.8504 19.4767C27.3652 19.5036 27.8774 19.3872 28.33 19.1405C28.8454 18.8543 29.2731 18.4331 29.5673 17.9222C29.8615 17.4113 30.0111 16.83 30 16.2405V6.24813C30.0112 5.65862 29.8617 5.07717 29.5674 4.5662C29.2732 4.05522 28.8454 3.634 28.33 3.34774ZM18 18.2441C17.9997 18.5092 17.8942 18.7634 17.7067 18.9509C17.5193 19.1383 17.2651 19.2438 17 19.2441H3C2.73488 19.2438 2.48071 19.1383 2.29324 18.9509C2.10577 18.7634 2.00032 18.5092 2 18.2441V4.24414C2.00032 3.97902 2.10577 3.72485 2.29324 3.53738C2.48071 3.34991 2.73488 3.24446 3 3.24414H17C17.2651 3.24446 17.5193 3.34991 17.7067 3.53738C17.8942 3.72485 17.9997 3.97902 18 4.24414V18.2441ZM28 16.2401C28.0108 16.4672 27.9596 16.693 27.8519 16.8933C27.7442 17.0935 27.584 17.2607 27.3886 17.3769C27.2556 17.4521 27.1039 17.4874 26.9514 17.4788C26.7989 17.4701 26.6522 17.4178 26.5286 17.3281L20 12.9473V9.54093L26.5274 5.16094C26.6518 5.07252 26.7986 5.02103 26.9509 5.0124C27.1033 5.00377 27.255 5.03834 27.3886 5.11214C27.5839 5.22826 27.744 5.39532 27.8517 5.59542C27.9594 5.79552 28.0106 6.02114 28 6.24813V16.2401Z" fill="white" stroke="white" stroke-width="0.7"/>
</svg>
