<svg width="30" height="33" viewBox="0 0 30 33" fill="none" xmlns="http://www.w3.org/2000/svg">
<path d="M15 1.18262V2.2363" stroke="white" stroke-width="2" stroke-miterlimit="10" stroke-linecap="round" stroke-linejoin="round"/>
<path d="M24.6362 4.99707L23.8516 5.78169" stroke="white" stroke-width="2" stroke-miterlimit="10" stroke-linecap="round" stroke-linejoin="round"/>
<path d="M28.2802 14.6338H27.2266" stroke="white" stroke-width="2" stroke-miterlimit="10" stroke-linecap="round" stroke-linejoin="round"/>
<path d="M1.7207 14.6338H2.77439" stroke="white" stroke-width="2" stroke-miterlimit="10" stroke-linecap="round" stroke-linejoin="round"/>
<path d="M5.36523 4.99707L6.14986 5.78169" stroke="white" stroke-width="2" stroke-miterlimit="10" stroke-linecap="round" stroke-linejoin="round"/>
<path d="M16.9892 31.3082H13.0147C12.1566 31.3082 11.4609 30.6125 11.4609 29.7544V26.6836H18.5429V29.7544C18.5429 30.6125 17.8473 31.3082 16.9892 31.3082Z" stroke="white" stroke-width="2" stroke-miterlimit="10" stroke-linecap="round" stroke-linejoin="round"/>
<path d="M15.002 26.3371V15.8838" stroke="white" stroke-width="2" stroke-miterlimit="10" stroke-linecap="round" stroke-linejoin="round"/>
<path d="M12.8301 14.5146C13.863 16.0651 16.141 16.0651 17.1739 14.5146" stroke="white" stroke-width="2" stroke-miterlimit="10" stroke-linecap="round" stroke-linejoin="round"/>
<path d="M23.7912 14.6974C23.7912 9.84273 19.8557 5.90723 15.0011 5.90723C10.1464 5.90723 6.21094 9.84273 6.21094 14.6974C6.21094 17.7577 7.77525 20.4524 10.1476 22.0265L10.1706 26.0635C10.1734 26.4067 10.4524 26.6834 10.7956 26.6834H19.2409C19.5861 26.6834 19.8659 26.4035 19.8659 26.0584V22.019C22.2318 20.4439 23.7912 17.7529 23.7912 14.6974Z" stroke="white" stroke-width="2" stroke-miterlimit="10" stroke-linecap="round" stroke-linejoin="round"/>
</svg>
