<svg width="61" height="52" viewBox="0 0 61 52" fill="none" xmlns="http://www.w3.org/2000/svg">
<path d="M27.37 25.2466L15.8775 36.7379C14.7291 37.8863 12.8664 37.8863 11.7168 36.7379C11.1426 36.1636 10.8555 35.4106 10.8555 34.6575C10.8555 33.9057 11.1426 33.1526 11.7168 32.5772L23.2093 21.0859" stroke="#5355DF" stroke-width="2.3" stroke-miterlimit="10" stroke-linecap="round" stroke-linejoin="round"/>
<path d="M27.3694 25.2471L15.877 36.7384C15.3027 37.3126 15.0156 38.0656 15.0156 38.8175C15.0156 39.5705 15.3027 40.3236 15.877 40.8978C17.0254 42.0474 18.8881 42.0474 20.0364 40.8978L22.0857 38.8487" stroke="#5355DF" stroke-width="2.3" stroke-miterlimit="10" stroke-linecap="round" stroke-linejoin="round"/>
<path d="M23.2106 21.0861L11.718 32.5774C10.5696 33.727 8.70691 33.727 7.55859 32.5774C6.98438 32.0031 6.69727 31.2501 6.69727 30.4982C6.69727 29.7452 6.98438 28.9921 7.55859 28.4179L24.1472 11.8293L24.1471 11.8272L30.2087 17.8888C31.5873 19.2674 33.8223 19.2674 35.2009 17.8888C36.5795 16.5102 36.5795 14.2752 35.2009 12.8967L30.1752 7.87095M30.1752 7.87095L30.1729 7.87329M30.1752 7.87095L31.9061 6.14009C38.1059 -0.0597168 48.1534 -0.0597168 54.3533 6.14009C56.9385 8.72524 58.4446 11.9764 58.8717 15.3392C59.4742 20.0458 57.9681 24.9726 54.3533 28.5872L45.3224 37.167" stroke="#5355DF" stroke-width="2.3" stroke-miterlimit="10" stroke-linecap="round" stroke-linejoin="round"/>
<path d="M32.841 49.6476C31.6922 50.7964 29.8296 50.7964 28.6808 49.6476L22.0667 43.0335C20.9179 41.8847 20.9179 40.0221 22.0667 38.8733C23.2155 37.7245 25.078 37.7245 26.2268 38.8733L32.841 45.4875C33.9898 46.6363 33.9898 48.4989 32.841 49.6476Z" stroke="#5355DF" stroke-width="2.3" stroke-miterlimit="10" stroke-linecap="round" stroke-linejoin="round"/>
<path d="M37.0012 45.4875C35.8524 46.6363 33.9898 46.6363 32.841 45.4875L26.2268 38.8733C25.078 37.7245 25.078 35.8619 26.2268 34.7132C27.3756 33.5644 29.2382 33.5644 30.387 34.7132L37.0012 41.3273C38.15 42.4761 38.15 44.3387 37.0012 45.4875Z" stroke="#5355DF" stroke-width="2.3" stroke-miterlimit="10" stroke-linecap="round" stroke-linejoin="round"/>
<path d="M41.1613 41.3273C40.0125 42.4761 38.15 42.4761 37.0012 41.3273L30.387 34.7132C29.2382 33.5644 29.2382 31.7018 30.387 30.553C31.5358 29.4042 33.3983 29.4042 34.5471 30.553L41.1613 37.1672C42.3101 38.3161 42.3101 40.1785 41.1613 41.3273Z" stroke="#5355DF" stroke-width="2.3" stroke-miterlimit="10" stroke-linecap="round" stroke-linejoin="round"/>
<path d="M45.3215 37.1672C44.1727 38.316 42.3101 38.316 41.1613 37.1672L34.5471 30.553C33.3983 29.4042 33.3983 27.5416 34.5471 26.3928C35.6959 25.2441 37.5585 25.2441 38.7073 26.3928L45.3215 33.007C46.4703 34.1558 46.4703 36.0184 45.3215 37.1672Z" stroke="#5355DF" stroke-width="2.3" stroke-miterlimit="10" stroke-linecap="round" stroke-linejoin="round"/>
<path d="M7.55773 28.4179L24.1463 11.8293L24.1462 11.8272L30.2079 17.8888C31.5864 19.2674 33.8214 19.2674 35.2 17.8888C36.5786 16.5102 36.5786 14.2752 35.2 12.8967L29.1384 6.83501L30.1743 7.87095L30.172 7.87329L28.4388 6.14009C22.2402 -0.0597168 12.1914 -0.0597168 5.99152 6.14009C3.40754 8.72524 1.90027 11.9775 1.47313 15.3392C1.38605 16.01 1.34375 16.6865 1.34375 17.3631C1.34375 21.4261 2.89227 25.488 5.99152 28.5874L6.8975 29.4298L7.55773 28.4179Z" stroke="#5355DF" stroke-width="2.3" stroke-miterlimit="10" stroke-linecap="round" stroke-linejoin="round"/>
</svg>
