<svg width="28" height="27" viewBox="0 0 28 27" fill="none" xmlns="http://www.w3.org/2000/svg">
<path fill-rule="evenodd" clip-rule="evenodd" d="M7.75 2.58691C4.81599 2.58691 2.4375 4.9654 2.4375 7.89941V24.0487C2.4375 24.3107 2.7406 24.4563 2.94521 24.2927L6.47956 21.4652C7.08908 20.9775 7.8464 20.7119 8.62695 20.7119H20.25C23.184 20.7119 25.5625 18.3334 25.5625 15.3994V7.89941C25.5625 4.9654 23.184 2.58691 20.25 2.58691H7.75ZM0.5625 7.89941C0.5625 3.92986 3.78045 0.711914 7.75 0.711914H20.25C24.2195 0.711914 27.4375 3.92986 27.4375 7.89941V15.3994C27.4375 19.3689 24.2195 22.5869 20.25 22.5869H8.62695C8.27215 22.5869 7.92791 22.7077 7.65086 22.9293L4.11653 25.7568C2.68423 26.9027 0.5625 25.8829 0.5625 24.0487V7.89941Z" fill="white"/>
<path d="M9.375 11.7114C9.375 12.5744 8.67544 13.2739 7.8125 13.2739C6.94955 13.2739 6.25 12.5744 6.25 11.7114C6.25 10.8484 6.94955 10.1489 7.8125 10.1489C8.67544 10.1489 9.375 10.8484 9.375 11.7114Z" fill="white"/>
<path d="M15.625 11.7114C15.625 12.5744 14.9255 13.2739 14.0625 13.2739C13.1996 13.2739 12.5 12.5744 12.5 11.7114C12.5 10.8484 13.1996 10.1489 14.0625 10.1489C14.9255 10.1489 15.625 10.8484 15.625 11.7114Z" fill="white"/>
<path d="M21.875 11.7114C21.875 12.5744 21.1755 13.2739 20.3125 13.2739C19.4496 13.2739 18.75 12.5744 18.75 11.7114C18.75 10.8484 19.4496 10.1489 20.3125 10.1489C21.1755 10.1489 21.875 10.8484 21.875 11.7114Z" fill="white"/>
</svg>
