<svg width="155" height="99" viewBox="0 0 155 99" fill="none" xmlns="http://www.w3.org/2000/svg">
<path d="M92.947 68.7457C88.9343 62.3742 85.0855 55.8346 79.9762 50.4103C77.5133 47.7659 74.7818 45.4162 71.9172 43.6539C69.0964 41.8786 66.1364 41.383 63.44 39.3085C60.1794 36.7837 58.0416 32.923 57.672 28.8429C56.5959 16.4737 68.703 11.8997 77.1729 11.1519C91.8678 9.87537 108.807 22.9519 120.908 36.5712C129.906 46.6895 136.924 59.8053 137.047 72.6499C137.158 83.4743 132.136 91.6437 123.282 93.1731C115.588 94.5221 107.026 87.678 100.825 80.1278C97.9834 76.6204 95.4281 72.718 92.947 68.7457Z" fill="#F06091"/>
<path d="M17.2175 42.1324C26.3228 47.0359 37.6732 43.6406 42.5693 34.5489C47.4654 25.4572 44.053 14.112 34.9477 9.20853C25.8423 4.3051 14.4919 7.70035 9.59583 16.792C4.69977 25.8837 8.11209 37.229 17.2175 42.1324Z" fill="#F06091"/>
</svg>
