<svg width="116" height="90" viewBox="0 0 116 90" fill="none" xmlns="http://www.w3.org/2000/svg">
<path d="M69.4878 66.0689C66.4993 61.3237 63.6329 56.4532 59.8276 52.4134C57.9933 50.4439 55.959 48.6939 53.8255 47.3814C51.7247 46.0592 49.5202 45.6901 47.512 44.1451C45.0836 42.2647 43.4914 39.3894 43.2161 36.3506C42.4147 27.1385 51.4317 23.7319 57.7398 23.175C68.6841 22.2243 81.3001 31.9633 90.3119 42.1065C97.0138 49.6423 102.24 59.4104 102.332 68.9767C102.415 77.0383 98.6743 83.1226 92.08 84.2617C86.3501 85.2663 79.9736 80.1691 75.355 74.546C73.2388 71.9338 71.3356 69.0274 69.4878 66.0689Z" fill="#8AEADA"/>
<path d="M13.0895 46.2492C19.8709 49.9011 28.3243 47.3725 31.9707 40.6013C35.6172 33.8301 33.0758 25.3805 26.2944 21.7286C19.513 18.0767 11.0596 20.6053 7.41319 27.3765C3.76676 34.1477 6.30815 42.5973 13.0895 46.2492Z" fill="#8AEADA"/>
</svg>
