<svg width="72" height="69" viewBox="0 0 72 69" fill="none" xmlns="http://www.w3.org/2000/svg">
<path d="M57.8804 0.444355C58.4387 0.314797 59.0226 0.645215 59.1712 1.19818C59.1801 1.23663 59.4238 2.11189 59.7614 3.65411C59.8952 4.23077 59.5062 4.82748 58.9242 4.94228C58.3467 5.07631 57.7539 4.70745 57.6349 4.1071C57.3151 2.64177 57.0759 1.78572 57.0714 1.7665C56.9184 1.19431 57.2451 0.591782 57.8137 0.419312C57.8419 0.453288 57.8612 0.448823 57.8804 0.444355Z" fill="white"/>
<path d="M59.3798 7.95583C59.399 7.95137 59.4375 7.94243 59.4568 7.93796C60.0432 7.84238 60.6065 8.25862 60.7018 8.84421C60.964 10.5862 61.1685 12.3417 61.3301 14.0868C61.3869 14.6813 60.9416 15.2101 60.3462 15.2672C59.7508 15.3243 59.2216 14.88 59.1648 14.2854C59.0167 12.598 58.8166 10.8618 58.5485 9.18187C58.4769 8.61103 58.8408 8.08092 59.3798 7.95583ZM60.2882 18.3395C60.3652 18.3216 60.423 18.3082 60.5045 18.3096C61.1087 18.2909 61.6039 18.7634 61.6222 19.3669C61.6727 21.158 61.6373 22.9286 61.55 24.6505C61.5253 25.2437 61.0044 25.7089 60.4104 25.6847C59.8164 25.6605 59.3509 25.1406 59.3755 24.5474C59.457 22.8877 59.4821 21.16 59.4405 19.4073C59.4445 18.8999 59.807 18.4512 60.2882 18.3395ZM59.7585 28.7328C59.874 28.706 60.0132 28.6939 60.1421 28.7248C60.7302 28.8111 61.1572 29.34 61.0749 29.9466C60.8425 31.7426 60.5197 33.4988 60.1168 35.1724C59.987 35.7495 59.4008 36.1083 58.8038 35.9835C58.226 35.8543 57.8671 35.2691 57.9924 34.6728C58.3701 33.0659 58.6678 31.3762 58.8988 29.6615C58.9932 29.194 59.335 28.831 59.7585 28.7328ZM57.3638 38.8701C57.5563 38.8254 57.7622 38.8384 57.9814 38.9091C58.5533 39.1005 58.8398 39.7228 58.6477 40.294C58.0287 41.9975 57.3385 43.6567 56.54 45.1992C56.2576 45.7306 55.6165 45.9402 55.089 45.6777C54.557 45.396 54.3476 44.7559 54.6107 44.2289C55.3648 42.7575 56.0388 41.2033 56.6135 39.5709C56.7301 39.1995 57.0173 38.9505 57.3638 38.8701ZM52.631 48.1118C52.9197 48.0448 53.2353 48.0931 53.5006 48.2746C53.9882 48.6274 54.1013 49.2899 53.7715 49.7918C52.7346 51.2681 51.5746 52.6515 50.3494 53.9284C49.9202 54.3521 49.2345 54.3695 48.8149 53.9604C48.3909 53.5321 48.374 52.8473 48.7839 52.428C49.9455 51.2266 51.0226 49.9233 52.0004 48.5417C52.1483 48.3048 52.3807 48.1699 52.631 48.1118ZM45.432 55.5558C45.8362 55.4619 46.2748 55.6032 46.5417 55.9667C46.8976 56.4513 46.8094 57.12 46.3283 57.495C44.9296 58.5488 43.4123 59.5289 41.8298 60.4026C41.3072 60.6859 40.6346 60.4977 40.3512 59.976C40.0678 59.4543 40.2568 58.7825 40.7794 58.4991C42.2746 57.6862 43.7046 56.7669 45.0115 55.7546C45.1477 55.642 45.2779 55.5915 45.432 55.5558ZM21.1281 63.9509C21.1858 63.9375 21.2243 63.9286 21.2865 63.9344C23.0341 63.7719 24.7491 63.5562 26.3692 63.2815C26.9557 63.1859 27.5144 63.583 27.629 64.1641C27.7243 64.7497 27.3264 65.3079 26.7444 65.4227C25.0665 65.7108 23.2938 65.9399 21.484 66.0966C20.8886 66.1537 20.3595 65.7093 20.3026 65.1148C20.2547 64.5587 20.6083 64.0715 21.1281 63.9509ZM36.3482 60.5606C36.868 60.44 37.3999 60.7216 37.5974 61.2228C37.8082 61.7815 37.5481 62.4091 36.9884 62.62C35.3908 63.2541 33.6747 63.8144 31.9363 64.2786C31.3632 64.4319 30.7556 64.0867 30.6025 63.5145C30.4495 62.9423 30.7955 62.3354 31.3686 62.1821C33.0493 61.7313 34.6691 61.1933 36.1942 60.5963C36.2371 60.6066 36.2904 60.574 36.3482 60.5606Z" fill="white"/>
<path d="M13.4275 64.24C13.5045 64.2221 13.6008 64.1998 13.6867 64.2203C14.5013 64.2338 15.3308 64.2237 16.1172 64.2032C16.7215 64.1845 17.2166 64.6571 17.2157 65.265C17.234 65.8685 16.7605 66.3632 16.1518 66.3627C15.3223 66.3729 14.4929 66.3831 13.659 66.374C13.0503 66.3735 12.5699 65.8772 12.5753 65.2885C12.5986 64.7767 12.9655 64.3472 13.4275 64.24Z" fill="white"/>
</svg>
