<svg width="269" height="19" viewBox="0 0 269 19" fill="none" xmlns="http://www.w3.org/2000/svg">
<path d="M5.81503 9.58267C7.92051 9.58267 10.1263 9.48353 12.2317 9.38439C13.1341 9.38439 13.9362 9.28526 14.8385 9.28526C18.6484 9.08698 22.4583 8.88871 26.2683 8.69043C30.8803 8.49215 35.392 8.19474 40.004 7.99646C46.521 7.59991 53.0379 7.3025 59.5549 6.90595C61.0588 6.80681 62.5627 6.80681 64.0666 6.70767C67.8765 6.50939 71.6864 6.31112 75.4964 6.21198C79.3063 6.01371 83.1162 5.81543 86.9261 5.71629C88.43 5.61715 89.9339 5.51802 91.4378 5.51802C97.4535 5.31974 103.569 5.12146 109.585 4.92319C113.295 4.82405 117.004 4.72491 120.814 4.52664C122.318 4.52664 123.722 4.4275 125.226 4.4275C131.041 4.32836 136.956 4.22922 142.771 4.13008C148.587 4.03095 154.301 3.93181 160.117 3.83267C161.62 3.83267 163.124 3.83267 164.729 3.83267C168.538 3.83267 172.248 3.83267 176.058 3.83267C181.973 3.83267 187.789 3.83267 193.704 3.73353C195.609 3.73353 197.514 3.73353 199.419 3.73353C203.429 3.73353 207.44 3.73353 211.45 3.73353C211.751 3.73353 212.152 3.73353 212.453 3.73353C203.429 3.83267 194.306 3.93181 185.282 4.13008C181.472 4.22922 177.762 4.22922 173.953 4.32836C172.348 4.32836 170.644 4.32836 169.04 4.4275C163.525 4.52664 158.111 4.72491 152.597 4.82405C146.281 5.02233 139.964 5.12146 133.648 5.31974C132.545 5.31974 131.542 5.41888 130.439 5.41888C127.03 5.61715 123.722 5.71629 120.313 5.91457C113.495 6.21198 106.677 6.50939 99.8597 6.80681C98.8571 6.80681 97.8545 6.90595 96.8519 7.00508C93.5433 7.20336 90.1344 7.50077 86.8258 7.69905C80.8102 8.0956 74.8948 8.49215 68.8791 8.8887C67.2749 8.98784 65.5705 9.18612 63.9663 9.28526C60.1564 9.58267 56.3465 9.88008 52.5366 10.2766C47.7241 10.6732 42.8113 11.0697 37.9988 11.4663C31.2813 12.0611 24.4636 12.6559 17.7461 13.2508C16.1419 13.3499 14.5377 13.5482 12.8333 13.6473C9.92573 13.9447 7.01816 14.2422 4.1106 14.5396C3.80981 14.5396 3.50903 14.7378 3.50903 15.1344C3.50903 15.4318 3.80981 15.7292 4.1106 15.7292C5.21347 15.7292 6.21608 15.8284 7.31895 15.8284C7.11842 16.324 7.01816 16.6215 7.01816 16.9189C7.01816 18.0094 7.92051 19.0008 9.12364 19.0008C17.4453 18.5051 25.6667 17.9103 33.9883 17.5137C41.2071 17.2163 48.4259 16.8197 55.6447 16.5223C63.5653 16.1258 71.5862 15.7292 79.5068 15.4318C82.0133 15.3327 84.5198 15.2335 87.0264 15.0353C87.7282 15.0353 88.43 14.9361 89.2321 14.9361C102.065 14.6387 114.899 14.2422 127.732 13.9447C134.55 13.7465 141.468 13.5482 148.286 13.449C150.792 13.3499 153.199 13.3499 155.705 13.2508C168.839 13.0525 181.973 12.8542 195.108 12.6559C200.722 12.5568 206.337 12.4577 211.951 12.3585C216.764 12.2594 221.576 12.2594 226.389 12.0611C230.399 11.962 234.31 11.7637 238.32 11.6646C240.325 11.5654 242.33 11.5654 244.235 11.4663C248.747 11.1689 253.259 10.8715 257.771 10.574C257.47 10.9706 257.47 11.5654 257.57 11.962C257.67 12.4577 257.971 12.8542 258.472 13.0525C258.874 13.2508 259.475 13.449 259.876 13.2508C260.879 12.8542 261.881 12.4577 262.784 12.0611C262.784 12.0611 262.784 12.0611 262.683 12.0611C262.784 12.0611 262.784 11.962 262.884 11.962C262.984 11.962 263.084 11.8628 263.084 11.8628H262.984C263.486 11.6646 263.987 11.4663 264.588 11.1689C265.09 10.9706 265.691 10.6732 266.193 10.4749C266.794 10.1775 267.295 9.88008 267.897 9.58267C268.499 9.28526 268.9 8.49215 268.9 7.79819C268.9 7.40164 268.799 7.10422 268.599 6.70767C268.398 6.31112 267.897 5.81543 267.396 5.71629C266.894 5.61715 266.393 5.51802 265.892 5.51802C265.792 5.51802 265.691 5.51802 265.591 5.51802C265.29 5.51802 264.889 5.51802 264.588 5.61715C263.786 5.71629 263.084 5.81543 262.282 5.81543C261.681 5.81543 261.079 5.91457 260.377 5.91457C258.673 6.0137 257.069 6.11284 255.364 6.31112C254.963 6.31112 254.462 6.41026 254.061 6.41026C254.262 6.21198 254.362 6.0137 254.362 5.81543C254.462 5.61715 254.462 5.41888 254.462 5.2206C254.462 5.12146 254.462 4.92319 254.562 4.82405C254.562 4.62577 254.562 4.4275 254.462 4.32836C254.462 4.32836 254.562 4.32836 254.562 4.22922C254.863 4.03095 255.164 3.83267 255.364 3.43612C255.565 3.13871 255.665 2.74215 255.665 2.3456C255.665 1.94905 255.565 1.65164 255.364 1.25508C255.264 1.15595 255.164 0.957671 255.064 0.858533C254.763 0.561119 254.462 0.461981 254.161 0.362843C253.56 0.164568 252.858 0.0654297 252.156 0.0654297C251.554 0.0654297 251.053 0.0654297 250.452 0.0654297C249.65 0.0654297 248.847 0.0654297 248.045 0.0654297C246.942 0.0654297 245.739 0.0654297 244.636 0.0654297C241.629 0.0654297 238.621 0.0654297 235.613 0.0654297C232.806 0.0654297 229.898 0.0654297 227.091 0.0654297C224.484 0.0654297 221.978 0.0654297 219.371 0.0654297C209.044 0.0654297 198.817 0.164568 188.49 0.263706C180.77 0.362843 173.05 0.461981 165.33 0.461981C161.921 0.461981 158.412 0.561119 155.003 0.660257C147.283 0.858533 139.563 0.957671 131.843 1.15595C129.637 1.15595 127.431 1.25508 125.226 1.25508C123.922 1.25508 122.719 1.35422 121.416 1.35422C113.796 1.65164 106.176 1.94905 98.5564 2.24646C96.2504 2.3456 93.9444 2.44474 91.5381 2.54388C90.2347 2.54388 88.9313 2.64302 87.6279 2.74215C80.0081 3.13871 72.4885 3.53526 64.8687 3.93181C60.9585 4.13008 57.0483 4.32836 53.1382 4.62577C46.4207 5.02233 39.7032 5.41888 33.086 5.91457C27.2709 6.31112 21.4557 6.60853 15.6406 6.90595C14.7383 7.00508 13.8359 7.00508 12.8333 7.10422C11.3294 7.20336 9.82547 7.20336 8.32156 7.3025C7.01816 7.69905 5.61451 7.69905 4.31112 7.69905C4.21086 7.3025 3.80981 7.00508 3.50903 7.10422C2.60668 7.10422 1.8046 7.20336 0.902249 7.3025C0.501205 7.40164 0.100162 7.59991 -9.92082e-05 7.99646C-0.10036 8.49215 0.200423 8.98784 0.601466 9.08698C1.00251 9.18612 1.40355 9.28526 1.8046 9.38439C2.20564 9.48353 2.50642 9.48353 2.90747 9.48353C3.91008 9.58267 4.81242 9.58267 5.81503 9.58267ZM240.426 6.41026C241.629 6.41026 242.932 6.41026 244.135 6.41026C244.235 6.70767 244.436 6.90595 244.636 7.10422C244.135 7.10422 243.634 7.20336 243.233 7.20336C242.33 7.20336 241.428 7.3025 240.526 7.3025C236.515 7.40164 232.605 7.59991 228.595 7.69905C226.79 7.79819 224.985 7.89733 223.181 7.89733C220.373 7.89733 217.466 7.99646 214.658 7.99646C208.142 8.0956 201.725 8.19474 195.208 8.29388C182.575 8.49215 170.042 8.69043 157.41 8.8887C148.386 8.98784 139.363 9.28526 130.339 9.58267C116.804 9.97922 103.168 10.2766 89.6331 10.6732C86.9261 10.7723 84.219 10.8715 81.512 11.0697C73.7919 11.4663 66.0718 11.7637 58.3517 12.1603C50.8322 12.5568 43.2123 12.8542 35.6928 13.2508C34.991 13.2508 34.2891 13.3499 33.5873 13.3499C35.5925 13.1516 37.698 13.0525 39.7032 12.8542C46.8217 12.3585 53.9403 11.7637 61.0588 11.268C63.5653 11.0697 66.0718 10.8715 68.4781 10.6732C69.7815 10.574 71.0849 10.4749 72.288 10.4749C79.8076 10.0784 87.2269 9.58267 94.6462 9.18612C96.0498 9.08698 97.5537 8.98784 98.9574 8.8887C101.063 8.78957 103.168 8.69043 105.174 8.69043C112.793 8.39301 120.413 8.0956 128.033 7.79819C129.737 7.69905 131.442 7.69905 133.046 7.59991C133.447 7.59991 133.948 7.59991 134.349 7.59991C135.553 7.59991 136.756 7.59991 137.859 7.50077C145.478 7.3025 153.199 7.20336 160.818 7.00508C164.327 6.90595 167.837 6.80681 171.346 6.80681C182.675 6.70767 194.105 6.60853 205.434 6.50939C217.265 6.50939 228.896 6.41026 240.426 6.41026Z" fill="#FFC961"/>
</svg>
