<svg width="389" height="28" viewBox="0 0 389 28" fill="none" xmlns="http://www.w3.org/2000/svg">
<path d="M8.41 13.776C11.4547 13.776 14.6444 13.6294 17.6892 13.4829C18.994 13.4829 20.1539 13.3363 21.4588 13.3363C26.9683 13.0432 32.4778 12.7501 37.9873 12.457C44.6567 12.1639 51.1812 11.7243 57.8506 11.4312C67.2747 10.845 76.6989 10.4053 86.123 9.8191C88.2978 9.67255 90.4726 9.67255 92.6474 9.526C98.1569 9.23289 103.666 8.93979 109.176 8.79324C114.685 8.50013 120.195 8.20703 125.704 8.06048C127.879 7.91393 130.054 7.76738 132.229 7.76738C140.928 7.47427 149.772 7.18117 158.471 6.88806C163.836 6.74151 169.201 6.59496 174.71 6.30186C176.885 6.30186 178.915 6.15531 181.089 6.15531C189.499 6.00875 198.053 5.8622 206.462 5.71565C214.871 5.5691 223.136 5.42255 231.545 5.276C233.72 5.276 235.895 5.276 238.214 5.276C243.724 5.276 249.088 5.276 254.598 5.276C263.152 5.276 271.561 5.276 280.116 5.12944C282.87 5.12944 285.625 5.12944 288.38 5.12944C294.179 5.12944 299.979 5.12944 305.778 5.12944C306.213 5.12944 306.793 5.12944 307.228 5.12944C294.179 5.276 280.985 5.42255 267.937 5.71565C262.427 5.8622 257.063 5.8622 251.553 6.00875C249.233 6.00875 246.769 6.00875 244.449 6.15531C236.474 6.30186 228.645 6.59496 220.671 6.74151C211.537 7.03462 202.403 7.18117 193.268 7.47427C191.674 7.47427 190.224 7.62082 188.629 7.62082C183.699 7.91393 178.915 8.06048 173.985 8.35358C164.126 8.79324 154.267 9.23289 144.408 9.67255C142.958 9.67255 141.508 9.8191 140.058 9.96565C135.274 10.2588 130.344 10.6984 125.559 10.9915C116.86 11.5777 108.306 12.1639 99.6068 12.7501C97.287 12.8967 94.8222 13.1898 92.5024 13.3363C86.9929 13.776 81.4834 14.2157 75.9739 14.8019C69.0145 15.3881 61.9102 15.9743 54.9508 16.5605C45.2367 17.4398 35.3776 18.3191 25.6634 19.1984C23.3437 19.345 21.0239 19.6381 18.5591 19.7846C14.3545 20.2243 10.1498 20.6639 5.94522 21.1036C5.51026 21.1036 5.0753 21.3967 5.0753 21.9829C5.0753 22.4225 5.51026 22.8622 5.94522 22.8622C7.54008 22.8622 8.98995 23.0088 10.5848 23.0088C10.2948 23.7415 10.1498 24.1812 10.1498 24.6208C10.1498 26.2329 11.4547 27.6984 13.1946 27.6984C25.2285 26.9657 37.1174 26.0863 49.1513 25.5001C59.5904 25.0605 70.0295 24.4743 80.4685 24.0346C91.9225 23.4484 103.521 22.8622 114.975 22.4225C118.6 22.276 122.225 22.1294 125.849 21.8363C126.864 21.8363 127.879 21.6898 129.039 21.6898C147.597 21.2501 166.156 20.6639 184.714 20.2243C194.573 19.9312 204.577 19.6381 214.436 19.4915C218.061 19.345 221.541 19.345 225.165 19.1984C244.159 18.9053 263.152 18.6122 282.145 18.3191C290.265 18.1725 298.384 18.026 306.503 17.8794C313.463 17.7329 320.422 17.7329 327.381 17.4398C333.181 17.2932 338.835 17.0001 344.635 16.8536C347.534 16.707 350.434 16.707 353.189 16.5605C359.713 16.1208 366.238 15.6812 372.762 15.2415C372.327 15.8277 372.327 16.707 372.472 17.2932C372.617 18.026 373.052 18.6122 373.777 18.9053C374.357 19.1984 375.227 19.4915 375.807 19.1984C377.257 18.6122 378.707 18.026 380.012 17.4398C380.012 17.4398 380.012 17.4398 379.867 17.4398C380.012 17.4398 380.012 17.2932 380.157 17.2932C380.302 17.2932 380.447 17.1467 380.447 17.1467H380.302C381.026 16.8536 381.751 16.5605 382.621 16.1208C383.346 15.8277 384.216 15.3881 384.941 15.095C385.811 14.6553 386.536 14.2157 387.406 13.776C388.276 13.3363 388.856 12.1639 388.856 11.1381C388.856 10.5519 388.711 10.1122 388.421 9.526C388.131 8.93979 387.406 8.20703 386.681 8.06048C385.956 7.91393 385.231 7.76738 384.506 7.76738C384.361 7.76738 384.216 7.76738 384.071 7.76738C383.636 7.76738 383.056 7.76738 382.621 7.91393C381.461 8.06048 380.447 8.20703 379.287 8.20703C378.417 8.20703 377.547 8.35358 376.532 8.35358C374.067 8.50013 371.747 8.64669 369.283 8.93979C368.703 8.93979 367.978 9.08634 367.398 9.08634C367.688 8.79324 367.833 8.50013 367.833 8.20703C367.978 7.91393 367.978 7.62082 367.978 7.32772C367.978 7.18117 367.978 6.88806 368.123 6.74151C368.123 6.44841 368.123 6.15531 367.978 6.00875C367.978 6.00875 368.123 6.00875 368.123 5.8622C368.558 5.5691 368.993 5.276 369.283 4.68979C369.572 4.25013 369.717 3.66393 369.717 3.07772C369.717 2.49151 369.572 2.05186 369.283 1.46565C369.138 1.3191 368.993 1.026 368.848 0.879445C368.413 0.43979 367.978 0.293238 367.543 0.146686C366.673 -0.146417 365.658 -0.292969 364.643 -0.292969C363.773 -0.292969 363.048 -0.292969 362.178 -0.292969C361.018 -0.292969 359.858 -0.292969 358.698 -0.292969C357.104 -0.292969 355.364 -0.292969 353.769 -0.292969C349.419 -0.292969 345.07 -0.292969 340.72 -0.292969C336.66 -0.292969 332.456 -0.292969 328.396 -0.292969C324.627 -0.292969 321.002 -0.292969 317.232 -0.292969C302.299 -0.292969 287.51 -0.146417 272.576 0.000134677C261.412 0.146686 250.248 0.293238 239.084 0.293238C234.155 0.293238 229.08 0.43979 224.151 0.586342C212.987 0.879445 201.823 1.026 190.659 1.3191C187.469 1.3191 184.279 1.46565 181.089 1.46565C179.205 1.46565 177.465 1.6122 175.58 1.6122C164.561 2.05186 153.542 2.49151 142.523 2.93117C139.188 3.07772 135.854 3.22427 132.374 3.37082C130.489 3.37082 128.604 3.51738 126.719 3.66393C115.7 4.25013 104.826 4.83634 93.8073 5.42255C88.1528 5.71565 82.4983 6.00875 76.8438 6.44841C67.1297 7.03462 57.4156 7.62082 47.8465 8.35358C39.4372 8.93979 31.028 9.37944 22.6187 9.8191C21.3138 9.96565 20.009 9.96565 18.5591 10.1122C16.3843 10.2588 14.2095 10.2588 12.0347 10.4053C10.1498 10.9915 8.12003 10.9915 6.2352 10.9915C6.09021 10.4053 5.51026 9.96565 5.0753 10.1122C3.77042 10.1122 2.61052 10.2588 1.30564 10.4053C0.725692 10.5519 0.145744 10.845 0.000756865 11.4312C-0.14423 12.1639 0.290731 12.8967 0.870679 13.0432C1.45063 13.1898 2.03057 13.3363 2.61052 13.4829C3.19047 13.6294 3.62543 13.6294 4.20538 13.6294C5.65525 13.776 6.96013 13.776 8.41 13.776ZM347.679 9.08634C349.419 9.08634 351.304 9.08634 353.044 9.08634C353.189 9.526 353.479 9.8191 353.769 10.1122C353.044 10.1122 352.319 10.2588 351.739 10.2588C350.434 10.2588 349.129 10.4053 347.824 10.4053C342.025 10.5519 336.37 10.845 330.571 10.9915C327.961 11.1381 325.351 11.2846 322.742 11.2846C318.682 11.2846 314.477 11.4312 310.418 11.4312C300.994 11.5777 291.715 11.7243 282.29 11.8708C264.022 12.1639 245.899 12.457 227.63 12.7501C214.581 12.8967 201.533 13.3363 188.484 13.776C168.911 14.3622 149.192 14.8019 129.619 15.3881C125.704 15.5346 121.79 15.6812 117.875 15.9743C106.711 16.5605 95.5472 17.0001 84.3832 17.5863C73.5091 18.1725 62.4901 18.6122 51.6161 19.1984C50.6012 19.1984 49.5863 19.345 48.5714 19.345C51.4711 19.0519 54.5159 18.9053 57.4156 18.6122C67.7097 17.8794 78.0037 17.0001 88.2978 16.2674C91.9225 15.9743 95.5472 15.6812 99.0268 15.3881C100.912 15.2415 102.797 15.095 104.536 15.095C115.41 14.5088 126.139 13.776 136.868 13.1898C138.898 13.0432 141.073 12.8967 143.103 12.7501C146.148 12.6036 149.192 12.457 152.092 12.457C163.111 12.0174 174.13 11.5777 185.149 11.1381C187.614 10.9915 190.079 10.9915 192.398 10.845C192.978 10.845 193.703 10.845 194.283 10.845C196.023 10.845 197.763 10.845 199.358 10.6984C210.377 10.4053 221.541 10.2588 232.56 9.96565C237.634 9.8191 242.709 9.67255 247.783 9.67255C264.167 9.526 280.695 9.37944 297.079 9.23289C314.187 9.23289 331.006 9.08634 347.679 9.08634Z" fill="#FFC961"/>
</svg>
