<svg width="93" height="59" viewBox="0 0 93 59" fill="none" xmlns="http://www.w3.org/2000/svg">
<path d="M37.6768 40.9784C40.0802 37.1622 42.3854 33.2453 45.4457 29.9965C46.9208 28.4126 48.5568 27.0052 50.2725 25.9497C51.9621 24.8864 53.7349 24.5895 55.3499 23.347C57.3029 21.8348 58.5833 19.5224 58.8047 17.0787C59.4492 9.67019 52.1977 6.93059 47.1247 6.4827C38.3232 5.71813 28.1773 13.5503 20.9299 21.7075C15.5402 27.7679 11.3369 35.6236 11.263 43.3168C11.1964 49.8 14.2048 54.6931 19.508 55.6091C24.116 56.4171 29.244 52.3178 32.9583 47.7957C34.6602 45.695 36.1908 43.3576 37.6768 40.9784Z" fill="#F06091"/>
<path d="M83.0338 25.0394C77.5802 27.9763 70.7819 25.9427 67.8494 20.4973C64.9169 15.0518 66.9607 8.25659 72.4144 5.31968C77.868 2.38278 84.6663 4.41636 87.5988 9.86181C90.5313 15.3073 88.4875 22.1025 83.0338 25.0394Z" fill="#F06091"/>
</svg>
