<svg width="692" height="676" viewBox="0 0 692 676" fill="none" xmlns="http://www.w3.org/2000/svg">
<path opacity="0.3" d="M209.962 64.4286C280.73 -20.588 411.27 -20.588 482.038 64.4286L493.416 78.0975C512.256 100.732 536.447 118.308 563.796 129.232L580.312 135.829C683.036 176.861 723.375 301.012 664.388 394.588L654.904 409.633C639.199 434.546 629.959 462.984 628.021 492.37L626.85 510.116C619.57 620.492 513.961 697.222 406.737 670.038L389.497 665.668C360.951 658.43 331.049 658.43 302.503 665.668L285.263 670.038C178.039 697.222 72.4304 620.492 65.1496 510.116L63.979 492.37C62.0406 462.984 52.8006 434.546 37.0961 409.633L27.6122 394.588C-31.375 301.012 8.96414 176.861 111.688 135.829L128.204 129.232C155.553 118.308 179.744 100.732 198.584 78.0975L209.962 64.4286Z" fill="#7B7DFF"/>
</svg>
