<svg width="1920" height="649" viewBox="0 0 1920 649" fill="none" xmlns="http://www.w3.org/2000/svg">
<mask id="mask0_1218_13347" style="mask-type:alpha" maskUnits="userSpaceOnUse" x="0" y="0" width="1920" height="649">
<rect width="1920" height="648.952" fill="#F7F8FA"/>
</mask>
<g mask="url(#mask0_1218_13347)">
<g style="mix-blend-mode:luminosity" opacity="0.08">
<path d="M207.859 545.879L390.311 602.871" stroke="#132E65" stroke-width="1.5"/>
<path d="M207.859 545.879L222.719 768.682" stroke="#132E65" stroke-width="1.5"/>
<path d="M207.865 545.879L56.1211 731.107" stroke="#132E65" stroke-width="1.5"/>
<path d="M207.859 545.879L381.273 730.317" stroke="#132E65" stroke-width="1.5"/>
<path d="M207.862 545.879L162.02 898.659" stroke="#132E65" stroke-width="1.5"/>
<path d="M390.315 602.87L381.277 730.317" stroke="#132E65" stroke-width="1.5"/>
<path d="M390.316 602.87L559.941 745.429" stroke="#132E65" stroke-width="1.5"/>
<path d="M390.314 602.87L222.723 768.682" stroke="#132E65" stroke-width="1.5"/>
<path d="M691.242 576.997L717.896 785.421" stroke="#132E65" stroke-width="1.5"/>
<path d="M691.242 576.997L897.35 625.746" stroke="#132E65" stroke-width="1.5"/>
<path d="M848.281 421.672L897.351 625.745" stroke="#132E65" stroke-width="1.5"/>
<path d="M848.281 421.672L1059.15 394.836" stroke="#132E65" stroke-width="1.5"/>
<path d="M848.28 421.672L691.242 576.996" stroke="#132E65" stroke-width="1.5"/>
<path d="M848.281 421.672L1084.58 259.066" stroke="#132E65" stroke-width="1.5"/>
<path d="M897.348 625.745L1061.22 717.804" stroke="#132E65" stroke-width="1.5"/>
<path d="M897.348 625.745L1086.6 611.343" stroke="#132E65" stroke-width="1.5"/>
<path d="M918.34 937.058L897.348 625.745" stroke="#132E65" stroke-width="1.5"/>
<path d="M1084.58 259.065L1191.96 206.95" stroke="#132E65" stroke-width="1.5"/>
<path d="M1084.58 259.066L1059.16 394.837" stroke="#132E65" stroke-width="1.5"/>
<path d="M1084.58 259.065L1199.09 99.4932" stroke="#132E65" stroke-width="1.5"/>
<path d="M1084.58 259.066L1256.66 411.449" stroke="#132E65" stroke-width="1.5"/>
<path d="M1059.16 394.836L1256.66 411.448" stroke="#132E65" stroke-width="1.5"/>
<path d="M1059.16 394.836L1086.6 611.342" stroke="#132E65" stroke-width="1.5"/>
<path d="M1059.16 394.835L1191.96 206.95" stroke="#132E65" stroke-width="1.5"/>
<path d="M1086.6 611.343L1061.22 717.804" stroke="#132E65" stroke-width="1.5"/>
<path d="M1086.6 611.342L1214.86 602.572" stroke="#132E65" stroke-width="1.5"/>
<path d="M1086.6 611.343L1256.66 411.448" stroke="#132E65" stroke-width="1.5"/>
<path d="M1061.22 717.803L1214.86 602.572" stroke="#132E65" stroke-width="1.5"/>
<path d="M1199.09 99.4932L1191.96 206.951" stroke="#132E65" stroke-width="1.5"/>
<path d="M1199.09 99.4935L1364.54 63.6133" stroke="#132E65" stroke-width="1.5"/>
<path d="M1199.09 99.4932L1370.59 206.516" stroke="#132E65" stroke-width="1.5"/>
<path d="M1199.09 99.4932L1256.66 411.447" stroke="#132E65" stroke-width="1.5"/>
<path d="M1199.1 99.4932L1059.16 394.835" stroke="#132E65" stroke-width="1.5"/>
<path d="M1191.96 206.952L1370.59 206.517" stroke="#132E65" stroke-width="1.5"/>
<path d="M1191.96 206.95L1256.66 411.447" stroke="#132E65" stroke-width="1.5"/>
<path d="M1191.96 206.951L1364.54 63.6133" stroke="#132E65" stroke-width="1.5"/>
<path d="M1256.66 411.448L1430.34 448.393" stroke="#132E65" stroke-width="1.5"/>
<path d="M1256.66 411.448L1214.86 602.573" stroke="#132E65" stroke-width="1.5"/>
<path d="M1256.66 411.448L1370.59 206.517" stroke="#132E65" stroke-width="1.5"/>
<path d="M1214.86 602.572L1386.64 609.19" stroke="#132E65" stroke-width="1.5"/>
<path d="M1263.68 908.665L1214.86 602.572" stroke="#132E65" stroke-width="1.5"/>
<path d="M1364.54 63.6133L1370.59 206.516" stroke="#132E65" stroke-width="1.5"/>
<path d="M1364.54 63.6133L1608.04 96.2306" stroke="#132E65" stroke-width="1.5"/>
<path d="M1364.54 63.6133L1609.24 216.545" stroke="#132E65" stroke-width="1.5"/>
<path d="M1430.34 448.393L1386.64 609.19" stroke="#132E65" stroke-width="1.5"/>
<path d="M1430.34 448.393L1605.29 550.343" stroke="#132E65" stroke-width="1.5"/>
<path d="M1430.34 448.393L1370.59 206.517" stroke="#132E65" stroke-width="1.5"/>
<path d="M1430.34 448.393L1214.86 602.572" stroke="#132E65" stroke-width="1.5"/>
<path d="M1430.34 448.394L1609.24 216.546" stroke="#132E65" stroke-width="1.5"/>
<path d="M1386.64 609.189L1364.61 783.187" stroke="#132E65" stroke-width="1.5"/>
<path d="M1386.64 609.189L1562.29 748.085" stroke="#132E65" stroke-width="1.5"/>
<path d="M1364.61 783.187L1214.86 602.572" stroke="#132E65" stroke-width="1.5"/>
<path d="M1391.49 906.398L1386.64 609.189" stroke="#132E65" stroke-width="1.5"/>
<path d="M1391.49 906.398L1214.86 602.572" stroke="#132E65" stroke-width="1.5"/>
<path d="M1608.05 96.2314L1712.03 111.538" stroke="#132E65" stroke-width="1.5"/>
<path d="M1608.05 96.2314L1609.25 216.546" stroke="#132E65" stroke-width="1.5"/>
<path d="M1608.05 96.2314L1777.2 233.272" stroke="#132E65" stroke-width="1.5"/>
<path d="M1609.24 216.546L1712.03 111.538" stroke="#132E65" stroke-width="1.5"/>
<path d="M1609.24 216.546L1777.2 233.272" stroke="#132E65" stroke-width="1.5"/>
<path d="M1609.24 216.546L1370.59 206.517" stroke="#132E65" stroke-width="1.5"/>
<path d="M1609.24 216.546L1776.83 439.75" stroke="#132E65" stroke-width="1.5"/>
<path d="M1605.29 550.343L1562.29 748.085" stroke="#132E65" stroke-width="1.5"/>
<path d="M1712.03 111.538L1777.2 233.272" stroke="#132E65" stroke-width="1.5"/>
<path d="M1712.03 111.537L1942.62 64.5635" stroke="#132E65" stroke-width="1.5"/>
<path d="M1712.03 111.538L1890.98 280.246" stroke="#132E65" stroke-width="1.5"/>
<path d="M1777.2 233.271L1890.98 280.246" stroke="#132E65" stroke-width="1.5"/>
<path d="M1777.2 233.271L1776.83 439.749" stroke="#132E65" stroke-width="1.5"/>
<path d="M1777.2 233.271L1929.33 383.513" stroke="#132E65" stroke-width="1.5"/>
<path d="M1776.83 439.749L1929.32 383.513" stroke="#132E65" stroke-width="1.5"/>
<path d="M1776.83 439.749L1890.98 280.246" stroke="#132E65" stroke-width="1.5"/>
<path d="M1776.84 439.749L1605.3 550.343" stroke="#132E65" stroke-width="1.5"/>
<path d="M1942.62 64.5635L1890.98 280.246" stroke="#132E65" stroke-width="1.5"/>
<path d="M1942.62 64.5635L1777.2 233.272" stroke="#132E65" stroke-width="1.5"/>
<path d="M1890.98 280.246L1929.32 383.513" stroke="#132E65" stroke-width="1.5"/>
<path d="M1929.32 383.513L1876.46 714.483" stroke="#132E65" stroke-width="1.5"/>
<path d="M1934.32 610.598L1876.46 714.483" stroke="#132E65" stroke-width="1.5"/>
<path d="M1934.32 610.598L1776.83 439.749" stroke="#132E65" stroke-width="1.5"/>
<path d="M1934.32 610.598L1725.49 720.517" stroke="#132E65" stroke-width="1.5"/>
<path d="M1934.32 610.598L1890.98 280.246" stroke="#132E65" stroke-width="1.5"/>
<path d="M1876.46 714.484L1776.83 439.749" stroke="#132E65" stroke-width="1.5"/>
<path d="M207.863 551.603C211.034 551.603 213.605 549.04 213.605 545.879C213.605 542.717 211.034 540.154 207.863 540.154C204.692 540.154 202.121 542.717 202.121 545.879C202.121 549.04 204.692 551.603 207.863 551.603Z" fill="#132E65"/>
<path d="M390.316 608.595C393.487 608.595 396.058 606.032 396.058 602.871C396.058 599.709 393.487 597.146 390.316 597.146C387.145 597.146 384.574 599.709 384.574 602.871C384.574 606.032 387.145 608.595 390.316 608.595Z" fill="#132E65"/>
<path d="M691.242 582.721C694.413 582.721 696.984 580.158 696.984 576.997C696.984 573.835 694.413 571.272 691.242 571.272C688.071 571.272 685.5 573.835 685.5 576.997C685.5 580.158 688.071 582.721 691.242 582.721Z" fill="#132E65"/>
<path d="M848.285 427.396C851.456 427.396 854.027 424.833 854.027 421.672C854.027 418.51 851.456 415.947 848.285 415.947C845.114 415.947 842.543 418.51 842.543 421.672C842.543 424.833 845.114 427.396 848.285 427.396Z" fill="#132E65"/>
<path d="M897.351 631.469C900.522 631.469 903.093 628.906 903.093 625.745C903.093 622.583 900.522 620.021 897.351 620.021C894.18 620.021 891.609 622.583 891.609 625.745C891.609 628.906 894.18 631.469 897.351 631.469Z" fill="#132E65"/>
<path d="M1084.58 264.79C1087.75 264.79 1090.32 262.228 1090.32 259.066C1090.32 255.905 1087.75 253.342 1084.58 253.342C1081.41 253.342 1078.84 255.905 1078.84 259.066C1078.84 262.228 1081.41 264.79 1084.58 264.79Z" fill="#132E65"/>
<path d="M1059.16 400.56C1062.33 400.56 1064.9 397.997 1064.9 394.836C1064.9 391.674 1062.33 389.111 1059.16 389.111C1055.98 389.111 1053.41 391.674 1053.41 394.836C1053.41 397.997 1055.98 400.56 1059.16 400.56Z" fill="#132E65"/>
<path d="M1086.6 617.066C1089.77 617.066 1092.34 614.503 1092.34 611.342C1092.34 608.18 1089.77 605.617 1086.6 605.617C1083.43 605.617 1080.86 608.18 1080.86 611.342C1080.86 614.503 1083.43 617.066 1086.6 617.066Z" fill="#132E65"/>
<path d="M1199.09 105.217C1202.26 105.217 1204.84 102.654 1204.84 99.4929C1204.84 96.3314 1202.26 93.7686 1199.09 93.7686C1195.92 93.7686 1193.35 96.3314 1193.35 99.4929C1193.35 102.654 1195.92 105.217 1199.09 105.217Z" fill="#132E65"/>
<path d="M1191.96 212.676C1195.13 212.676 1197.7 210.113 1197.7 206.952C1197.7 203.79 1195.13 201.228 1191.96 201.228C1188.79 201.228 1186.22 203.79 1186.22 206.952C1186.22 210.113 1188.79 212.676 1191.96 212.676Z" fill="#132E65"/>
<path d="M1256.66 417.172C1259.83 417.172 1262.41 414.609 1262.41 411.448C1262.41 408.287 1259.83 405.724 1256.66 405.724C1253.49 405.724 1250.92 408.287 1250.92 411.448C1250.92 414.609 1253.49 417.172 1256.66 417.172Z" fill="#132E65"/>
<path d="M1214.86 608.297C1218.03 608.297 1220.6 605.734 1220.6 602.573C1220.6 599.412 1218.03 596.849 1214.86 596.849C1211.69 596.849 1209.12 599.412 1209.12 602.573C1209.12 605.734 1211.69 608.297 1214.86 608.297Z" fill="#132E65"/>
<path d="M1370.59 212.241C1373.76 212.241 1376.33 209.678 1376.33 206.516C1376.33 203.355 1373.76 200.792 1370.59 200.792C1367.42 200.792 1364.85 203.355 1364.85 206.516C1364.85 209.678 1367.42 212.241 1370.59 212.241Z" fill="#132E65"/>
<path d="M1430.34 454.117C1433.51 454.117 1436.08 451.554 1436.08 448.392C1436.08 445.231 1433.51 442.668 1430.34 442.668C1427.17 442.668 1424.6 445.231 1424.6 448.392C1424.6 451.554 1427.17 454.117 1430.34 454.117Z" fill="#132E65"/>
<path d="M1386.64 614.915C1389.82 614.915 1392.39 612.352 1392.39 609.19C1392.39 606.029 1389.82 603.466 1386.64 603.466C1383.47 603.466 1380.9 606.029 1380.9 609.19C1380.9 612.352 1383.47 614.915 1386.64 614.915Z" fill="#132E65"/>
<path d="M1608.05 101.956C1611.22 101.956 1613.79 99.3927 1613.79 96.2312C1613.79 93.0697 1611.22 90.5068 1608.05 90.5068C1604.88 90.5068 1602.31 93.0697 1602.31 96.2312C1602.31 99.3927 1604.88 101.956 1608.05 101.956Z" fill="#132E65"/>
<path d="M1609.24 222.27C1612.41 222.27 1614.98 219.707 1614.98 216.546C1614.98 213.384 1612.41 210.821 1609.24 210.821C1606.07 210.821 1603.5 213.384 1603.5 216.546C1603.5 219.707 1606.07 222.27 1609.24 222.27Z" fill="#132E65"/>
<path d="M1605.3 556.069C1608.47 556.069 1611.04 553.506 1611.04 550.344C1611.04 547.183 1608.47 544.62 1605.3 544.62C1602.13 544.62 1599.55 547.183 1599.55 550.344C1599.55 553.506 1602.13 556.069 1605.3 556.069Z" fill="#132E65"/>
<path d="M1712.03 117.262C1715.2 117.262 1717.77 114.699 1717.77 111.538C1717.77 108.376 1715.2 105.813 1712.03 105.813C1708.86 105.813 1706.29 108.376 1706.29 111.538C1706.29 114.699 1708.86 117.262 1712.03 117.262Z" fill="#132E65"/>
<path d="M1777.2 238.996C1780.37 238.996 1782.94 236.433 1782.94 233.271C1782.94 230.11 1780.37 227.547 1777.2 227.547C1774.03 227.547 1771.46 230.11 1771.46 233.271C1771.46 236.433 1774.03 238.996 1777.2 238.996Z" fill="#132E65"/>
<path d="M1776.83 445.474C1780 445.474 1782.57 442.911 1782.57 439.75C1782.57 436.588 1780 434.025 1776.83 434.025C1773.66 434.025 1771.09 436.588 1771.09 439.75C1771.09 442.911 1773.66 445.474 1776.83 445.474Z" fill="#132E65"/>
<path d="M1890.98 285.97C1894.15 285.97 1896.72 283.407 1896.72 280.246C1896.72 277.084 1894.15 274.521 1890.98 274.521C1887.81 274.521 1885.24 277.084 1885.24 280.246C1885.24 283.407 1887.81 285.97 1890.98 285.97Z" fill="#132E65"/>
<path d="M852.125 780.669L887.506 595.967" stroke="#2448E3" stroke-width="1.5"/>
<path d="M852.126 780.669L740.367 624.085" stroke="#2448E3" stroke-width="1.5"/>
<path d="M1588.46 793.903L1535.51 620.855" stroke="#2448E3" stroke-width="1.5"/>
<path d="M1588.46 793.903L1736.66 592.143" stroke="#2448E3" stroke-width="1.5"/>
<path d="M1563.29 943.571L1535.51 620.855" stroke="#2448E3" stroke-width="1.5"/>
<path d="M740.367 624.085L887.507 595.967" stroke="#2448E3" stroke-width="1.5"/>
<path d="M740.373 624.085L672.367 781.86" stroke="#2448E3" stroke-width="1.5"/>
<path d="M672.367 781.859L887.513 595.967" stroke="#2448E3" stroke-width="1.5"/>
<path d="M887.508 595.967L1074.37 601.256" stroke="#2448E3" stroke-width="1.5"/>
<path d="M890.815 886.363L887.508 595.967" stroke="#2448E3" stroke-width="1.5"/>
<path d="M1074.37 601.256L1193.74 553.286" stroke="#2448E3" stroke-width="1.5"/>
<path d="M1074.37 601.256L1045.48 755.619" stroke="#2448E3" stroke-width="1.5"/>
<path d="M1074.37 601.256L1220.84 735.343" stroke="#2448E3" stroke-width="1.5"/>
<path d="M1193.74 553.286L1361.41 560.934" stroke="#2448E3" stroke-width="1.5"/>
<path d="M1193.74 553.286L1220.84 735.343" stroke="#2448E3" stroke-width="1.5"/>
<path d="M1193.74 553.286L1045.48 755.619" stroke="#2448E3" stroke-width="1.5"/>
<path d="M1391.7 387.955L1541.14 454.758" stroke="#2448E3" stroke-width="1.5"/>
<path d="M1391.7 387.955L1361.41 560.933" stroke="#2448E3" stroke-width="1.5"/>
<path d="M1391.7 387.955L1589.18 234.508" stroke="#2448E3" stroke-width="1.5"/>
<path d="M1391.7 387.955L1193.74 553.286" stroke="#2448E3" stroke-width="1.5"/>
<path d="M1391.7 387.955L1535.5 620.856" stroke="#2448E3" stroke-width="1.5"/>
<path d="M1361.41 560.934L1535.51 620.856" stroke="#2448E3" stroke-width="1.5"/>
<path d="M1361.41 560.933L1541.14 454.758" stroke="#2448E3" stroke-width="1.5"/>
<path d="M1361.42 560.934L1220.85 735.343" stroke="#2448E3" stroke-width="1.5"/>
<path d="M1604.32 106.181L1589.18 234.509" stroke="#2448E3" stroke-width="1.5"/>
<path d="M1604.32 106.18L1720.27 43.4521" stroke="#2448E3" stroke-width="1.5"/>
<path d="M1604.32 106.181L1893.97 228.533" stroke="#2448E3" stroke-width="1.5"/>
<path d="M1589.18 234.508L1541.14 454.758" stroke="#2448E3" stroke-width="1.5"/>
<path d="M1541.15 454.758L1535.51 620.856" stroke="#2448E3" stroke-width="1.5"/>
<path d="M1535.51 620.856L1736.67 592.143" stroke="#2448E3" stroke-width="1.5"/>
<path d="M1535.51 620.855L1755.92 716.269" stroke="#2448E3" stroke-width="1.5"/>
<path d="M1720.26 43.4521L1589.18 234.508" stroke="#2448E3" stroke-width="1.5"/>
<path d="M1779.15 379.495L1925.75 435.273" stroke="#2448E3" stroke-width="1.5"/>
<path d="M1779.15 379.495L1893.97 228.532" stroke="#2448E3" stroke-width="1.5"/>
<path d="M1779.15 379.495L1736.66 592.143" stroke="#2448E3" stroke-width="1.5"/>
<path d="M1736.66 592.143L1755.92 716.269" stroke="#2448E3" stroke-width="1.5"/>
<path d="M1736.66 592.143L1946.68 581.736" stroke="#2448E3" stroke-width="1.5"/>
<path d="M1755.92 716.27L1946.69 581.736" stroke="#2448E3" stroke-width="1.5"/>
<path d="M1952.26 87.6211L1893.96 228.532" stroke="#2448E3" stroke-width="1.5"/>
<path d="M1952.26 87.6211L1779.15 379.494" stroke="#2448E3" stroke-width="1.5"/>
<path d="M1952.26 87.6211L1604.32 106.179" stroke="#2448E3" stroke-width="1.5"/>
<path d="M1893.96 228.532L1925.75 435.273" stroke="#2448E3" stroke-width="1.5"/>
<path d="M1893.97 228.532L1720.27 43.4521" stroke="#2448E3" stroke-width="1.5"/>
<path d="M1925.75 435.272L1736.66 592.143" stroke="#2448E3" stroke-width="1.5"/>
<path d="M1946.69 581.736L1779.15 379.495" stroke="#2448E3" stroke-width="1.5"/>
<path d="M1946.69 581.736L1893.96 228.532" stroke="#2448E3" stroke-width="1.5"/>
<path d="M1927.8 903.204L1736.66 592.143" stroke="#2448E3" stroke-width="1.5"/>
<path d="M740.367 629.809C743.538 629.809 746.109 627.246 746.109 624.085C746.109 620.923 743.538 618.36 740.367 618.36C737.196 618.36 734.625 620.923 734.625 624.085C734.625 627.246 737.196 629.809 740.367 629.809Z" fill="#8B9AD9"/>
<path d="M887.507 601.691C890.679 601.691 893.249 599.128 893.249 595.967C893.249 592.805 890.679 590.242 887.507 590.242C884.336 590.242 881.766 592.805 881.766 595.967C881.766 599.128 884.336 601.691 887.507 601.691Z" fill="#8B9AD9"/>
<path d="M1074.37 606.98C1077.54 606.98 1080.11 604.417 1080.11 601.256C1080.11 598.094 1077.54 595.531 1074.37 595.531C1071.2 595.531 1068.63 598.094 1068.63 601.256C1068.63 604.417 1071.2 606.98 1074.37 606.98Z" fill="#8B9AD9"/>
<path d="M1193.74 559.01C1196.91 559.01 1199.48 556.447 1199.48 553.286C1199.48 550.124 1196.91 547.562 1193.74 547.562C1190.57 547.562 1188 550.124 1188 553.286C1188 556.447 1190.57 559.01 1193.74 559.01Z" fill="#8B9AD9"/>
<path d="M1391.69 393.679C1394.87 393.679 1397.44 391.116 1397.44 387.955C1397.44 384.793 1394.87 382.23 1391.69 382.23C1388.52 382.23 1385.95 384.793 1385.95 387.955C1385.95 391.116 1388.52 393.679 1391.69 393.679Z" fill="#8B9AD9"/>
<path d="M1361.41 566.658C1364.58 566.658 1367.16 564.095 1367.16 560.933C1367.16 557.772 1364.58 555.209 1361.41 555.209C1358.24 555.209 1355.67 557.772 1355.67 560.933C1355.67 564.095 1358.24 566.658 1361.41 566.658Z" fill="#8B9AD9"/>
<path d="M1604.32 111.904C1607.49 111.904 1610.06 109.341 1610.06 106.179C1610.06 103.018 1607.49 100.455 1604.32 100.455C1601.14 100.455 1598.57 103.018 1598.57 106.179C1598.57 109.341 1601.14 111.904 1604.32 111.904Z" fill="#8B9AD9"/>
<path d="M1589.18 240.233C1592.35 240.233 1594.92 237.67 1594.92 234.509C1594.92 231.347 1592.35 228.784 1589.18 228.784C1586.01 228.784 1583.44 231.347 1583.44 234.509C1583.44 237.67 1586.01 240.233 1589.18 240.233Z" fill="#8B9AD9"/>
<path d="M1541.14 460.484C1544.31 460.484 1546.88 457.921 1546.88 454.76C1546.88 451.598 1544.31 449.035 1541.14 449.035C1537.97 449.035 1535.4 451.598 1535.4 454.76C1535.4 457.921 1537.97 460.484 1541.14 460.484Z" fill="#8B9AD9"/>
<path d="M1535.51 626.58C1538.68 626.58 1541.25 624.017 1541.25 620.855C1541.25 617.694 1538.68 615.131 1535.51 615.131C1532.34 615.131 1529.77 617.694 1529.77 620.855C1529.77 624.017 1532.34 626.58 1535.51 626.58Z" fill="#8B9AD9"/>
<path d="M1779.15 385.219C1782.32 385.219 1784.89 382.656 1784.89 379.495C1784.89 376.333 1782.32 373.771 1779.15 373.771C1775.98 373.771 1773.41 376.333 1773.41 379.495C1773.41 382.656 1775.98 385.219 1779.15 385.219Z" fill="#8B9AD9"/>
<path d="M1736.66 597.867C1739.83 597.867 1742.4 595.304 1742.4 592.142C1742.4 588.981 1739.83 586.418 1736.66 586.418C1733.49 586.418 1730.92 588.981 1730.92 592.142C1730.92 595.304 1733.49 597.867 1736.66 597.867Z" fill="#8B9AD9"/>
<path d="M1893.97 234.256C1897.14 234.256 1899.71 231.693 1899.71 228.532C1899.71 225.37 1897.14 222.808 1893.97 222.808C1890.8 222.808 1888.23 225.37 1888.23 228.532C1888.23 231.693 1890.8 234.256 1893.97 234.256Z" fill="#8B9AD9"/>
</g>
</g>
</svg>
