<svg width="119" height="119" viewBox="0 0 119 119" fill="none" xmlns="http://www.w3.org/2000/svg">
<path d="M52.1062 117.639C51.4576 118.155 50.4897 118.087 49.9518 117.457C49.9162 117.412 49.0538 116.421 47.6542 114.617C47.1209 113.947 47.258 112.926 47.9467 112.414C48.6176 111.88 49.6211 111.993 50.1498 112.703C51.4784 114.418 52.323 115.387 52.3408 115.41C52.8964 116.062 52.8442 117.052 52.2088 117.63C52.1509 117.604 52.1285 117.621 52.1062 117.639Z" fill="#0F0E0E"/>
<path d="M45.478 108.761C45.4556 108.779 45.4109 108.815 45.3885 108.832C44.682 109.322 43.6877 109.128 43.1992 108.423C41.7737 106.311 40.4153 104.145 39.1194 101.966C38.6756 101.225 38.9286 100.258 39.6706 99.8132C40.4126 99.3685 41.38 99.6199 41.8238 100.361C43.0664 102.473 44.407 104.616 45.8015 106.643C46.2499 107.344 46.1042 108.263 45.478 108.761ZM37.8363 95.7647C37.7469 95.836 37.6798 95.8894 37.5726 95.9382C36.795 96.3383 35.8545 96.029 35.4555 95.2522C34.276 92.9443 33.2215 90.6099 32.2651 88.3069C31.9286 87.5168 32.3197 86.5853 33.1105 86.2477C33.9012 85.9101 34.8325 86.2997 35.1691 87.0897C36.0945 89.308 37.1358 91.58 38.2797 93.8432C38.5899 94.5083 38.3955 95.3197 37.8363 95.7647ZM32.067 81.8617C31.9328 81.9685 31.7585 82.0708 31.571 82.1106C30.7492 82.3634 29.8627 81.9382 29.5932 81.0948C28.7802 78.6046 28.1099 76.1103 27.5957 73.6742C27.4065 72.8398 27.949 72.0067 28.8062 71.7985C29.6412 71.6082 30.4738 72.1493 30.6807 73.006C31.1864 75.3395 31.8481 77.7312 32.6124 80.1142C32.7798 80.7835 32.559 81.47 32.067 81.8617ZM28.8924 67.1334C28.6688 67.3114 28.3918 67.4225 28.0615 67.4665C27.1956 67.5721 26.4347 66.9374 26.3304 66.072C26.0799 63.4624 25.9498 60.8664 26.0336 58.3555C26.0721 57.4858 26.7791 56.8136 27.6313 56.8284C28.5012 56.8656 29.1726 57.5714 29.1565 58.4232C29.0865 60.8138 29.1724 63.2625 29.4367 65.7517C29.5152 66.3093 29.295 66.813 28.8924 67.1334ZM29.3282 52.1214C28.9927 52.3884 28.5506 52.5215 28.0913 52.4493C27.2352 52.2918 26.6755 51.4969 26.7943 50.6363C27.2307 48.0636 27.8857 45.5358 28.692 43.1064C28.9891 42.2863 29.8739 41.8373 30.6761 42.1107C31.4961 42.4065 31.944 43.2904 31.6693 44.0927C30.8991 46.3839 30.3026 48.7557 29.8845 51.1679C29.8386 51.5692 29.619 51.89 29.3282 52.1214ZM34.1026 37.9241C33.6329 38.2979 32.9723 38.386 32.3977 38.0773C31.6317 37.6656 31.3312 36.7374 31.7263 35.9487C32.8979 33.7028 34.2702 31.4795 35.7939 29.3546C36.3003 28.6597 37.2958 28.4875 37.9902 28.9926C38.6846 29.4978 38.8554 30.4927 38.3491 31.1876C36.9017 33.1788 35.6056 35.2684 34.5281 37.403C34.4202 37.6347 34.2815 37.7817 34.1026 37.9241ZM60.6247 11.8509C60.5576 11.9043 60.5129 11.9399 60.428 11.971C58.2467 13.2696 56.141 14.6174 54.1958 15.9834C53.4894 16.4728 52.5128 16.3016 52.0019 15.6139C51.5134 14.9084 51.686 13.9319 52.3747 13.4202C54.3869 12.0008 56.5597 10.5996 58.826 9.26988C59.568 8.82513 60.5354 9.07655 60.9792 9.81768C61.3874 10.5142 61.2286 11.3702 60.6247 11.8509ZM42.8547 25.7406C42.2509 26.2213 41.381 26.1841 40.8116 25.6524C40.1889 25.0537 40.1384 24.0723 40.7383 23.449C42.4305 21.6277 44.3235 19.829 46.3053 18.142C46.9585 17.5856 47.9666 17.6587 48.5222 18.3108C49.0778 18.9629 49.0033 19.9708 48.3501 20.5272C46.4354 22.1608 44.6542 23.8704 43.0336 25.5982C42.9711 25.6115 42.9218 25.6872 42.8547 25.7406Z" fill="#0F0E0E"/>
<path d="M70.5067 6.68501C70.4173 6.75622 70.3055 6.84523 70.1804 6.87178C69.1081 7.36057 68.0312 7.88948 67.0168 8.40513C66.2392 8.80521 65.2988 8.49585 64.9221 7.70131C64.523 6.92457 64.8338 5.98402 65.6292 5.60626C66.7061 5.07734 67.783 4.54843 68.8777 4.04184C69.6731 3.66409 70.6089 4.01358 70.9678 4.78579C71.2557 5.46868 71.0435 6.25775 70.5067 6.68501Z" fill="#0F0E0E"/>
<path d="M78.8437 101.32C83.5382 101.32 87.3438 97.5203 87.3438 92.8329C87.3438 88.1456 83.5382 84.3457 78.8437 84.3457C74.1493 84.3457 70.3438 88.1456 70.3438 92.8329C70.3438 97.5203 74.1493 101.32 78.8437 101.32Z" fill="#0099F6"/>
</svg>
