<svg width="1140" height="155" viewBox="0 0 1140 155" fill="none" xmlns="http://www.w3.org/2000/svg">
<g opacity="0.05">
<mask id="path-1-outside-1_1218_13822" maskUnits="userSpaceOnUse" x="-0.320312" y="-0.238281" width="1140" height="156" fill="black">
<rect fill="white" x="-0.320312" y="-0.238281" width="1140" height="156"/>
<path d="M71.5384 151.495C57.356 151.495 45.2091 148.409 35.0976 142.237C24.9861 135.999 17.2055 127.332 11.7558 116.236C6.37171 105.139 3.67969 92.2702 3.67969 77.6282C3.67969 62.9863 6.37171 50.1171 11.7558 39.0207C17.2055 27.9243 24.9861 19.2901 35.0976 13.1181C45.2091 6.88053 57.356 3.76172 71.5384 3.76172C85.7208 3.76172 97.8677 6.88053 107.979 13.1181C118.156 19.2901 125.937 27.9243 131.321 39.0207C136.771 50.1171 139.496 62.9863 139.496 77.6282C139.496 92.2702 136.771 105.139 131.321 116.236C125.937 127.332 118.156 135.999 107.979 142.237C97.8677 148.409 85.7208 151.495 71.5384 151.495ZM71.5384 129.138C81.059 129.203 88.9709 127.102 95.2742 122.835C101.643 118.567 106.403 112.559 109.555 104.811C112.772 97.0634 114.381 88.0024 114.381 77.6282C114.381 67.2541 112.772 58.2588 109.555 50.6423C106.403 42.9602 101.643 36.9852 95.2742 32.7174C88.9709 28.4495 81.059 26.25 71.5384 26.1186C62.0178 26.053 54.1059 28.1541 47.8026 32.4219C41.4993 36.6898 36.7391 42.6976 33.5218 50.4454C30.3701 58.1931 28.7943 67.2541 28.7943 77.6282C28.7943 88.0024 30.3701 97.0305 33.5218 104.713C36.6734 112.329 41.4009 118.271 47.7041 122.539C54.0731 126.807 62.0178 129.007 71.5384 129.138Z"/>
<path d="M216.223 151.495C204.93 151.495 194.982 149.197 186.381 144.601C177.845 140.004 171.148 133.537 166.289 125.198C161.496 116.86 159.099 107.076 159.099 95.8487V6.91335L183.131 6.71638V95.2577C183.131 100.576 184.017 105.336 185.79 109.539C187.628 113.741 190.091 117.319 193.177 120.274C196.263 123.163 199.808 125.362 203.813 126.873C207.819 128.383 211.955 129.138 216.223 129.138C220.622 129.138 224.791 128.383 228.731 126.873C232.736 125.297 236.282 123.064 239.368 120.175C242.454 117.221 244.883 113.642 246.656 109.44C248.429 105.238 249.315 100.51 249.315 95.2577V6.71638H273.346V95.8487C273.346 107.076 270.917 116.86 266.058 125.198C261.265 133.537 254.568 140.004 245.967 144.601C237.431 149.197 227.516 151.495 216.223 151.495Z"/>
<path d="M300.869 148.54V6.71638H359.47C360.849 6.71638 362.622 6.78203 364.788 6.91335C366.955 6.97901 368.958 7.17599 370.796 7.50429C379.004 8.75181 385.767 11.4767 391.085 15.6788C396.469 19.881 400.441 25.1994 403.002 31.634C405.628 38.003 406.942 45.0941 406.942 52.9076C406.942 64.4636 404.02 74.4109 398.176 82.7496C392.332 91.0227 383.37 96.1441 371.289 98.1139L361.144 99.0003H324.605V148.54H300.869ZM382.319 148.54L354.349 90.8257L378.478 85.5073L409.207 148.54H382.319ZM324.605 76.8403H358.485C359.798 76.8403 361.276 76.7747 362.917 76.6434C364.559 76.512 366.069 76.2494 367.448 75.8554C371.387 74.8706 374.473 73.1306 376.706 70.6355C379.004 68.1405 380.612 65.3172 381.532 62.1655C382.516 59.0139 383.009 55.9279 383.009 52.9076C383.009 49.8872 382.516 46.8013 381.532 43.6496C380.612 40.4323 379.004 37.5762 376.706 35.0811C374.473 32.5861 371.387 30.8461 367.448 29.8612C366.069 29.4673 364.559 29.2375 362.917 29.1718C361.276 29.0405 359.798 28.9748 358.485 28.9748H324.605V76.8403Z"/>
<path d="M530.319 151.495C516.136 151.495 503.99 148.409 493.878 142.237C483.766 135.999 475.986 127.332 470.536 116.236C465.152 105.139 462.46 92.2702 462.46 77.6282C462.46 62.9863 465.152 50.1171 470.536 39.0207C475.986 27.9243 483.766 19.2901 493.878 13.1181C503.99 6.88053 516.136 3.76172 530.319 3.76172C546.668 3.76172 560.292 7.86542 571.192 16.0728C582.091 24.2145 589.74 35.2124 594.139 49.0665L570.207 55.6653C567.449 46.4073 562.754 39.1848 556.123 33.9977C549.491 28.745 540.89 26.1186 530.319 26.1186C520.798 26.1186 512.853 28.2526 506.485 32.5204C500.181 36.7883 495.421 42.7961 492.204 50.5438C489.052 58.226 487.443 67.2541 487.378 77.6282C487.378 88.0024 488.954 97.0634 492.105 104.811C495.322 112.493 500.116 118.468 506.485 122.736C512.853 127.004 520.798 129.138 530.319 129.138C540.89 129.138 549.491 126.511 556.123 121.259C562.754 116.006 567.449 108.784 570.207 99.5912L594.139 106.19C589.74 120.044 582.091 131.075 571.192 139.282C560.292 147.424 546.668 151.495 530.319 151.495Z"/>
<path d="M617.734 148.54V6.71638H641.469V126.282H704.108V148.54H617.734Z"/>
<path d="M722.763 148.54V6.71638H746.498V148.54H722.763Z"/>
<path d="M776 148.54V6.71638H867.595V28.9748H799.736V63.9383H855.776V86.1968H799.736V126.282H867.595V148.54H776Z"/>
<path d="M891.224 148.54V6.71638H915.256L981.046 106.682V6.71638H1005.08V148.54H981.046L915.256 48.5741V148.54H891.224Z"/>
<path d="M1066.69 148.54V28.9748H1020.79V6.71638H1136.32V28.9748H1090.42V148.54H1066.69Z"/>
</mask>
<path d="M71.5384 151.495C57.356 151.495 45.2091 148.409 35.0976 142.237C24.9861 135.999 17.2055 127.332 11.7558 116.236C6.37171 105.139 3.67969 92.2702 3.67969 77.6282C3.67969 62.9863 6.37171 50.1171 11.7558 39.0207C17.2055 27.9243 24.9861 19.2901 35.0976 13.1181C45.2091 6.88053 57.356 3.76172 71.5384 3.76172C85.7208 3.76172 97.8677 6.88053 107.979 13.1181C118.156 19.2901 125.937 27.9243 131.321 39.0207C136.771 50.1171 139.496 62.9863 139.496 77.6282C139.496 92.2702 136.771 105.139 131.321 116.236C125.937 127.332 118.156 135.999 107.979 142.237C97.8677 148.409 85.7208 151.495 71.5384 151.495ZM71.5384 129.138C81.059 129.203 88.9709 127.102 95.2742 122.835C101.643 118.567 106.403 112.559 109.555 104.811C112.772 97.0634 114.381 88.0024 114.381 77.6282C114.381 67.2541 112.772 58.2588 109.555 50.6423C106.403 42.9602 101.643 36.9852 95.2742 32.7174C88.9709 28.4495 81.059 26.25 71.5384 26.1186C62.0178 26.053 54.1059 28.1541 47.8026 32.4219C41.4993 36.6898 36.7391 42.6976 33.5218 50.4454C30.3701 58.1931 28.7943 67.2541 28.7943 77.6282C28.7943 88.0024 30.3701 97.0305 33.5218 104.713C36.6734 112.329 41.4009 118.271 47.7041 122.539C54.0731 126.807 62.0178 129.007 71.5384 129.138Z" stroke="white" stroke-width="6.64493" mask="url(#path-1-outside-1_1218_13822)"/>
<path d="M216.223 151.495C204.93 151.495 194.982 149.197 186.381 144.601C177.845 140.004 171.148 133.537 166.289 125.198C161.496 116.86 159.099 107.076 159.099 95.8487V6.91335L183.131 6.71638V95.2577C183.131 100.576 184.017 105.336 185.79 109.539C187.628 113.741 190.091 117.319 193.177 120.274C196.263 123.163 199.808 125.362 203.813 126.873C207.819 128.383 211.955 129.138 216.223 129.138C220.622 129.138 224.791 128.383 228.731 126.873C232.736 125.297 236.282 123.064 239.368 120.175C242.454 117.221 244.883 113.642 246.656 109.44C248.429 105.238 249.315 100.51 249.315 95.2577V6.71638H273.346V95.8487C273.346 107.076 270.917 116.86 266.058 125.198C261.265 133.537 254.568 140.004 245.967 144.601C237.431 149.197 227.516 151.495 216.223 151.495Z" stroke="white" stroke-width="6.64493" mask="url(#path-1-outside-1_1218_13822)"/>
<path d="M300.869 148.54V6.71638H359.47C360.849 6.71638 362.622 6.78203 364.788 6.91335C366.955 6.97901 368.958 7.17599 370.796 7.50429C379.004 8.75181 385.767 11.4767 391.085 15.6788C396.469 19.881 400.441 25.1994 403.002 31.634C405.628 38.003 406.942 45.0941 406.942 52.9076C406.942 64.4636 404.02 74.4109 398.176 82.7496C392.332 91.0227 383.37 96.1441 371.289 98.1139L361.144 99.0003H324.605V148.54H300.869ZM382.319 148.54L354.349 90.8257L378.478 85.5073L409.207 148.54H382.319ZM324.605 76.8403H358.485C359.798 76.8403 361.276 76.7747 362.917 76.6434C364.559 76.512 366.069 76.2494 367.448 75.8554C371.387 74.8706 374.473 73.1306 376.706 70.6355C379.004 68.1405 380.612 65.3172 381.532 62.1655C382.516 59.0139 383.009 55.9279 383.009 52.9076C383.009 49.8872 382.516 46.8013 381.532 43.6496C380.612 40.4323 379.004 37.5762 376.706 35.0811C374.473 32.5861 371.387 30.8461 367.448 29.8612C366.069 29.4673 364.559 29.2375 362.917 29.1718C361.276 29.0405 359.798 28.9748 358.485 28.9748H324.605V76.8403Z" stroke="white" stroke-width="6.64493" mask="url(#path-1-outside-1_1218_13822)"/>
<path d="M530.319 151.495C516.136 151.495 503.99 148.409 493.878 142.237C483.766 135.999 475.986 127.332 470.536 116.236C465.152 105.139 462.46 92.2702 462.46 77.6282C462.46 62.9863 465.152 50.1171 470.536 39.0207C475.986 27.9243 483.766 19.2901 493.878 13.1181C503.99 6.88053 516.136 3.76172 530.319 3.76172C546.668 3.76172 560.292 7.86542 571.192 16.0728C582.091 24.2145 589.74 35.2124 594.139 49.0665L570.207 55.6653C567.449 46.4073 562.754 39.1848 556.123 33.9977C549.491 28.745 540.89 26.1186 530.319 26.1186C520.798 26.1186 512.853 28.2526 506.485 32.5204C500.181 36.7883 495.421 42.7961 492.204 50.5438C489.052 58.226 487.443 67.2541 487.378 77.6282C487.378 88.0024 488.954 97.0634 492.105 104.811C495.322 112.493 500.116 118.468 506.485 122.736C512.853 127.004 520.798 129.138 530.319 129.138C540.89 129.138 549.491 126.511 556.123 121.259C562.754 116.006 567.449 108.784 570.207 99.5912L594.139 106.19C589.74 120.044 582.091 131.075 571.192 139.282C560.292 147.424 546.668 151.495 530.319 151.495Z" stroke="white" stroke-width="6.64493" mask="url(#path-1-outside-1_1218_13822)"/>
<path d="M617.734 148.54V6.71638H641.469V126.282H704.108V148.54H617.734Z" stroke="white" stroke-width="6.64493" mask="url(#path-1-outside-1_1218_13822)"/>
<path d="M722.763 148.54V6.71638H746.498V148.54H722.763Z" stroke="white" stroke-width="6.64493" mask="url(#path-1-outside-1_1218_13822)"/>
<path d="M776 148.54V6.71638H867.595V28.9748H799.736V63.9383H855.776V86.1968H799.736V126.282H867.595V148.54H776Z" stroke="white" stroke-width="6.64493" mask="url(#path-1-outside-1_1218_13822)"/>
<path d="M891.224 148.54V6.71638H915.256L981.046 106.682V6.71638H1005.08V148.54H981.046L915.256 48.5741V148.54H891.224Z" stroke="white" stroke-width="6.64493" mask="url(#path-1-outside-1_1218_13822)"/>
<path d="M1066.69 148.54V28.9748H1020.79V6.71638H1136.32V28.9748H1090.42V148.54H1066.69Z" stroke="white" stroke-width="6.64493" mask="url(#path-1-outside-1_1218_13822)"/>
</g>
</svg>
